<?xml version="1.0" encoding="utf-8"?>
<!-- Generator: Adobe Illustrator 15.0.0, SVG Export Plug-In . SVG Version: 6.00 Build 0)  -->
<!DOCTYPE svg PUBLIC "-//W3C//DTD SVG 1.1//EN" "http://www.w3.org/Graphics/SVG/1.1/DTD/svg11.dtd">
<svg version="1.1" id="レイヤー_1" xmlns="http://www.w3.org/2000/svg" xmlns:xlink="http://www.w3.org/1999/xlink" x="0px"
	 y="0px" width="400px" height="300px" viewBox="0 0 400 300" style="enable-background:new 0 0 400 300;" xml:space="preserve">
<style type="text/css">
<![CDATA[
	.st0{fill:#CC0000;}
]]>
</style>
<g>
	<g>
		<path class="st0" d="M192.173,52.474l-15.057,7.907l-19.788,9.017l-1.721,0.694l-16.776,6.381
			c-3.012,1.11-16.777,5.826-21.51,5.826c-4.731,0-17.852-5.271-17.852-11.652c0-1.803,1.936-3.606,3.011-3.606
			c0.216,0,2.796,0.277,3.227,0.277c8.389,0,29.037-5.133,39.361-8.323c28.606-8.878,39.146-17.479,39.146-18.866
			c0-0.277-3.441-2.774-3.441-3.329c0-5.549,8.818-6.797,15.486-6.797c8.389,0,13.336,2.497,13.336,4.855
			c0,5.271,0,6.381,22.369,13.872c3.871,1.249,20.218,7.075,23.875,8.185c18.712,5.41,23.229,6.658,37.21,8.878
			c3.226,0.555,5.162,2.081,5.162,3.329c0,1.803-13.336,10.404-18.282,10.404c-3.227,0-5.378-0.555-18.068-4.578
			c-16.562-5.132-45.383-16.646-55.492-23.305c-4.302-2.913-4.732-3.19-6.883-4.023L192.173,52.474z M262.722,122.387l-4.947,9.988
			c-1.936,3.884-7.313,14.565-15.701,14.565c-0.861,0-4.518,0-5.162-0.139c-3.872-0.971-4.303-0.971-5.162-0.971h-7.528
			l-32.479-0.555c-5.377-0.139-15.701-0.277-20.648-0.139c-0.215,0-12.26,2.358-14.626,2.358c-7.958,0-11.83-5.132-12.69-7.352
			l-3.656-8.878c-0.646-1.803-6.452-13.178-8.604-14.149c-0.86-0.416-4.947-1.803-5.593-2.219c-2.796-1.11-3.656-2.774-3.656-4.023
			c0-4.162,7.313-10.404,16.132-11.375c1.936-0.139,10.109-1.526,11.83-1.665c10.539-0.971,39.576-1.109,47.964-0.832l14.842,0.555
			l24.95,0.555c8.173,0.139,17.853,0.555,21.938,1.387c11.615,2.497,16.347,8.461,16.347,11.652c0,1.942-1.075,2.358-5.377,3.884
			c-0.431,0.139-3.872,2.081-4.517,2.774c-2.581,3.329-3.012,3.745-3.227,4.162L262.722,122.387z M164.426,74.53h1.291
			c3.226,0.832,3.656,0.971,6.452,0.971c11.83,0,15.271,0,25.811-0.139c3.227,0,23.015,0.833,27.531,0.833
			c6.668,0,13.98,0.139,19.788,1.387c2.366,0.555,2.581,3.052,2.581,3.884c0,4.578-3.871,7.213-10.754,7.213
			c-5.808,0-31.618-1.109-36.995-1.109c-10.755,0-33.769,1.248-37.641,1.526c-1.506,0.139-7.743,1.248-9.034,1.248
			c-2.15,0-5.162-2.358-5.162-3.745C148.294,81.882,156.468,74.53,164.426,74.53z M239.707,131.681l4.946-11.652
			c0.431-0.971,3.012-8.6,3.012-9.017c0-0.693-10.109-1.526-10.539-1.526l-22.584-0.693l-19.789-0.277l-23.659,0.139
			c-2.366,0-13.12,1.109-15.271,1.109c-2.581,0-4.946,0-4.946,2.22c0,1.249,5.162,12.346,7.312,17.34
			c1.291,3.19,2.366,3.468,6.668,3.468c3.871,0,20.648,0.277,24.09,0.277l38.5,0.139h11.186L239.707,131.681z"/>
		<path class="st0" d="M155.393,186.341c0,1.249,2.581,1.249,3.226,1.249h7.313c4.302,0.693,6.022,3.467,6.022,4.854
			c0,1.526-1.721,4.161-4.302,4.716c-1.075,0.278-9.034,1.11-10.97,1.388c0.86,4.438,6.022,7.214,7.313,7.769
			c7.312,3.884,8.173,4.3,8.173,6.242c0,3.329-4.731,5.271-7.527,5.271c-2.151,0-4.303-1.526-4.518-1.665
			c-3.656-2.636-4.086-2.913-5.807-3.606l-0.431,0.277l-0.431,2.913l-0.215,32.876L153.672,260c0,0.971,0.43,14.843-10.324,14.843
			c-5.162,0-12.905-7.907-12.905-13.456c0-1.525,4.731-8.461,4.731-8.738l2.796-12.763l0.861-12.484l-0.216-6.659h-0.86
			l-1.075,0.833l-6.452,8.462c-7.313,9.571-13.981,18.727-21.294,18.727c-5.808,0-9.249-5.826-9.249-8.878
			c0-6.242,0.86-6.797,7.098-10.265c11.615-6.242,27.316-22.611,27.316-30.24c-3.227-0.139-4.517,0-15.486,1.248
			c-1.075,0.139-6.022,1.109-6.883,1.109c-4.302,0-7.528-2.913-7.528-4.855c0-1.109,3.441-10.126,16.992-10.126
			c3.011,0,15.701,0.694,18.282,0.694c0.215-3.191-0.215-10.543-1.936-13.04c-0.43-0.416-2.581-2.22-2.796-2.774v-0.693
			c0-4.855,7.528-10.682,14.411-10.682c5.807,0,8.604,3.746,8.604,7.213v3.746L155.393,186.341z M197.335,197.021
			c-0.861,0.417-9.68,6.659-14.627,6.659c-7.958,0-7.958-5.549-7.958-9.987c0-3.191,1.075-3.607,11.185-7.353
			c3.872-1.388,12.26-5.549,14.842-7.491c1.505-1.109,6.021-5.965,6.021-7.629c0-0.416-0.43-0.555-2.58-1.803
			c-0.431-0.278-1.291-1.526-1.291-2.221c0-2.219,4.302-5.688,12.045-5.688c5.162,0,6.668,4.717,7.312,6.242h17.207
			c1.721,0,4.732,0,6.238-0.139c1.075-0.139,4.947-0.832,5.807-0.832c7.744,0,18.713,6.381,18.713,10.82
			c0,2.636-3.011,3.19-10.109,4.023c-1.29,0.139-1.721,0.139-3.656,1.803l-9.248,7.906c-0.646,0.694-8.389,7.353-8.389,7.491
			c0,2.081,17.852,8.462,18.928,8.739l17.422,4.439c0.43,0.139,17.637,2.912,19.357,3.19c1.291,0.277,4.303,0.832,4.303,2.358
			c0,1.248-8.389,12.207-17.423,12.207c-5.162,0-18.497-4.855-23.659-6.797c-2.151-0.694-14.411-7.214-16.132-8.186l-11.614-7.074
			l-5.378,4.855l-11.829,8.878c-1.506,1.109-13.981,7.63-14.196,7.63c-7.528,2.496-12.26,4.161-18.282,4.161
			c-4.518,0-15.917-3.052-15.917-9.017c0-2.22,0.431-2.22,6.022-2.913c18.713-2.358,49.04-20.53,49.04-21.64
			c0-0.972-2.796-2.914-3.011-3.191c-3.227-2.357-3.872-2.773-9.249-7.074L197.335,197.021z M258.635,270.127
			c-6.237,0.555-16.132,0.971-46.459,0.971c-16.777,0-17.638-4.301-18.713-9.572c-0.646-2.912-1.936-6.104-4.302-12.207
			c-0.43-1.109-3.441-5.965-3.441-6.936c0-6.242,12.905-10.682,13.551-10.82c2.15-0.832,12.475-1.387,15.486-1.387
			c3.441,0,18.067,0.277,21.078,0.277c2.151,0,16.562-0.277,16.992-0.277c8.818,0,15.486,0,19.357,1.525
			c5.593,2.081,11.83,5.965,11.83,8.879c0,1.387-5.592,6.242-6.022,7.49c-0.43,0.832-6.022,14.148-8.173,16.23
			c-1.936,1.803-1.936,1.941-2.151,2.912C264.657,269.017,262.722,269.71,258.635,270.127z M211.101,257.642
			c0.43,1.11,1.075,1.665,3.656,1.665c1.936,0,10.969,0.416,12.689,0.416c1.937,0,9.895-0.139,11.615-0.139
			c11.399,0,12.69,0,14.195-0.693c2.582-1.388,6.453-13.317,6.453-16.092c0-1.803-3.871-1.941-5.808-1.941
			c-7.743,0-29.036,0.139-34.844,0.277c-10.54,0.416-11.83,0.416-11.83,2.219C207.229,246.406,209.38,254.174,211.101,257.642z
			 M240.782,179.404c-2.15-0.277-2.581-0.277-3.441-0.277c-2.366,0-13.336,0.139-15.486,0.139c-2.796,0-3.012,0-4.087,0.417
			c0,0.139-1.075,1.526-1.075,2.081c0,3.467,9.464,9.432,12.26,11.235C233.039,190.225,240.567,183.012,240.782,179.404z"/>
	</g>
	<path class="st0" d="M309.013,284.014H90.987c-13.785,0-25-11.215-25-25V40.988c0-13.785,11.215-25,25-25h218.025
		c13.785,0,25,11.215,25,25v218.025C334.013,272.799,322.798,284.014,309.013,284.014z M90.987,25.988c-8.271,0-15,6.729-15,15
		v218.025c0,8.271,6.729,15,15,15h218.025c8.271,0,15-6.729,15-15V40.988c0-8.271-6.729-15-15-15H90.987z"/>
</g>
</svg>
