<?xml version="1.0" encoding="utf-8"?>
<!-- Generator: Adobe Illustrator 15.0.0, SVG Export Plug-In . SVG Version: 6.00 Build 0)  -->
<!DOCTYPE svg PUBLIC "-//W3C//DTD SVG 1.1//EN" "http://www.w3.org/Graphics/SVG/1.1/DTD/svg11.dtd">
<svg version="1.1" id="レイヤー_1" xmlns="http://www.w3.org/2000/svg" xmlns:xlink="http://www.w3.org/1999/xlink" x="0px"
	 y="0px" width="400px" height="300px" viewBox="0 0 400 300" style="enable-background:new 0 0 400 300;" xml:space="preserve">
<style type="text/css">
<![CDATA[
	.st0{fill:#B7D7E5;}
	.st1{fill:#2B274C;}
	.st2{fill:#FFE357;}
	.st3{fill:#9CAFB7;}
	.st4{fill:#76BEFF;}
]]>
</style>
<g>
	<path class="st1" d="M18.463,22.057v255.887h363.074V22.058L18.463,22.057z M46.305,222.283l-3.836,6.444
		c-1.122,1.885-3.116,2.932-5.162,2.932c-1.044,0-2.101-0.272-3.063-0.846c-2.848-1.694-3.782-5.377-2.087-8.225l3.836-6.444
		c1.694-2.848,5.377-3.783,8.225-2.086C47.065,215.753,48,219.436,46.305,222.283z M52.389,206.321
		c-1.043,0-2.101-0.272-3.063-0.845c-2.848-1.695-3.782-5.378-2.087-8.226l7.334-12.321c1.694-2.847,5.376-3.781,8.225-2.087
		c2.848,1.695,3.782,5.378,2.087,8.226l-7.334,12.321C56.429,205.274,54.435,206.321,52.389,206.321z M65.819,166.037l3.836-6.444
		c1.694-2.847,5.377-3.783,8.225-2.086c2.848,1.694,3.782,5.377,2.087,8.225l-3.836,6.444c-1.122,1.885-3.116,2.932-5.162,2.932
		c-1.044,0-2.101-0.272-3.063-0.846C65.059,172.567,64.125,168.885,65.819,166.037z M78.962,251.328l-3.785,6.475
		c-1.116,1.908-3.124,2.973-5.186,2.973c-1.028,0-2.07-0.265-3.022-0.821c-2.86-1.672-3.824-5.347-2.151-8.208l3.785-6.475
		c1.672-2.859,5.346-3.823,8.208-2.151C79.671,244.792,80.635,248.467,78.962,251.328z M97.935,218.876l-7.489,12.81
		c-1.116,1.908-3.124,2.973-5.186,2.973c-1.028,0-2.07-0.265-3.022-0.821c-2.86-1.672-3.824-5.348-2.151-8.208l7.489-12.81
		c1.673-2.859,5.346-3.824,8.208-2.151C98.644,212.34,99.607,216.016,97.935,218.876z M104.232,202.206
		c-1.028,0-2.07-0.265-3.022-0.821c-2.861-1.672-3.824-5.348-2.151-8.208l7.489-12.81c1.672-2.86,5.346-3.823,8.208-2.151
		c2.86,1.672,3.824,5.348,2.151,8.208l-7.489,12.81C108.302,201.142,106.294,202.206,104.232,202.206z M132.339,177.918
		l-50.095-12.605l15.901-18.264H83.333c-23.499,0-42.55-16.662-42.55-37.221c0-13.924,8.841-25.927,21.787-32.313
		c-0.004-0.236-0.068-0.452-0.068-0.677c0-25.764,20.879-46.651,46.646-46.651c16.043,0,30.182,8.117,38.578,20.457
		c4.723-3.372,10.412-5.347,16.531-5.347c15.427,0,27.955,12.54,29.404,28.514c9.021,1.967,16.909,6.433,22.634,12.509
		c2.658-2.655,5.818-4.921,9.361-6.67c-0.002-0.195-0.057-0.373-0.057-0.559c0-21.299,17.26-38.565,38.561-38.565
		c13.264,0,24.951,6.709,31.891,16.912c3.904-2.787,8.609-4.42,13.666-4.42c12.754,0,23.109,10.365,24.307,23.571
		c15.303,3.336,26.688,15.353,26.688,29.773c0,16.996-15.762,30.769-35.188,30.768h-37.816l-4.496,10.328l31.113,9.195
		l-38.066,61.191l14.945-46.246l-35.582-9.607l20.17-24.861H242.82c-8.922,0-17.062-2.911-23.264-7.699
		c-7.51,10.574-20.905,17.617-36.179,17.617h-59.366l40.878,11.26l-53.595,80.286L132.339,177.918z M336.32,157.023l-3.432,6.67
		c-1.064,2.069-3.164,3.257-5.34,3.257c-0.924,0-1.861-0.214-2.74-0.665c-2.947-1.516-4.107-5.134-2.592-8.08l3.432-6.67
		c1.516-2.948,5.133-4.105,8.08-2.592C336.676,150.459,337.836,154.077,336.32,157.023z M237.236,149.691l-3.639,6.559
		c-1.096,1.976-3.143,3.091-5.252,3.091c-0.984,0-1.982-0.242-2.904-0.754c-2.898-1.607-3.945-5.26-2.338-8.157l3.639-6.559
		c1.605-2.898,5.258-3.944,8.156-2.337S238.844,146.794,237.236,149.691z M178.689,169.277l-3.748,6.496
		c-1.111,1.926-3.128,3.003-5.203,3.003c-1.018,0-2.048-0.259-2.993-0.804c-2.871-1.656-3.855-5.325-2.199-8.195l3.748-6.496
		c1.657-2.87,5.327-3.854,8.195-2.199C179.361,162.738,180.345,166.407,178.689,169.277z M127.74,257.596l-3.748,6.496
		c-1.111,1.926-3.128,3.003-5.203,3.003c-1.018,0-2.048-0.259-2.993-0.804c-2.871-1.656-3.855-5.325-2.199-8.195l3.748-6.496
		c1.657-2.87,5.327-3.854,8.195-2.199C128.412,251.057,129.396,254.726,127.74,257.596z M145.858,226.189l-7.152,12.397
		c-1.111,1.926-3.128,3.003-5.203,3.003c-1.018,0-2.048-0.259-2.993-0.804c-2.871-1.656-3.855-5.325-2.199-8.195l7.152-12.397
		c1.657-2.87,5.327-3.854,8.195-2.199C146.529,219.65,147.514,223.319,145.858,226.189z M151.621,210.184
		c-1.018,0-2.048-0.259-2.993-0.804c-2.871-1.656-3.855-5.325-2.199-8.195l7.152-12.397c1.656-2.87,5.327-3.854,8.195-2.199
		c2.871,1.656,3.855,5.325,2.199,8.195l-7.152,12.397C155.713,209.106,153.695,210.184,151.621,210.184z M175.49,261.009
		l-3.638,6.559c-1.096,1.976-3.143,3.091-5.252,3.091c-0.985,0-1.983-0.242-2.905-0.754c-2.897-1.607-3.943-5.26-2.336-8.157
		l3.638-6.559c1.607-2.898,5.26-3.945,8.157-2.337C176.051,254.459,177.097,258.111,175.49,261.009z M191.607,231.951l-6.362,11.47
		c-1.096,1.976-3.143,3.091-5.252,3.091c-0.985,0-1.983-0.242-2.905-0.754c-2.897-1.607-3.943-5.26-2.336-8.157l6.362-11.47
		c1.608-2.897,5.26-3.944,8.158-2.337S193.214,229.054,191.607,231.951z M207.725,202.895l-6.361,11.47
		c-1.097,1.976-3.144,3.091-5.253,3.091c-0.985,0-1.983-0.242-2.905-0.754c-2.897-1.607-3.943-5.26-2.336-8.157l6.362-11.47
		c1.607-2.897,5.259-3.945,8.158-2.337C208.287,196.345,209.332,199.997,207.725,202.895z M212.227,188.397
		c-0.984,0-1.982-0.242-2.904-0.754c-2.898-1.607-3.943-5.26-2.336-8.157l6.361-11.47c1.607-2.897,5.258-3.946,8.158-2.337
		c2.898,1.607,3.943,5.26,2.336,8.157l-6.361,11.47C216.385,187.282,214.338,188.397,212.227,188.397z M231.738,261.309l-3.4,6.686
		c-1.059,2.082-3.166,3.281-5.354,3.281c-0.914,0-1.844-0.21-2.715-0.652c-2.953-1.502-4.131-5.114-2.629-8.068l3.4-6.686
		c1.502-2.954,5.115-4.129,8.068-2.629C232.062,254.742,233.24,258.354,231.738,261.309z M246.4,232.472l-5.787,11.383
		c-1.059,2.083-3.168,3.282-5.354,3.282c-0.916,0-1.844-0.21-2.715-0.652c-2.953-1.502-4.131-5.114-2.629-8.067l5.787-11.383
		c1.5-2.955,5.115-4.13,8.066-2.63C246.725,225.906,247.902,229.519,246.4,232.472z M261.062,203.637l-5.789,11.383
		c-1.059,2.082-3.166,3.281-5.354,3.281c-0.914,0-1.842-0.21-2.715-0.652c-2.953-1.502-4.131-5.114-2.629-8.068l5.789-11.383
		c1.502-2.954,5.111-4.129,8.068-2.629C261.387,197.07,262.564,200.683,261.062,203.637z M264.584,189.465
		c-0.916,0-1.844-0.21-2.715-0.652c-2.953-1.502-4.131-5.114-2.629-8.068l3.398-6.686c1.504-2.953,5.115-4.129,8.068-2.629
		c2.953,1.502,4.131,5.114,2.629,8.068l-3.398,6.686C268.877,188.266,266.77,189.465,264.584,189.465z M286.066,254.731l-3.43,6.67
		c-1.064,2.069-3.164,3.257-5.342,3.257c-0.924,0-1.861-0.214-2.738-0.665c-2.947-1.516-4.107-5.134-2.592-8.08l3.43-6.67
		c1.518-2.948,5.135-4.105,8.08-2.592C286.422,248.167,287.582,251.785,286.066,254.731z M304.039,219.788l-7.096,13.794
		c-1.064,2.069-3.164,3.257-5.34,3.257c-0.924,0-1.861-0.214-2.74-0.665c-2.947-1.516-4.107-5.134-2.592-8.08l7.096-13.794
		c1.516-2.947,5.133-4.106,8.08-2.592C304.395,213.224,305.555,216.842,304.039,219.788z M309.576,201.895
		c-0.924,0-1.861-0.214-2.74-0.665c-2.947-1.516-4.107-5.134-2.592-8.08l7.096-13.794c1.516-2.948,5.133-4.105,8.08-2.592
		c2.947,1.516,4.107,5.134,2.592,8.08l-7.096,13.794C313.852,200.707,311.752,201.895,309.576,201.895z M331.055,251.706
		l-3.412,6.68c-1.061,2.077-3.166,3.272-5.348,3.272c-0.918,0-1.85-0.211-2.725-0.657c-2.951-1.507-4.121-5.121-2.615-8.072
		l3.412-6.68c1.506-2.95,5.119-4.122,8.072-2.615C331.391,245.141,332.561,248.755,331.055,251.706z M349.033,216.497l-7.096,13.898
		c-1.061,2.077-3.166,3.272-5.35,3.272c-0.918,0-1.85-0.211-2.723-0.657c-2.951-1.507-4.123-5.121-2.615-8.072l7.096-13.898
		c1.508-2.951,5.121-4.123,8.072-2.615C349.369,209.932,350.541,213.546,349.033,216.497z M363.326,188.507l-3.41,6.68
		c-1.061,2.077-3.166,3.272-5.35,3.272c-0.918,0-1.85-0.211-2.723-0.657c-2.951-1.507-4.123-5.121-2.615-8.072l3.41-6.68
		c1.508-2.95,5.119-4.122,8.072-2.615C363.662,181.941,364.834,185.556,363.326,188.507z"/>
	<path class="st0" d="M219.557,129.432c6.201,4.788,14.342,7.699,23.264,7.699h32.971l25.725-31.708l-13.809,31.708h37.816
		c19.426,0.001,35.188-13.772,35.188-30.768c0-14.421-11.385-26.437-26.688-29.773c-1.197-13.206-11.553-23.571-24.307-23.571
		c-5.057,0-9.762,1.633-13.666,4.42c-6.939-10.202-18.627-16.912-31.891-16.912c-21.301,0-38.561,17.266-38.561,38.565
		c0,0.186,0.055,0.363,0.057,0.559c-3.543,1.749-6.703,4.015-9.361,6.67c6.021,6.392,9.648,14.565,9.648,23.508
		C225.943,117.024,223.602,123.738,219.557,129.432z"/>
	<path class="st3" d="M121.087,146.243l2.925,0.806h59.366c15.274,0,28.669-7.043,36.179-17.617
		c4.045-5.693,6.387-12.408,6.387-19.604c0-8.943-3.627-17.117-9.648-23.508c-5.725-6.076-13.613-10.542-22.634-12.509
		c-1.449-15.975-13.978-28.514-29.404-28.514c-6.119,0-11.809,1.976-16.531,5.347c-8.396-12.34-22.535-20.457-38.578-20.457
		c-25.767,0-46.646,20.887-46.646,46.651c0,0.226,0.064,0.441,0.068,0.677c-12.946,6.386-21.787,18.389-21.787,32.313
		c0,20.559,19.051,37.221,42.55,37.221h14.812l48.715-55.954L121.087,146.243z"/>
	<path class="st4" d="M95.783,210.668c-2.862-1.673-6.535-0.708-8.208,2.151l-7.489,12.81c-1.672,2.86-0.709,6.536,2.151,8.208
		c0.952,0.557,1.994,0.821,3.022,0.821c2.062,0,4.07-1.064,5.186-2.973l7.489-12.81C99.607,216.016,98.644,212.34,95.783,210.668z"
		/>
	<path class="st4" d="M114.755,178.216c-2.862-1.672-6.536-0.709-8.208,2.151l-7.489,12.81c-1.672,2.86-0.709,6.536,2.151,8.208
		c0.952,0.557,1.994,0.821,3.022,0.821c2.062,0,4.07-1.064,5.186-2.973l7.489-12.81
		C118.579,183.563,117.615,179.888,114.755,178.216z"/>
	<path class="st4" d="M76.811,243.12c-2.862-1.672-6.536-0.708-8.208,2.151l-3.785,6.475c-1.672,2.861-0.709,6.536,2.151,8.208
		c0.952,0.557,1.994,0.821,3.022,0.821c2.062,0,4.07-1.064,5.186-2.973l3.785-6.475C80.635,248.467,79.671,244.792,76.811,243.12z"
		/>
	<path class="st4" d="M325.648,151.535l-3.432,6.67c-1.516,2.946-0.355,6.564,2.592,8.08c0.879,0.451,1.816,0.665,2.74,0.665
		c2.176,0,4.275-1.188,5.34-3.257l3.432-6.67c1.516-2.946,0.355-6.564-2.592-8.08C330.781,147.43,327.164,148.587,325.648,151.535z"
		/>
	<path class="st4" d="M319.42,176.764c-2.947-1.514-6.564-0.356-8.08,2.592l-7.096,13.794c-1.516,2.946-0.355,6.564,2.592,8.08
		c0.879,0.451,1.816,0.665,2.74,0.665c2.176,0,4.275-1.188,5.34-3.257l7.096-13.794C323.527,181.897,322.367,178.279,319.42,176.764
		z"/>
	<path class="st4" d="M301.447,211.708c-2.947-1.515-6.564-0.355-8.08,2.592l-7.096,13.794c-1.516,2.946-0.355,6.564,2.592,8.08
		c0.879,0.451,1.816,0.665,2.74,0.665c2.176,0,4.275-1.188,5.34-3.257l7.096-13.794
		C305.555,216.842,304.395,213.224,301.447,211.708z"/>
	<path class="st4" d="M283.475,246.651c-2.945-1.514-6.562-0.356-8.08,2.592l-3.43,6.67c-1.516,2.946-0.355,6.564,2.592,8.08
		c0.877,0.451,1.814,0.665,2.738,0.665c2.178,0,4.277-1.188,5.342-3.257l3.43-6.67C287.582,251.785,286.422,248.167,283.475,246.651
		z"/>
	<path class="st4" d="M226.742,143.871l-3.639,6.559c-1.607,2.897-0.561,6.55,2.338,8.157c0.922,0.512,1.92,0.754,2.904,0.754
		c2.109,0,4.156-1.115,5.252-3.091l3.639-6.559c1.607-2.897,0.561-6.55-2.338-8.157S228.348,140.973,226.742,143.871z"/>
	<path class="st4" d="M189.271,223.794c-2.897-1.607-6.55-0.561-8.158,2.337l-6.362,11.47c-1.607,2.897-0.561,6.55,2.336,8.157
		c0.922,0.512,1.92,0.754,2.905,0.754c2.109,0,4.156-1.115,5.252-3.091l6.362-11.47
		C193.214,229.054,192.168,225.401,189.271,223.794z"/>
	<path class="st4" d="M223.842,173.837c1.607-2.897,0.562-6.55-2.336-8.157c-2.9-1.609-6.551-0.561-8.158,2.337l-6.361,11.47
		c-1.607,2.897-0.562,6.55,2.336,8.157c0.922,0.512,1.92,0.754,2.904,0.754c2.111,0,4.158-1.115,5.254-3.091L223.842,173.837z"/>
	<path class="st4" d="M205.389,194.737c-2.898-1.608-6.55-0.561-8.158,2.337l-6.362,11.47c-1.607,2.897-0.561,6.55,2.336,8.157
		c0.922,0.512,1.92,0.754,2.905,0.754c2.109,0,4.156-1.115,5.253-3.091l6.361-11.47
		C209.332,199.997,208.287,196.345,205.389,194.737z"/>
	<path class="st4" d="M173.154,252.852c-2.897-1.608-6.55-0.562-8.157,2.337l-3.638,6.559c-1.607,2.897-0.562,6.55,2.336,8.157
		c0.922,0.512,1.92,0.754,2.905,0.754c2.109,0,4.156-1.115,5.252-3.091l3.638-6.559
		C177.097,258.111,176.051,254.459,173.154,252.852z"/>
	<path class="st4" d="M270.707,171.43c-2.953-1.5-6.564-0.324-8.068,2.629l-3.398,6.686c-1.502,2.954-0.324,6.566,2.629,8.068
		c0.871,0.442,1.799,0.652,2.715,0.652c2.186,0,4.293-1.199,5.354-3.281l3.398-6.686C274.838,176.544,273.66,172.932,270.707,171.43
		z"/>
	<path class="st4" d="M258.434,195.568c-2.957-1.5-6.566-0.325-8.068,2.629l-5.789,11.383c-1.502,2.954-0.324,6.566,2.629,8.068
		c0.873,0.442,1.801,0.652,2.715,0.652c2.188,0,4.295-1.199,5.354-3.281l5.789-11.383
		C262.564,200.683,261.387,197.07,258.434,195.568z"/>
	<path class="st4" d="M243.77,224.404c-2.951-1.5-6.566-0.325-8.066,2.63l-5.787,11.383c-1.502,2.953-0.324,6.565,2.629,8.067
		c0.871,0.442,1.799,0.652,2.715,0.652c2.186,0,4.295-1.199,5.354-3.282l5.787-11.383
		C247.902,229.519,246.725,225.906,243.77,224.404z"/>
	<path class="st4" d="M229.109,253.24c-2.953-1.5-6.566-0.325-8.068,2.629l-3.4,6.686c-1.502,2.954-0.324,6.566,2.629,8.068
		c0.871,0.442,1.801,0.652,2.715,0.652c2.188,0,4.295-1.199,5.354-3.281l3.4-6.686C233.24,258.354,232.062,254.742,229.109,253.24z"
		/>
	<path class="st4" d="M168.295,163.281l-3.748,6.496c-1.656,2.87-0.671,6.539,2.199,8.195c0.944,0.545,1.975,0.804,2.993,0.804
		c2.074,0,4.091-1.077,5.203-3.003l3.748-6.496c1.656-2.87,0.671-6.539-2.199-8.195
		C173.622,159.427,169.952,160.411,168.295,163.281z"/>
	<path class="st4" d="M143.659,217.994c-2.869-1.655-6.539-0.671-8.195,2.199l-7.152,12.397c-1.656,2.87-0.671,6.539,2.199,8.195
		c0.944,0.545,1.975,0.804,2.993,0.804c2.074,0,4.092-1.077,5.203-3.003l7.152-12.397
		C147.514,223.319,146.529,219.65,143.659,217.994z"/>
	<path class="st4" d="M161.776,186.588c-2.869-1.655-6.54-0.671-8.195,2.199l-7.152,12.397c-1.656,2.87-0.671,6.539,2.199,8.195
		c0.944,0.545,1.975,0.804,2.993,0.804c2.074,0,4.092-1.077,5.203-3.003l7.152-12.397
		C165.631,191.913,164.647,188.244,161.776,186.588z"/>
	<path class="st4" d="M125.541,249.4c-2.869-1.654-6.538-0.671-8.195,2.199l-3.748,6.496c-1.656,2.87-0.671,6.539,2.199,8.195
		c0.944,0.545,1.975,0.804,2.993,0.804c2.074,0,4.091-1.077,5.203-3.003l3.748-6.496C129.396,254.726,128.412,251.057,125.541,249.4
		z"/>
	<g>
		<path class="st2" d="M124.976,147.314c-0.53-0.146-1.398-0.385-1.928-0.531l-0.997-0.274c-0.53-0.146-0.773-0.673-0.541-1.171
			L146.436,92c0.233-0.498,0.128-0.566-0.233-0.151l-47.401,54.445c-0.361,0.415-0.952,1.094-1.313,1.509L82.9,164.559
			c-0.361,0.414-0.22,0.863,0.313,0.998l48.156,12.117c0.533,0.135,0.822,0.669,0.642,1.188l-20.388,58.788
			c-0.18,0.52-0.078,0.57,0.228,0.112l52.484-78.622c0.305-0.458,0.122-0.951-0.409-1.098L124.976,147.314z"/>
	</g>
	<g>
		<path class="st2" d="M276.421,136.354c-0.347,0.427-0.913,1.126-1.26,1.553l-18.91,23.308c-0.347,0.427-0.195,0.894,0.336,1.037
			l33.65,9.086c0.531,0.144,0.827,0.688,0.658,1.212l-14.33,44.344c-0.169,0.523-0.07,0.569,0.221,0.103l37.01-59.494
			c0.291-0.467,0.097-0.977-0.431-1.132l-29.195-8.629c-0.527-0.156-0.779-0.696-0.56-1.2l3.697-8.494
			c0.22-0.504,0.579-1.33,0.799-1.834l13.01-29.874c0.22-0.504,0.116-0.567-0.23-0.141L276.421,136.354z"/>
	</g>
	<path class="st4" d="M67.906,174.262c0.962,0.573,2.019,0.846,3.063,0.846c2.046,0,4.04-1.047,5.162-2.932l3.836-6.444
		c1.695-2.848,0.761-6.53-2.087-8.225c-2.848-1.697-6.531-0.761-8.225,2.086l-3.836,6.444
		C64.125,168.885,65.059,172.567,67.906,174.262z"/>
	<path class="st4" d="M62.798,182.843c-2.848-1.694-6.531-0.76-8.225,2.087l-7.334,12.321c-1.695,2.848-0.761,6.53,2.087,8.226
		c0.962,0.572,2.02,0.845,3.063,0.845c2.046,0,4.04-1.047,5.162-2.932l7.334-12.321C66.58,188.221,65.646,184.538,62.798,182.843z"
		/>
	<path class="st4" d="M44.218,214.059c-2.847-1.697-6.53-0.762-8.225,2.086l-3.836,6.444c-1.695,2.848-0.761,6.53,2.087,8.225
		c0.962,0.573,2.019,0.846,3.063,0.846c2.046,0,4.04-1.047,5.162-2.932l3.836-6.444C48,219.436,47.065,215.753,44.218,214.059z"/>
	<path class="st4" d="M360.711,180.435c-2.953-1.507-6.564-0.335-8.072,2.615l-3.41,6.68c-1.508,2.951-0.336,6.565,2.615,8.072
		c0.873,0.446,1.805,0.657,2.723,0.657c2.184,0,4.289-1.195,5.35-3.272l3.41-6.68C364.834,185.556,363.662,181.941,360.711,180.435z
		"/>
	<path class="st4" d="M346.418,208.425c-2.951-1.508-6.564-0.336-8.072,2.615l-7.096,13.898c-1.508,2.951-0.336,6.565,2.615,8.072
		c0.873,0.446,1.805,0.657,2.723,0.657c2.184,0,4.289-1.195,5.35-3.272l7.096-13.898
		C350.541,213.546,349.369,209.932,346.418,208.425z"/>
	<path class="st4" d="M328.439,243.634c-2.953-1.507-6.566-0.335-8.072,2.615l-3.412,6.68c-1.506,2.951-0.336,6.565,2.615,8.072
		c0.875,0.446,1.807,0.657,2.725,0.657c2.182,0,4.287-1.195,5.348-3.272l3.412-6.68
		C332.561,248.755,331.391,245.141,328.439,243.634z"/>
</g>
</svg>
