<?xml version="1.0" encoding="utf-8"?>
<!-- Generator: Adobe Illustrator 15.0.0, SVG Export Plug-In . SVG Version: 6.00 Build 0)  -->
<!DOCTYPE svg PUBLIC "-//W3C//DTD SVG 1.1//EN" "http://www.w3.org/Graphics/SVG/1.1/DTD/svg11.dtd">
<svg version="1.1" id="レイヤー_1" xmlns="http://www.w3.org/2000/svg" xmlns:xlink="http://www.w3.org/1999/xlink" x="0px"
	 y="0px" width="400px" height="300px" viewBox="0 0 400 300" style="enable-background:new 0 0 400 300;" xml:space="preserve">
<style type="text/css">
<![CDATA[
	.st0{fill:#E1EEEF;}
	.st1{fill:#545453;}
	.st2{fill:#8E9FA5;}
	.st3{fill:#FCFCFC;}
	.st4{fill:#FF7C24;}
	.st5{fill:#3D3D3B;}
]]>
</style>
<circle class="st0" cx="200.147" cy="73.544" r="67.738"/>
<g>
	<path class="st3" d="M248.426,121.043c12.029-12.227,19.459-28.992,19.459-47.499c0-37.411-30.327-67.736-67.737-67.736
		S132.41,36.133,132.41,73.544c0,18.507,7.43,35.272,19.459,47.498c-27.114,16.375-45.244,46.125-45.244,80.111
		c0,51.651,41.871,93.521,93.522,93.521c51.651,0,93.521-41.87,93.521-93.521C293.668,167.167,275.539,137.418,248.426,121.043z"/>
	<path class="st2" d="M200.147,298.675c-53.774,0-97.522-43.748-97.522-97.521c0-32.839,16.008-62.737,43.069-80.918
		c-11.18-13.002-17.284-29.402-17.284-46.691c0-39.556,32.182-71.736,71.738-71.736c39.556,0,71.737,32.181,71.737,71.736
		c0,17.289-6.104,33.689-17.284,46.692c27.06,18.181,43.067,48.079,43.067,80.917C297.668,254.927,253.92,298.675,200.147,298.675z
		 M200.147,9.808c-35.145,0-63.738,28.592-63.738,63.736c0,16.82,6.502,32.692,18.31,44.692c0.859,0.873,1.271,2.09,1.118,3.305
		s-0.853,2.292-1.901,2.925c-27.12,16.379-43.312,45.047-43.312,76.688c0,49.362,40.159,89.521,89.522,89.521
		c49.362,0,89.521-40.159,89.521-89.521c0-31.64-16.19-60.308-43.311-76.687c-1.047-0.633-1.748-1.71-1.9-2.925
		s0.259-2.432,1.117-3.304c11.808-12.001,18.311-27.874,18.311-44.694C263.885,38.399,235.292,9.808,200.147,9.808z"/>
</g>
<circle class="st5" cx="170.418" cy="59.499" r="9.376"/>
<circle class="st5" cx="228.757" cy="59.499" r="9.376"/>
<circle class="st4" cx="199.587" cy="83.46" r="9.376"/>
<circle class="st5" cx="199.587" cy="161.592" r="9.376"/>
<circle class="st5" cx="199.587" cy="203.262" r="9.376"/>
<circle class="st5" cx="199.587" cy="244.933" r="9.376"/>
<path class="st1" d="M200.542,115.804c-0.006,0-0.011,0-0.017,0c-17.835-0.009-24.985-15.077-25.281-15.718
	c-0.693-1.505-0.036-3.287,1.469-3.98c1.503-0.693,3.281-0.038,3.977,1.461c0.251,0.533,5.934,12.23,19.838,12.237
	c0.004,0,0.009,0,0.014,0c13.914,0,19.608-11.742,19.843-12.242c0.704-1.495,2.489-2.145,3.984-1.445
	c1.498,0.699,2.15,2.471,1.458,3.972C225.53,100.73,218.36,115.804,200.542,115.804z"/>
</svg>
