<?xml version="1.0" encoding="utf-8"?>
<!-- Generator: Adobe Illustrator 15.0.0, SVG Export Plug-In . SVG Version: 6.00 Build 0)  -->
<!DOCTYPE svg PUBLIC "-//W3C//DTD SVG 1.1//EN" "http://www.w3.org/Graphics/SVG/1.1/DTD/svg11.dtd">
<svg version="1.1" xmlns="http://www.w3.org/2000/svg" xmlns:xlink="http://www.w3.org/1999/xlink" x="0px" y="0px" width="400px"
	 height="300px" viewBox="0 0 400 300" style="enable-background:new 0 0 400 300;" xml:space="preserve">
<style type="text/css">
<![CDATA[
	.st0{display:inline;fill:#4DAA4D;}
	.st1{fill:#AF753C;}
	.st2{display:inline;fill:#EA5454;}
	.st3{fill:#4DAA4D;}
	.st4{display:inline;fill:#545453;}
	.st5{fill:#EA5454;}
	.st6{fill:#53A9EA;}
	.st7{display:inline;fill:#FF7C24;}
	.st8{fill:#C6CCCC;}
	.st9{display:inline;}
	.st10{fill:#327CBF;}
	.st11{display:inline;fill:#3D3D3B;}
	.st12{display:none;}
	.st13{display:inline;fill:#E1EEEF;}
]]>
</style>
<g id="レイヤー_1">
</g>
<g id="レイヤー_2" class="st12">
	<g class="st9">
		
			<rect x="261.049" y="109.543" transform="matrix(-0.7136 -0.7006 0.7006 -0.7136 350.8646 447.2255)" class="st1" width="11.602" height="84.698"/>
		<polygon class="st1" points="261.033,154.373 272.635,154.267 272.283,123.979 260.682,124.086 		"/>
	</g>
	<circle class="st13" cx="187.124" cy="210.876" r="78.124"/>
	<circle class="st13" cx="187.124" cy="104.277" r="56.585"/>
	<circle class="st11" cx="162.371" cy="92.793" r="7.807"/>
	<circle class="st11" cx="210.945" cy="92.793" r="7.807"/>
	<circle class="st7" cx="186.658" cy="112.743" r="7.807"/>
	<circle class="st11" cx="186.658" cy="177.797" r="7.807"/>
	<circle class="st11" cx="186.658" cy="212.492" r="7.807"/>
	<circle class="st11" cx="186.658" cy="247.188" r="7.807"/>
	<polygon class="st2" points="217.482,56.477 158.684,56.477 165.933,12.176 210.232,12.176 	"/>
	<path class="st4" d="M187.453,139.176c-0.004,0-0.009,0-0.013,0c-14.536-0.007-20.357-12.275-20.598-12.797
		c-0.462-1.003-0.024-2.191,0.979-2.654c1.005-0.461,2.189-0.024,2.652,0.976c0.213,0.453,5.057,10.47,16.969,10.476
		c0.003,0,0.008,0,0.011,0c11.995,0,16.922-10.369,16.971-10.474c0.464-1.003,1.653-1.438,2.654-0.977
		c1.003,0.463,1.44,1.651,0.977,2.654C207.812,126.902,201.976,139.176,187.453,139.176z"/>
	<g class="st9">
		<path class="st3" d="M243.353,153.484c1.138,1.909-0.306,4.279-3.286,5.165c-34.409,10.206-71.044,10.206-105.453,0
			c-2.981-0.886-4.423-3.255-3.287-5.165c2.057-3.505,4.062-7.035,6.012-10.586c0.967-1.736,3.709-2.519,6.177-1.847
			c28.687,7.849,58.961,7.849,87.649,0c2.466-0.671,5.21,0.112,6.176,1.849C239.291,146.45,241.295,149.979,243.353,153.484z"/>
	</g>
	<g class="st9">
		<path class="st5" d="M303.515,144.949l24.524-26.257c7.855-7.764,7.932-20.427,0.168-28.284l0,0
			c-7.764-7.857-20.428-7.932-28.284-0.168l-24.524,26.258L303.515,144.949z"/>
		<path class="st5" d="M297.658,115.176l-0.324-20.455c-0.149-5.972-5.111-10.691-11.082-10.541l0,0
			c-5.971,0.148-10.689,5.11-10.54,11.082l0.325,20.455L297.658,115.176z"/>
	</g>
	<path class="st0" d="M140.658,152.176c0,0-16,12-19,44c-2.62,27.949,0,32,0,32h21c0,0-2-20,0-34s10-36,10-36L140.658,152.176z"/>
</g>
<g id="レイヤー_3">
	<g>
		<path class="st8" d="M200.519,254.701c-2.025,0-3.668-1.641-3.668-3.668V24.236c0-2.026,1.643-3.668,3.668-3.668
			c2.026,0,3.668,1.642,3.668,3.668v226.797C204.187,253.061,202.545,254.701,200.519,254.701z"/>
		<g>
			<path class="st10" d="M251.162,124.893c0,5.355-0.407,10.615-1.189,15.753c0.023,0.02,0.052,0.039,0.076,0.06
				c11.523-9.714,29.83-15.995,50.447-15.995c11.066,0,21.461,1.812,30.504,4.991c-16.509-54.094-66.801-93.449-126.298-93.449
				c-0.965,0-1.92,0.038-2.881,0.058C231.452,54.8,251.162,87.549,251.162,124.893z"/>
			<path class="st10" d="M198.909,36.384c-56.074,2.421-103.059,39.826-119.731,90.932c6.961-1.678,14.507-2.605,22.396-2.605
				c19.785,0,37.437,5.785,49.013,14.834c0.044-0.033,0.091-0.065,0.134-0.098c-0.664-4.76-1.036-9.613-1.036-14.554
				C149.684,87.597,169.347,54.886,198.909,36.384z"/>
			<path class="st6" d="M149.684,124.893c0,4.941,0.372,9.794,1.036,14.554c11.582-8.991,29.172-14.736,48.882-14.736
				c20.573,0,38.842,6.256,50.371,15.936c0.782-5.139,1.189-10.398,1.189-15.753c0-37.344-19.71-70.093-49.341-88.582
				c-0.969,0.021-1.943,0.031-2.912,0.073C169.347,54.886,149.684,87.597,149.684,124.893z"/>
		</g>
		<path class="st10" d="M181.744,282c-13.295,0-24.113-10.816-24.113-24.111c0-8.422,4.281-16.094,11.453-20.525
			c2.299-1.418,5.31-0.707,6.731,1.592c1.421,2.297,0.707,5.309-1.591,6.73c-4.266,2.635-6.813,7.195-6.813,12.203
			c0,7.9,6.431,14.33,14.333,14.33c7.901,0,14.332-6.43,14.332-14.33v-30.906h9.781v30.906C205.857,271.184,195.041,282,181.744,282
			z"/>
	</g>
</g>
</svg>
