<?xml version="1.0" encoding="utf-8"?>
<!-- Generator: Adobe Illustrator 15.0.0, SVG Export Plug-In . SVG Version: 6.00 Build 0)  -->
<!DOCTYPE svg PUBLIC "-//W3C//DTD SVG 1.1//EN" "http://www.w3.org/Graphics/SVG/1.1/DTD/svg11.dtd">
<svg version="1.1" id="レイヤー_1" xmlns="http://www.w3.org/2000/svg" xmlns:xlink="http://www.w3.org/1999/xlink" x="0px"
	 y="0px" width="400px" height="300px" viewBox="0 0 400 300" style="enable-background:new 0 0 400 300;" xml:space="preserve">
<style type="text/css">
<![CDATA[
	.st0{fill:#4DAA4D;}
	.st1{fill:#EAEAEA;}
	.st2{fill:#C19063;}
	.st3{fill:#FF7517;}
	.st4{fill:#FFC9A4;}
	.st5{fill:#303030;}
	.st6{fill:#DBDBDB;}
	.st7{fill:#A9B8BF;}
	.st8{fill:#DDAC7A;}
]]>
</style>
<g>
	<path class="st7" d="M362.896,114.884l12.727-4.391c10.544-3.639,16.142-15.135,12.504-25.679l-2.196-6.363
		c-3.638-10.542-15.135-16.14-25.679-12.502l-12.728,4.392c-4.809,1.66-35.859,14.365-67.868,28.695v38.079
		C317.781,127.963,357.517,116.741,362.896,114.884z"/>
	<path class="st6" d="M115.3,111.007v119.494c6.913-14.247,26.769-23.092,48.912-20.542c20.757,2.389,37.275,14.073,42.144,28.249
		l73.299-55.496V96.538c-18.406,9.605-63.754,16.399-116.778,16.399C146.036,112.937,129.975,112.25,115.3,111.007z"/>
	<path class="st6" d="M72.048,198.31v-93.412c-11.064-2.396-19.946-5.227-25.949-8.36v106.154
		C54.911,199.503,63.781,198.102,72.048,198.31z"/>
	<path class="st6" d="M111.499,239.256c0,0.003-0.001,0.006-0.002,0.009c0.441,0.049,0.883,0.096,1.327,0.144
		c0-0.004,0-0.007,0-0.011C112.38,239.351,111.938,239.304,111.499,239.256z"/>
	<path class="st1" d="M72.048,104.897v93.412c18.117,0.455,33.321,8.618,38.561,22.578c2.208,5.885,2.398,12.159,0.89,18.368
		c0.44,0.048,0.882,0.095,1.325,0.142c0.018-0.203,0.025-0.405,0.049-0.61c0.335-2.917,1.168-5.69,2.428-8.286V111.007
		C98.838,109.613,84.136,107.516,72.048,104.897z"/>
	<path class="st7" d="M115.3,111.007c14.674,1.243,30.736,1.93,47.577,1.93c53.024,0,98.372-6.794,116.778-16.399V84.293
		c-18.406,9.606-63.754,16.4-116.778,16.4c-53.025,0-98.371-6.792-116.778-16.399v12.243c6.002,3.133,14.885,5.963,25.949,8.36
		C84.136,107.516,98.838,109.613,115.3,111.007z"/>
	<path class="st0" d="M377.453,167.489c3.131-2.235,3.855-6.588,1.619-9.717c-2.236-3.132-6.589-3.856-9.719-1.62l-18.667,13.334
		l7.195,11.983L377.453,167.489z"/>
	<path class="st0" d="M393.871,179.297c-0.973-3.725-4.774-5.957-8.498-4.985l-27.488,7.163l7.476,12.45l23.524-6.13
		C392.608,186.823,394.842,183.02,393.871,179.297z"/>
	<path class="st0" d="M350.255,168.767l17.262-21.817c2.388-3.017,1.876-7.398-1.139-9.787c-3.019-2.386-7.399-1.875-9.788,1.143
		l-14.029,17.733c0.168,0.248,0.347,0.488,0.503,0.749L350.255,168.767z"/>
	<path class="st3" d="M357.882,181.47l-7.195-11.983l-0.432-0.72l-7.191-11.979c-0.156-0.261-0.335-0.501-0.503-0.749
		c-4.731-6.966-14.122-9.112-21.433-4.727l-41.473,31.399l-73.299,55.496c1.271,3.7,1.761,7.569,1.311,11.489
		c-0.732,6.369-3.827,12.052-8.599,16.68l1.747,2.906c4.543,7.57,14.363,10.023,21.933,5.479l139.112-55.603
		c7.572-4.543,10.026-14.362,5.482-21.935l-1.981-3.301l-7.476-12.45L357.882,181.47z M280.43,245.762
		c-0.685,0.362-1.419,0.533-2.143,0.533c-1.647,0-3.238-0.888-4.062-2.444l-8-15.118c-1.186-2.241-0.331-5.02,1.911-6.206
		c2.241-1.186,5.019-0.329,6.205,1.911l8,15.118C283.526,241.797,282.672,244.575,280.43,245.762z M306.467,237.071
		c-0.713,0.401-1.487,0.593-2.251,0.593c-1.604,0-3.16-0.842-4.004-2.338l-11.312-20.065c-1.246-2.208-0.465-5.009,1.744-6.254
		c2.206-1.244,5.008-0.465,6.255,1.744l11.312,20.065C309.456,233.025,308.676,235.825,306.467,237.071z M331.457,225.984
		c-0.74,0.444-1.555,0.655-2.358,0.655c-1.56,0-3.08-0.795-3.941-2.229l-13.574-22.62c-1.306-2.174-0.6-4.994,1.574-6.299
		c2.172-1.306,4.994-0.602,6.299,1.574l13.575,22.619C334.336,221.859,333.631,224.68,331.457,225.984z"/>
	<path class="st4" d="M319.456,197.065c-1.305-2.176-4.127-2.88-6.299-1.574c-2.174,1.305-2.88,4.125-1.574,6.299l13.574,22.62
		c0.861,1.435,2.382,2.229,3.941,2.229c0.804,0,1.618-0.211,2.358-0.655c2.174-1.305,2.879-4.125,1.574-6.3L319.456,197.065z"/>
	<path class="st4" d="M296.898,210.751c-1.247-2.209-4.049-2.988-6.255-1.744c-2.209,1.245-2.99,4.046-1.744,6.254l11.312,20.065
		c0.844,1.496,2.4,2.338,4.004,2.338c0.764,0,1.538-0.191,2.251-0.593c2.209-1.246,2.989-4.046,1.744-6.255L296.898,210.751z"/>
	<path class="st4" d="M274.341,224.438c-1.187-2.24-3.964-3.097-6.205-1.911c-2.242,1.187-3.097,3.965-1.911,6.206l8,15.118
		c0.824,1.557,2.415,2.444,4.062,2.444c0.724,0,1.458-0.171,2.143-0.533c2.242-1.187,3.097-3.965,1.911-6.206L274.341,224.438z"/>
	<path class="st8" d="M207.667,249.697c0.45-3.92-0.039-7.789-1.311-11.489c-4.869-14.176-21.387-25.86-42.144-28.249
		c-22.143-2.55-42,6.295-48.912,20.542c-1.26,2.596-2.093,5.369-2.428,8.286c-0.023,0.205-0.031,0.407-0.049,0.61
		c0,0.004,0,0.007,0,0.011c-1.689,18.701,17.612,36.139,43.503,39.116c17.371,2.001,33.33-3.016,42.742-12.147
		C203.84,261.749,206.935,256.066,207.667,249.697z M164.789,218.125c1.804-0.794,3.91,0.027,4.704,1.83
		c2.293,5.198,7.247,12.805,11.081,13.44c0.441,0.071,1.615,0.269,3.397-1.666c1.334-1.45,3.593-1.545,5.046-0.208
		c1.451,1.337,1.543,3.596,0.207,5.046c-2.911,3.161-5.872,4.007-8.208,4.007c-0.583,0-1.125-0.052-1.62-0.135
		c-9.132-1.522-15.721-15.968-16.442-17.61C162.162,221.024,162.982,218.918,164.789,218.125z M147.563,267.224
		c-0.536,1.436-1.898,2.322-3.346,2.322c-0.415,0-0.837-0.072-1.249-0.227c-1.837-0.686-2.775-2.723-2.108-4.562
		c0.04-0.12,0.938-2.883-0.465-5.183c-1.269-2.079-4.25-3.509-8.624-4.129c-1.953-0.278-3.311-2.086-3.034-4.038
		c0.278-1.953,2.087-3.304,4.038-3.033c6.721,0.954,11.36,3.513,13.791,7.603C149.668,261.197,147.788,266.621,147.563,267.224z"/>
	<path class="st2" d="M179.396,240.439c0.494,0.083,1.037,0.135,1.62,0.135c2.336,0,5.297-0.846,8.208-4.007
		c1.336-1.45,1.244-3.709-0.207-5.046c-1.453-1.337-3.712-1.242-5.046,0.208c-1.782,1.935-2.956,1.737-3.397,1.666
		c-3.834-0.636-8.788-8.242-11.081-13.44c-0.794-1.803-2.9-2.624-4.704-1.83c-1.806,0.793-2.627,2.899-1.834,4.704
		C163.676,224.472,170.264,238.917,179.396,240.439z"/>
	<path class="st2" d="M132.775,248.374c-1.95-0.271-3.76,1.08-4.038,3.033c-0.277,1.952,1.081,3.76,3.034,4.038
		c4.374,0.62,7.355,2.05,8.624,4.129c1.403,2.3,0.505,5.062,0.465,5.183c-0.667,1.84,0.271,3.877,2.108,4.562
		c0.411,0.154,0.833,0.227,1.249,0.227c1.448,0,2.81-0.887,3.346-2.322c0.225-0.603,2.104-6.026-0.998-11.247
		C144.136,251.887,139.496,249.328,132.775,248.374z"/>
	<path class="st8" d="M110.609,220.888c-5.239-13.96-20.444-22.123-38.561-22.578c-8.267-0.208-17.137,1.193-25.949,4.382
		c-0.287,0.104-0.574,0.197-0.861,0.305C16.841,213.65,0.069,238.941,7.775,259.48c7.706,20.54,36.974,28.551,65.37,17.893
		c20.258-7.601,34.59-22.649,38.351-38.108c0.001-0.003,0.002-0.006,0.002-0.009C113.007,233.047,112.817,226.772,110.609,220.888z
		 M50.53,211.399c1.245-1.53,3.493-1.76,5.022-0.516c4.061,3.297,14.022,9.604,18.909,8.044c0.891-0.285,2.168-0.994,2.965-3.86
		c0.528-1.9,2.496-3.013,4.396-2.484c1.9,0.527,3.013,2.497,2.484,4.396c-1.59,5.721-5.055,7.919-7.682,8.755
		c-1.211,0.385-2.487,0.556-3.795,0.556c-9.363,0-20.401-8.74-21.785-9.867C49.515,215.178,49.285,212.929,50.53,211.399z
		 M54.57,274.42c-0.141,0.017-0.28,0.024-0.418,0.024c-1.778,0-3.314-1.324-3.54-3.128c-0.019-0.131-0.569-3.682-3.44-5.447
		c-2.532-1.558-6.5-1.474-11.471,0.243c-1.865,0.644-3.898-0.346-4.541-2.21c-0.644-1.864,0.345-3.896,2.209-4.54
		c7.223-2.496,13.165-2.33,17.657,0.493c5.804,3.647,6.644,10.322,6.677,10.604C57.932,272.418,56.529,274.192,54.57,274.42z"/>
	<path class="st2" d="M51.044,216.423c1.384,1.127,12.422,9.867,21.785,9.867c1.308,0,2.583-0.171,3.795-0.556
		c2.627-0.836,6.092-3.034,7.682-8.755c0.528-1.899-0.584-3.869-2.484-4.396c-1.901-0.528-3.869,0.584-4.396,2.484
		c-0.797,2.866-2.074,3.575-2.965,3.86c-4.887,1.56-14.848-4.747-18.909-8.044c-1.529-1.244-3.777-1.015-5.022,0.516
		C49.285,212.929,49.515,215.178,51.044,216.423z"/>
	<path class="st2" d="M51.026,259.855c-4.492-2.823-10.434-2.989-17.657-0.493c-1.864,0.644-2.854,2.676-2.209,4.54
		c0.643,1.864,2.676,2.854,4.541,2.21c4.971-1.717,8.939-1.801,11.471-0.243c2.871,1.766,3.421,5.316,3.44,5.447
		c0.226,1.804,1.762,3.128,3.54,3.128c0.138,0,0.277-0.008,0.418-0.024c1.959-0.228,3.362-2.002,3.133-3.96
		C57.67,270.178,56.83,263.503,51.026,259.855z"/>
	<path class="st6" d="M162.877,100.693c53.024,0,98.372-6.793,116.778-16.4c5.666-2.956,8.78-6.179,8.78-9.552
		c0-12.073-40.631-33.277-94.896-39.659c0.001,0.058,0.009,0.113,0.009,0.171c0,9.579-7.766,17.345-17.345,17.345h-26.528
		c-9.579,0-17.345-7.766-17.345-17.345c0-0.137,0.018-0.269,0.021-0.405c-54.86,6.077-95.031,27.666-95.031,39.892
		c0,3.374,3.115,6.596,8.78,9.553C64.506,93.901,109.853,100.693,162.877,100.693z"/>
	<path class="st5" d="M149.675,52.599h26.528c9.579,0,17.345-7.766,17.345-17.345c0-0.058-0.008-0.114-0.009-0.171
		c-0.093-9.5-7.815-17.174-17.336-17.174h-26.528c-9.443,0-17.107,7.55-17.325,16.94c-0.003,0.136-0.021,0.268-0.021,0.405
		C132.33,44.833,140.096,52.599,149.675,52.599z"/>
</g>
</svg>
