<?xml version="1.0" encoding="utf-8"?>
<!-- Generator: Adobe Illustrator 15.0.0, SVG Export Plug-In . SVG Version: 6.00 Build 0)  -->
<!DOCTYPE svg PUBLIC "-//W3C//DTD SVG 1.1//EN" "http://www.w3.org/Graphics/SVG/1.1/DTD/svg11.dtd">
<svg version="1.1" id="レイヤー_1" xmlns="http://www.w3.org/2000/svg" xmlns:xlink="http://www.w3.org/1999/xlink" x="0px"
	 y="0px" width="400px" height="300px" viewBox="0 0 400 300" style="enable-background:new 0 0 400 300;" xml:space="preserve">
<style type="text/css">
<![CDATA[
	.st0{fill:#494949;}
	.st1{fill:#156CAD;}
	.st2{fill:#E4E4E4;}
	.st3{fill:#B7D7E5;}
	.st4{fill:#53A9EA;}
	.st5{fill:#BACED6;}
]]>
</style>
<g>
	<path class="st3" d="M94.024,83.769h58.144c13.657,0.001,24.738-9.683,24.738-21.632c0-10.139-8.005-18.587-18.763-20.932
		c-0.841-9.284-8.122-16.571-17.088-16.571c-3.556,0-6.863,1.147-9.608,3.107c-4.878-7.173-13.096-11.89-22.421-11.89
		c-14.975,0-27.109,12.139-27.109,27.112c0,0.131,0.038,0.256,0.04,0.393c-7.523,3.713-12.662,10.688-12.662,18.78
		C69.296,74.086,80.367,83.769,94.024,83.769z"/>
	<path class="st3" d="M370.812,191.625c-0.606-6.689-5.854-11.941-12.315-11.941c-2.562,0-4.945,0.826-6.924,2.238
		c-3.516-5.168-9.438-8.568-16.158-8.568c-10.792,0-19.537,8.748-19.537,19.539c0,0.096,0.027,0.186,0.028,0.283
		c-5.422,2.676-9.125,7.703-9.125,13.535c0,8.611,7.979,15.59,17.821,15.59h41.903c9.843,0,17.829-6.979,17.829-15.59
		C384.334,199.404,378.564,193.314,370.812,191.625z"/>
	<path class="st3" d="M90.782,248.65c-0.702-7.742-6.773-13.82-14.251-13.82c-2.965,0-5.723,0.957-8.013,2.592
		c-4.068-5.982-10.922-9.916-18.699-9.916c-12.488,0-22.608,10.123-22.608,22.611c0,0.109,0.031,0.213,0.033,0.328
		c-6.274,3.096-10.56,8.914-10.56,15.662c0,9.965,9.233,18.041,20.623,18.041h48.491c11.39-0.002,20.631-8.076,20.631-18.041
		C106.43,257.652,99.754,250.605,90.782,248.65z"/>
	<g>
		<path class="st2" d="M346.708,111.672c2.065,0,5.038,0,6.604,0s2.91,0.036,2.985,0.081s0.764-1.3,0.974-3.355l4.15-40.577
			c0.21-2.055-1.309-3.736-3.374-3.736h-15.023c-2.065,0-4.625,1.449-5.688,3.221l-24.688,41.146
			c-1.063,1.771-0.242,3.221,1.823,3.221h22.725c2.065,0,5.446,0,7.512,0H346.708z"/>
	</g>
	<path class="st5" d="M250.717,95.061c0,0,4.333-15.15-9.646-17.645c-13.979-2.492-25.799,6.558-25.799,6.558l-56.007,27.698H233.2
		L250.717,95.061z"/>
	<path class="st2" d="M73.422,199.627c-0.626-0.006-1.274-0.023-1.936-0.053C72.148,199.604,72.795,199.621,73.422,199.627z"/>
	<path class="st2" d="M53.123,196.648c-18.927-4.908-39.271-15.803-39.805-32.154c7.055,5.453,21.903,14.938,42.255,17.285
		c6.706,0.773,18.546,1.129,33.013,1.18c-1.447-0.146-2.597-0.258-3.403-0.322c20.598-2.605,39.37-7.039,107.939-17.205
		c10.551-1.564,21.116-3.537,31.199-5.719c-0.187-0.418-0.294-0.875-0.294-1.361v-10.041c0-1.848,1.498-3.347,3.346-3.347h4.463
		c1.849,0,3.348,1.499,3.348,3.347v8.929c3.047-0.729,6.027-1.471,8.924-2.223v-6.707c0-1.848,1.498-3.347,3.348-3.347h4.463
		c1.848,0,3.346,1.499,3.346,3.347v3.664c2.721-0.781,5.327-1.562,7.81-2.336v-1.327c0-1.848,1.499-3.347,3.347-3.347h4.463
		c1.035,0,1.949,0.48,2.562,1.219c2.812-1.009,5.347-1.986,7.541-2.913c30.243-12.776,45.887-20.338,59.966-31.598h-30.236H233.2
		h-73.936H94.8c-33.986,0-81.518,34.651-81.518,52.171c0,0.467,0.022,0.926,0.053,1.383c0.009,0.123,0.019,0.244,0.03,0.365
		c0.034,0.393,0.079,0.781,0.136,1.166c0.01,0.066,0.017,0.135,0.027,0.203c0.07,0.441,0.157,0.879,0.256,1.312
		c0.025,0.109,0.053,0.217,0.08,0.326c0.087,0.355,0.184,0.709,0.29,1.059c0.028,0.092,0.054,0.186,0.083,0.277
		c0.135,0.424,0.283,0.84,0.445,1.254c0.034,0.088,0.072,0.174,0.107,0.26c0.139,0.344,0.288,0.684,0.444,1.02
		c0.047,0.102,0.093,0.203,0.142,0.303c0.196,0.404,0.402,0.805,0.623,1.201c0.028,0.049,0.058,0.098,0.086,0.146
		c0.2,0.354,0.411,0.703,0.63,1.047c0.062,0.1,0.125,0.197,0.189,0.297c0.508,0.777,1.062,1.535,1.661,2.275
		c0.072,0.09,0.145,0.178,0.217,0.266c0.27,0.326,0.547,0.65,0.834,0.969c0.041,0.045,0.079,0.092,0.12,0.137
		c0.328,0.361,0.667,0.717,1.015,1.068c0.072,0.074,0.146,0.146,0.22,0.219c0.302,0.301,0.611,0.598,0.928,0.891
		c0.063,0.061,0.126,0.119,0.19,0.178c0.375,0.344,0.759,0.684,1.153,1.018c0.056,0.047,0.113,0.094,0.169,0.141
		c0.35,0.295,0.708,0.584,1.072,0.871c0.077,0.061,0.154,0.123,0.231,0.184c0.421,0.328,0.85,0.652,1.287,0.969
		c0.009,0.008,0.018,0.014,0.027,0.02c0.424,0.309,0.858,0.609,1.297,0.908c0.083,0.057,0.166,0.113,0.25,0.17
		c0.914,0.613,1.856,1.207,2.825,1.781c0.074,0.045,0.148,0.088,0.222,0.131c0.473,0.277,0.951,0.553,1.436,0.82
		c0.012,0.008,0.024,0.014,0.037,0.021c0.514,0.283,1.035,0.562,1.562,0.836c0.055,0.029,0.11,0.057,0.166,0.086
		c0.49,0.254,0.984,0.502,1.483,0.746c0.038,0.02,0.076,0.039,0.114,0.057c0.545,0.266,1.095,0.527,1.649,0.781
		c0.011,0.006,0.022,0.01,0.034,0.016c0.534,0.244,1.073,0.484,1.615,0.719c0.049,0.021,0.099,0.043,0.149,0.064
		c1.114,0.48,2.242,0.939,3.381,1.375c0.049,0.02,0.099,0.039,0.148,0.059c1.144,0.436,2.296,0.85,3.454,1.242
		c0.042,0.016,0.083,0.029,0.125,0.043c1.168,0.395,2.341,0.766,3.514,1.115c0.025,0.008,0.05,0.016,0.075,0.021
		c0.573,0.172,1.146,0.336,1.718,0.494c0.021,0.006,0.041,0.012,0.062,0.018c1.411,0.393,2.818,0.752,4.212,1.078
		c-0.797-0.188-1.6-0.385-2.404-0.594C53.141,196.652,53.132,196.65,53.123,196.648z M142.589,161.697h-4.463
		c-1.848,0-3.347-1.498-3.347-3.346v-10.041c0-1.848,1.499-3.347,3.347-3.347h4.463c1.848,0,3.347,1.499,3.347,3.347v10.041
		C145.936,160.199,144.437,161.697,142.589,161.697z M202.831,158.352c0,1.848-1.499,3.346-3.347,3.346h-4.463
		c-1.849,0-3.347-1.498-3.347-3.346v-10.041c0-1.848,1.499-3.347,3.347-3.347h4.463c1.848,0,3.347,1.499,3.347,3.347V158.352z
		 M176.056,144.964h4.463c1.848,0,3.347,1.499,3.347,3.347v10.041c0,1.848-1.499,3.346-3.347,3.346h-4.463
		c-1.848,0-3.347-1.498-3.347-3.346v-10.041C172.709,146.463,174.208,144.964,176.056,144.964z M164.901,148.311v10.041
		c0,1.848-1.499,3.346-3.347,3.346h-4.463c-1.848,0-3.347-1.498-3.347-3.346v-10.041c0-1.848,1.499-3.347,3.347-3.347h4.463
		C163.402,144.964,164.901,146.463,164.901,148.311z M114.698,148.311c0-1.848,1.499-3.347,3.347-3.347h4.463
		c1.848,0,3.347,1.499,3.347,3.347v10.041c0,1.848-1.499,3.346-3.347,3.346h-4.463c-1.848,0-3.347-1.498-3.347-3.346V148.311z
		 M52.49,124.421c2.389,1.93,5.589,4.207,9.777,6.599c11.713,6.693,23.95,7.76,23.95,7.76l-3.87,17.9c0,0-17.292-2.232-26.217-6.136
		c-10.213-4.466-17.534-9.836-22.236-13.976C39.441,132.229,45.775,128.067,52.49,124.421z"/>
	<path class="st2" d="M55.603,197.26c0.791,0.184,1.578,0.359,2.359,0.521c-0.737-0.154-1.481-0.32-2.229-0.494
		C55.689,197.277,55.646,197.27,55.603,197.26z"/>
	<path class="st2" d="M69.398,199.449c-0.387-0.029-0.788-0.07-1.182-0.107c-0.322-0.029-0.637-0.053-0.964-0.088
		c-0.487-0.049-0.987-0.113-1.485-0.174c-0.242-0.029-0.479-0.055-0.723-0.086c2.253,0.297,4.404,0.49,6.405,0.578
		c-0.269-0.014-0.549-0.033-0.822-0.047C70.22,199.5,69.817,199.48,69.398,199.449z"/>
	<path class="st2" d="M62.742,198.66c0.77,0.121,1.531,0.232,2.28,0.33c-0.537-0.072-1.085-0.154-1.633-0.236
		C63.172,198.721,62.96,198.693,62.742,198.66z"/>
	<path class="st2" d="M60.387,198.258c-0.677-0.125-1.363-0.262-2.051-0.402c-0.093-0.02-0.186-0.037-0.279-0.055
		c1.586,0.33,3.148,0.617,4.672,0.857c-0.598-0.096-1.205-0.201-1.814-0.309C60.738,198.316,60.564,198.289,60.387,198.258z"/>
	<path class="st5" d="M131.434,188.471c0-0.525,0.229-1.15,0.62-1.83c-19.828-1.15-35.855-2.912-43.468-3.682
		c-14.467-0.051-26.307-0.406-33.013-1.18c-20.352-2.348-35.2-11.832-42.255-17.285c0.534,16.352,20.878,27.246,39.805,32.154
		c0.009,0.002,0.018,0.004,0.027,0.006c0.804,0.209,1.606,0.406,2.404,0.594c0.007,0.002,0.014,0.004,0.021,0.006
		c0.01,0.002,0.019,0.004,0.028,0.006c0.043,0.01,0.086,0.018,0.13,0.027c0.748,0.174,1.492,0.34,2.229,0.494
		c0.012,0.002,0.024,0.006,0.036,0.008c0.02,0.004,0.04,0.008,0.06,0.012c0.093,0.018,0.186,0.035,0.279,0.055
		c0.688,0.141,1.374,0.277,2.051,0.402c0.178,0.031,0.352,0.059,0.529,0.092c0.609,0.107,1.216,0.213,1.814,0.309
		c0.001,0,0.002,0,0.004,0c0.003,0.002,0.006,0.002,0.009,0.002c0.218,0.033,0.43,0.061,0.646,0.094
		c0.548,0.082,1.097,0.164,1.633,0.236c0.002,0,0.004,0.002,0.006,0.002c0.005,0,0.011,0,0.017,0.002
		c0.244,0.031,0.48,0.057,0.723,0.086c0.498,0.061,0.998,0.125,1.485,0.174c0.327,0.035,0.642,0.059,0.964,0.088
		c0.395,0.037,0.795,0.078,1.182,0.107c0.419,0.031,0.821,0.051,1.229,0.076c0.273,0.014,0.554,0.033,0.822,0.047
		c0.003,0.002,0.007,0.002,0.01,0.002c0.009,0,0.018,0,0.026,0c0.662,0.029,1.31,0.047,1.936,0.053
		c15.858,0.154,27.565,0.131,69.418,0.111l-2.482-1.227C140.358,198.512,131.434,191.818,131.434,188.471z"/>
	<path class="st5" d="M246.339,178.434c-5.892,1.84-12.202,3.346-18.786,4.572l8.627,8.18
		c38.425-11.496,79.662-31.91,104.527-44.144c-9.987-2.372-19.227-4.685-23.178-5.681
		C297.214,155.33,271.383,170.611,246.339,178.434z"/>
	<path class="st5" d="M332.074,130.939l20.543-2.125l10.322,5.769c10.601-10.418-2.707-20.243-6.05-22.448
		c-0.455-0.301-0.729-0.462-0.729-0.462S346.779,119.973,332.074,130.939z"/>
	<path class="st4" d="M82.348,156.68l3.87-17.9c0,0-12.237-1.066-23.95-7.76c-4.188-2.392-7.388-4.669-9.777-6.599
		c-6.714,3.646-13.048,7.808-18.595,12.146c4.702,4.14,12.023,9.51,22.236,13.976C65.056,154.447,82.348,156.68,82.348,156.68z"/>
	<path class="st1" d="M356.161,111.672h-5.697h-9.512c-14.079,11.26-29.723,18.821-59.966,31.598
		c-2.194,0.927-4.729,1.904-7.541,2.913c0.482,0.58,0.784,1.315,0.784,2.128v10.041c0,1.848-1.499,3.346-3.347,3.346h-4.463
		c-1.848,0-3.347-1.498-3.347-3.346v-8.713c-2.482,0.774-5.089,1.555-7.81,2.336v6.377c0,1.848-1.498,3.346-3.346,3.346h-4.463
		c-1.85,0-3.348-1.498-3.348-3.346v-3.334c-2.896,0.752-5.877,1.494-8.924,2.223v1.111c0,1.848-1.499,3.346-3.348,3.346h-4.463
		c-1.361,0-2.529-0.816-3.052-1.984c-10.083,2.182-20.648,4.154-31.199,5.719c-68.57,10.166-87.341,14.6-107.939,17.205
		c0.807,0.064,1.956,0.176,3.403,0.322c7.612,0.77,23.64,2.531,43.468,3.682c2.091-3.633,9.417-9.006,18.345-11.557
		c15.618-4.463,28.442-2.492,40.161-1.115c18.965,2.232,35.7,7.809,35.7,7.809l1.293,1.229c6.584-1.227,12.895-2.732,18.786-4.572
		c25.044-7.822,50.875-23.104,71.19-37.073c-1.291-0.326-2.023-0.513-2.023-0.513s1.002-7.019,8.024-9.025l8.544-0.884
		C346.779,119.973,356.161,111.672,356.161,111.672z"/>
	<ellipse class="st0" cx="169.457" cy="231.829" rx="8.343" ry="13.905"/>
	<path class="st5" d="M181.712,231.828c0,11.281-5.487,20.424-12.255,20.424c0,0,38.744-2.096,48.277-15.469l-39.804-19.688
		C180.257,220.812,181.712,226.033,181.712,231.828z"/>
	<path class="st4" d="M118.045,161.697h4.463c1.848,0,3.347-1.498,3.347-3.346v-10.041c0-1.848-1.499-3.347-3.347-3.347h-4.463
		c-1.848,0-3.347,1.499-3.347,3.347v10.041C114.698,160.199,116.197,161.697,118.045,161.697z"/>
	<path class="st4" d="M145.936,148.311c0-1.848-1.499-3.347-3.347-3.347h-4.463c-1.848,0-3.347,1.499-3.347,3.347v10.041
		c0,1.848,1.499,3.346,3.347,3.346h4.463c1.848,0,3.347-1.498,3.347-3.346V148.311z"/>
	<path class="st4" d="M153.745,148.311v10.041c0,1.848,1.499,3.346,3.347,3.346h4.463c1.848,0,3.347-1.498,3.347-3.346v-10.041
		c0-1.848-1.499-3.347-3.347-3.347h-4.463C155.243,144.964,153.745,146.463,153.745,148.311z"/>
	<path class="st4" d="M172.709,158.352c0,1.848,1.499,3.346,3.347,3.346h4.463c1.848,0,3.347-1.498,3.347-3.346v-10.041
		c0-1.848-1.499-3.347-3.347-3.347h-4.463c-1.848,0-3.347,1.499-3.347,3.347V158.352z"/>
	<path class="st4" d="M199.484,144.964h-4.463c-1.849,0-3.347,1.499-3.347,3.347v10.041c0,1.848,1.499,3.346,3.347,3.346h4.463
		c1.848,0,3.347-1.498,3.347-3.346v-10.041C202.831,146.463,201.332,144.964,199.484,144.964z"/>
	<path class="st4" d="M227.373,161.697h4.463c1.849,0,3.348-1.498,3.348-3.346v-1.111v-8.929c0-1.848-1.499-3.347-3.348-3.347
		h-4.463c-1.848,0-3.346,1.499-3.346,3.347v10.041c0,0.486,0.107,0.943,0.294,1.361
		C224.844,160.881,226.012,161.697,227.373,161.697z"/>
	<path class="st4" d="M247.455,161.697h4.463c1.848,0,3.346-1.498,3.346-3.346v-6.377v-3.664c0-1.848-1.498-3.347-3.346-3.347
		h-4.463c-1.85,0-3.348,1.499-3.348,3.347v6.707v3.334C244.107,160.199,245.605,161.697,247.455,161.697z"/>
	<path class="st4" d="M266.42,161.697h4.463c1.848,0,3.347-1.498,3.347-3.346v-10.041c0-0.812-0.302-1.548-0.784-2.128
		c-0.613-0.738-1.527-1.219-2.562-1.219h-4.463c-1.848,0-3.347,1.499-3.347,3.347v1.327v8.713
		C263.073,160.199,264.572,161.697,266.42,161.697z"/>
	<path class="st2" d="M362.939,134.583l-10.322-5.769l-20.543,2.125l-8.544,0.884c-7.022,2.007-8.024,9.025-8.024,9.025
		s0.732,0.187,2.023,0.513c3.951,0.996,13.19,3.309,23.178,5.681c14.169,3.364,29.829,6.845,33.975,6.845
		c8.023,0,12.036-6.018,12.036-6.018L362.939,134.583z"/>
	<path class="st2" d="M226.26,181.777c0,0-16.734-5.576-35.7-7.809c-11.719-1.377-24.543-3.348-40.161,1.115
		c-8.929,2.551-16.254,7.924-18.345,11.557c-0.391,0.68-0.62,1.305-0.62,1.83c0,3.348,8.924,10.041,8.924,10.041l2.482,1.227
		l24.331,12.035c-5.674,1.787-9.968,10.078-9.968,20.055c0,11.281,5.487,20.424,12.254,20.424c6.768,0,12.255-9.143,12.255-20.424
		c0-5.795-1.455-11.016-3.782-14.732l39.804,19.688l26.374,13.047c0,0,13.521,10.352,29.511,7.504
		c15.99-2.85,11.035-20.18,11.035-20.18l-48.475-45.969l-8.627-8.18L226.26,181.777z M169.457,245.734
		c-4.608,0-8.343-6.225-8.343-13.906c0-7.68,3.735-13.904,8.343-13.904c4.607,0,8.343,6.225,8.343,13.904
		C177.8,239.51,174.064,245.734,169.457,245.734z"/>
</g>
</svg>
