<?xml version="1.0" encoding="utf-8"?>
<!-- Generator: Adobe Illustrator 15.0.0, SVG Export Plug-In . SVG Version: 6.00 Build 0)  -->
<!DOCTYPE svg PUBLIC "-//W3C//DTD SVG 1.1//EN" "http://www.w3.org/Graphics/SVG/1.1/DTD/svg11.dtd">
<svg version="1.1" id="レイヤー_1" xmlns="http://www.w3.org/2000/svg" xmlns:xlink="http://www.w3.org/1999/xlink" x="0px"
	 y="0px" width="400px" height="300px" viewBox="0 0 400 300" style="enable-background:new 0 0 400 300;" xml:space="preserve">
<style type="text/css">
<![CDATA[
	.st0{fill:#156CAD;}
	.st1{fill:#E4E4E4;}
	.st2{fill:#B7D7E5;}
	.st3{fill:#1F2024;}
	.st4{fill:#53A9EA;}
	.st5{fill:#BACED6;}
	.st6{fill:#034F93;}
]]>
</style>
<g>
	<path class="st2" d="M291.676,83.958h58.145c13.656,0.001,24.738-9.683,24.738-21.632c0-10.139-8.006-18.587-18.764-20.932
		c-0.842-9.284-8.121-16.571-17.088-16.571c-3.557,0-6.863,1.147-9.607,3.107c-4.879-7.173-13.098-11.89-22.422-11.89
		c-14.975,0-27.109,12.139-27.109,27.112c0,0.131,0.039,0.256,0.041,0.393c-7.523,3.713-12.662,10.688-12.662,18.78
		C266.947,74.276,278.018,83.958,291.676,83.958z"/>
	<path class="st2" d="M115.795,241.395c-0.841-9.283-8.122-16.57-17.088-16.57c-3.556,0-6.863,1.146-9.608,3.107
		c-4.878-7.174-13.096-11.891-22.421-11.891c-14.975,0-27.109,12.139-27.109,27.113c0,0.131,0.038,0.256,0.04,0.393
		c-7.523,3.713-12.662,10.688-12.662,18.779c0,11.949,11.071,21.633,24.729,21.633h58.144c13.657,0,24.738-9.684,24.738-21.633
		C134.558,252.188,126.553,243.74,115.795,241.395z"/>
	<path class="st5" d="M100.987,101.243c0,0,4.564,9.193,15.211,11.951c5.256,1.361,23.85,2.498,41.335,3.301
		c3.283-5.662,7.062-10.849,11.288-15.252H100.987z"/>
	<path class="st5" d="M242.303,116.489c17.447-0.803,35.963-1.938,41.205-3.295c10.646-2.758,15.211-11.951,15.211-11.951h-68.328
		C234.811,105.645,238.805,110.83,242.303,116.489z"/>
	<path class="st5" d="M205.908,87.343c-0.561-20.106-2.514-67.089-8.505-67.089c-6.01,0-5.928,47.259-5.624,67.265
		c2.426-0.521,4.921-0.801,7.485-0.801C201.521,86.718,203.738,86.936,205.908,87.343z"/>
	<path class="st3" d="M331.455,164.531c-8.551,0-15.51,6.959-15.51,15.51c0,8.553,6.959,15.51,15.51,15.51
		c8.553,0,15.512-6.957,15.512-15.51C346.967,171.49,340.008,164.531,331.455,164.531z"/>
	<path class="st5" d="M386.562,137.972c-1.977,1.38-4.094,2.537-6.213,3.119c-6.09,1.667-84.051,22.174-122.119,32.183
		c0.004-0.062,0.01-0.122,0.014-0.185c-6.621,10.166-14.74,26.084-34.818,33.055c0.174,1.133,0.264,2.292,0.264,3.473
		c0,0.58-0.029,1.152-0.07,1.723c-0.01,0.108-0.016,0.217-0.025,0.326c-0.049,0.549-0.117,1.093-0.205,1.631
		c-0.016,0.094-0.033,0.186-0.049,0.279c-0.096,0.541-0.207,1.078-0.34,1.605c-0.004,0.018-0.008,0.034-0.012,0.051
		c-0.139,0.549-0.305,1.087-0.482,1.618c-0.027,0.079-0.053,0.158-0.08,0.237c-0.184,0.527-0.385,1.048-0.607,1.558
		c-0.016,0.036-0.031,0.07-0.047,0.106c-0.473,1.073-1.027,2.103-1.654,3.082c-0.012,0.02-0.025,0.039-0.037,0.059
		c-2.91,4.516-7.375,7.93-12.641,9.486c24.646-2.914,44.277-22.576,49.51-48.19c13.902-3.656,33.564-8.827,53.143-13.979
		c-1.209,3.807-1.883,7.574-1.883,10.832c0,12.838,10.408,23.246,23.246,23.246s23.248-10.408,23.248-23.246
		c0-6.201-2.434-14.238-6.389-20.898c16.979-4.475,29.717-7.841,32.035-8.475c8.08-2.216,16.16-12.696,16.16-12.696H386.562z
		 M331.455,195.551c-8.551,0-15.51-6.957-15.51-15.51c0-8.551,6.959-15.51,15.51-15.51c8.553,0,15.512,6.959,15.512,15.51
		C346.967,188.594,340.008,195.551,331.455,195.551z"/>
	<path class="st3" d="M68.544,164.531c-8.553,0-15.511,6.959-15.511,15.51c0,8.553,6.958,15.51,15.511,15.51
		c8.551,0,15.511-6.957,15.511-15.51C84.055,171.49,77.095,164.531,68.544,164.531z"/>
	<path class="st5" d="M19.651,141.091c-2.12-0.582-4.237-1.739-6.213-3.119H3.49c0,0,8.081,10.479,16.161,12.696
		c2.317,0.634,15.056,4,32.036,8.475c-3.957,6.66-6.389,14.697-6.389,20.898c0,12.838,10.409,23.246,23.247,23.246
		s23.246-10.408,23.246-23.246c0-3.258-0.673-7.025-1.883-10.832c20.064,5.28,40.216,10.58,54.168,14.248
		c-0.633-3.213-1.051-6.518-1.228-9.899C105.196,163.658,25.797,142.774,19.651,141.091z M68.544,195.551
		c-8.553,0-15.511-6.957-15.511-15.51c0-8.551,6.958-15.51,15.511-15.51c8.551,0,15.511,6.959,15.511,15.51
		C84.055,188.594,77.095,195.551,68.544,195.551z"/>
	<path class="st1" d="M142.817,173.102c5.961,7.924,16.868,24.373,35.898,32.197c2.017-10.468,11.223-18.375,22.279-18.375
		c11.354,0,20.76,8.334,22.432,19.221c20.078-6.971,28.197-22.889,34.818-33.055c-0.004,0.062-0.01,0.123-0.014,0.185
		c38.068-10.009,116.029-30.517,122.119-32.183c2.119-0.582,4.236-1.739,6.213-3.119H252.475
		c-2.615-7.481-6.047-14.811-10.172-21.483c-3.498-5.659-7.492-10.844-11.912-15.246c-7.158-7.132-15.426-12.204-24.482-13.899
		c-2.17-0.407-4.387-0.625-6.644-0.625c-2.564,0-5.06,0.279-7.485,0.801c-8.618,1.852-16.336,6.824-22.958,13.724
		c-4.226,4.403-8.005,9.59-11.288,15.252c-3.869,6.671-7.047,13.999-9.453,21.478H13.438c1.976,1.38,4.093,2.537,6.213,3.119
		c6.146,1.683,85.545,22.567,123.197,32.466c0.177,3.382,0.595,6.687,1.228,9.899c5.196,26.361,25.209,46.353,51.323,48.159
		c-0.302-0.077-0.599-0.162-0.896-0.251C166.213,228.032,144.21,203.471,142.817,173.102z M169.636,134.394
		c0,0,17.54,2.249,29.687,2.249c12.144,0,29.685-2.249,29.685-2.249l3.598,10.121l3.598,10.12c0,0-24.74,2.248-36.88,2.248
		c-12.143,0-36.883-2.248-36.883-2.248l3.599-10.12L169.636,134.394z"/>
	<path class="st4" d="M162.44,154.635c0,0,24.74,2.248,36.883,2.248c12.14,0,36.88-2.248,36.88-2.248l-3.598-10.12l-3.598-10.121
		c0,0-17.541,2.249-29.685,2.249c-12.146,0-29.687-2.249-29.687-2.249l-3.598,10.121L162.44,154.635z"/>
	<path class="st5" d="M142.817,173.102c1.394,30.369,23.396,54.931,51.687,58.264c-5.245-1.562-9.692-4.971-12.594-9.473
		c-0.021-0.033-0.042-0.064-0.062-0.098c-0.311-0.487-0.606-0.986-0.879-1.498c-0.002-0.004-0.004-0.008-0.006-0.012
		c-0.267-0.5-0.514-1.014-0.744-1.535c-0.019-0.043-0.038-0.084-0.056-0.125c-0.218-0.504-0.417-1.018-0.599-1.541
		c-0.029-0.084-0.058-0.17-0.086-0.254c-0.176-0.526-0.338-1.059-0.476-1.6c-0.007-0.027-0.012-0.055-0.019-0.082
		c-0.13-0.518-0.238-1.045-0.332-1.576c-0.017-0.094-0.035-0.188-0.051-0.283c-0.087-0.535-0.154-1.078-0.204-1.625
		c-0.01-0.109-0.017-0.219-0.025-0.329c-0.042-0.567-0.071-1.139-0.071-1.718c0-1.477,0.146-2.92,0.416-4.318
		C159.685,197.475,148.778,181.025,142.817,173.102z"/>
	<path class="st0" d="M202.52,232.256c-0.504,0.035-1.012,0.057-1.525,0.057C201.508,232.312,202.016,232.289,202.52,232.256z"/>
	<path class="st0" d="M200.994,232.312c-0.513,0-1.022-0.021-1.527-0.057C199.972,232.289,200.481,232.312,200.994,232.312z"/>
	<path class="st0" d="M194.557,231.373c-5.267-1.557-9.735-4.969-12.647-9.48c2.901,4.502,7.349,7.91,12.594,9.473
		c0.297,0.089,0.594,0.174,0.896,0.251c1.225,0.31,2.489,0.516,3.784,0.618C197.588,232.105,196.042,231.812,194.557,231.373z"/>
	<path class="st0" d="M200.994,186.924c-11.056,0-20.262,7.907-22.279,18.375c-0.27,1.398-0.416,2.842-0.416,4.318
		c0-1.477,0.153-2.916,0.422-4.314c6.45,2.652,13.83,4.314,22.273,4.314c8.828,0,16.184-1.307,22.404-3.463
		c0.174,1.133,0.291,2.283,0.291,3.463c0-1.181-0.09-2.34-0.264-3.473C221.754,195.258,212.348,186.924,200.994,186.924z"/>
	<path class="st0" d="M223.34,213.576c-0.096,0.541-0.207,1.078-0.34,1.605C223.133,214.654,223.244,214.117,223.34,213.576z"/>
	<path class="st0" d="M222.988,215.232c-0.139,0.549-0.303,1.087-0.482,1.618C222.684,216.319,222.85,215.781,222.988,215.232z"/>
	<path class="st0" d="M220.08,221.893c-2.924,4.527-7.414,7.946-12.703,9.496c-1.477,0.431-3.014,0.721-4.596,0.848
		c1.605-0.125,3.164-0.416,4.658-0.857C212.705,229.822,217.17,226.408,220.08,221.893z"/>
	<path class="st0" d="M178.299,209.617c0,0.579,0.029,1.15,0.071,1.718C178.328,210.768,178.299,210.196,178.299,209.617z"/>
	<path class="st0" d="M223.594,211.666c-0.049,0.549-0.117,1.094-0.205,1.631C223.477,212.759,223.545,212.215,223.594,211.666z"/>
	<path class="st0" d="M223.689,209.617c0,0.58-0.029,1.153-0.07,1.723C223.66,210.77,223.689,210.197,223.689,209.617z"/>
	<path class="st0" d="M178.65,213.572c0.093,0.531,0.202,1.059,0.332,1.576C178.852,214.631,178.744,214.104,178.65,213.572z"/>
	<path class="st0" d="M179,215.23c0.138,0.541,0.3,1.073,0.476,1.6C179.3,216.305,179.138,215.771,179,215.23z"/>
	<path class="st0" d="M179.562,217.084c0.182,0.523,0.38,1.037,0.599,1.541C179.943,218.121,179.745,217.606,179.562,217.084z"/>
	<path class="st0" d="M178.396,211.664c0.049,0.547,0.117,1.09,0.204,1.625C178.512,212.754,178.445,212.211,178.396,211.664z"/>
	<path class="st0" d="M222.426,217.088c-0.184,0.527-0.385,1.049-0.607,1.558C222.041,218.136,222.242,217.615,222.426,217.088z"/>
	<path class="st0" d="M221.771,218.752c-0.475,1.072-1.027,2.104-1.654,3.082C220.744,220.854,221.299,219.825,221.771,218.752z"/>
	<path class="st0" d="M180.968,220.297c0.273,0.512,0.569,1.011,0.879,1.498C181.536,221.309,181.242,220.809,180.968,220.297z"/>
	<path class="st0" d="M180.217,218.75c0.23,0.521,0.477,1.035,0.744,1.535C180.694,219.785,180.448,219.271,180.217,218.75z"/>
	<path class="st6" d="M220.08,221.893c0.012-0.02,0.025-0.039,0.037-0.059c0.627-0.979,1.18-2.01,1.654-3.082
		c0.016-0.036,0.031-0.07,0.047-0.106c0.223-0.509,0.424-1.03,0.607-1.558c0.027-0.079,0.053-0.158,0.08-0.237
		c0.18-0.531,0.344-1.069,0.482-1.618c0.004-0.017,0.008-0.033,0.012-0.051c0.133-0.527,0.244-1.064,0.34-1.605
		c0.016-0.094,0.033-0.186,0.049-0.279c0.088-0.537,0.156-1.082,0.205-1.631c0.01-0.109,0.016-0.218,0.025-0.326
		c0.041-0.569,0.07-1.143,0.07-1.723c0-1.18-0.117-2.33-0.291-3.463c-6.221,2.156-13.576,3.463-22.404,3.463
		c-8.443,0-15.823-1.662-22.273-4.314c-0.269,1.398-0.422,2.838-0.422,4.314c0,0.579,0.029,1.15,0.071,1.718
		c0.008,0.11,0.015,0.22,0.025,0.329c0.049,0.547,0.117,1.09,0.204,1.625c0.016,0.096,0.034,0.189,0.051,0.283
		c0.094,0.531,0.202,1.059,0.332,1.576c0.007,0.027,0.012,0.055,0.019,0.082c0.138,0.541,0.3,1.074,0.476,1.6
		c0.029,0.084,0.057,0.17,0.086,0.254c0.182,0.522,0.38,1.037,0.599,1.541c0.018,0.041,0.038,0.082,0.056,0.125
		c0.23,0.521,0.477,1.035,0.744,1.535c0.002,0.004,0.004,0.008,0.006,0.012c0.274,0.512,0.568,1.012,0.879,1.498
		c0.021,0.033,0.042,0.064,0.062,0.098c2.912,4.512,7.381,7.924,12.647,9.48c1.484,0.439,3.031,0.732,4.626,0.861
		c0.094,0.008,0.188,0.016,0.284,0.021c0.505,0.035,1.014,0.057,1.527,0.057c0.514,0,1.021-0.021,1.525-0.057
		c0.088-0.006,0.174-0.012,0.262-0.02c1.582-0.127,3.119-0.417,4.596-0.848C212.666,229.839,217.156,226.42,220.08,221.893z"/>
</g>
</svg>
