<?xml version="1.0" encoding="utf-8"?>
<!-- Generator: Adobe Illustrator 15.0.0, SVG Export Plug-In . SVG Version: 6.00 Build 0)  -->
<!DOCTYPE svg PUBLIC "-//W3C//DTD SVG 1.1//EN" "http://www.w3.org/Graphics/SVG/1.1/DTD/svg11.dtd">
<svg version="1.1" id="レイヤー_1" xmlns="http://www.w3.org/2000/svg" xmlns:xlink="http://www.w3.org/1999/xlink" x="0px"
	 y="0px" width="400px" height="300px" viewBox="0 0 400 300" style="enable-background:new 0 0 400 300;" xml:space="preserve">
<style type="text/css">
<![CDATA[
	.st0{fill:#7A4C37;}
	.st1{fill:#4DAA4D;}
	.st2{fill:#88C472;}
	.st3{fill:#8CD873;}
	.st4{fill:#C18468;}
	.st5{fill:#C67842;}
	.st6{fill:#2F752F;}
	.st7{fill:#FF7517;}
	.st8{fill:#FF9E3D;}
	.st9{fill:none;}
	.st10{fill:#665046;}
	.st11{fill:#9B5C3D;}
	.st12{opacity:0.36;fill:#F5F5F5;}
	.st13{fill:#757575;}
	.st14{fill:#DBDBDB;}
]]>
</style>
<g>
	<rect x="118.413" y="29.155" class="st9" width="47.06" height="17.068"/>
	<path class="st9" d="M55.445,54.066c-1.653,2.372-3.246,5.145-4.603,8.362c-10.254,24.309-21.084,66.353-13.384,120.16
		c0.267,1.863,0.579,3.736,0.917,5.612l8.207-53.618c-0.124-0.125-0.176-0.193-0.176-0.193l1.321-8.388
		c-1.001-0.691-1.321-1.112-1.321-1.112l7.355-46.705c0.817-7.447,4.905-14.206,11.11-19.573c-1.216-0.692-2.487-1.369-3.831-2.02
		C59.063,55.635,57.209,54.806,55.445,54.066z"/>
	<path class="st9" d="M222.744,62.3c4.092,4.65,6.739,10.056,7.38,15.886l6.943,46.703c0,0-0.269,0.367-1.1,0.978l12.288,80.273
		c1.86-7.049,3.436-14.29,4.451-21.392c7.701-53.807-3.13-95.851-13.384-120.16c-1.356-3.216-2.949-5.99-4.602-8.362
		c-1.765,0.74-3.619,1.569-5.596,2.526C226.808,59.874,224.686,61.07,222.744,62.3z"/>
	<rect x="340.135" y="123.408" class="st9" width="7.877" height="27.36"/>
	<path class="st9" d="M351.32,260.278c-3.368-7.031-7.088-16.023-11.186-27.504v27.687
		C342.701,260.372,346.678,260.282,351.32,260.278z"/>
	<path class="st9" d="M374.215,277.052c4.187,0.804,7.91,0.287,10.224-1.42c0.992-0.729,1.64-1.62,1.932-2.651
		c-2.357-1.638-10.013-2.913-20.124-3.568C370.432,275.592,373.088,276.836,374.215,277.052z"/>
	<path class="st10" d="M265.005,107.622c0-4.068,3.298-7.365,7.365-7.365h8.551c-6.762-33.293-21.26-50.669-21.26-50.669
		s-0.262-0.182-0.733-0.478c2.056,2.179,2.974,3.896,2.974,3.896s-6.361-5.509-27.18,3.219c1.652,2.373,3.245,5.146,4.602,8.362
		c10.254,24.309,21.085,66.353,13.384,120.16c-1.016,7.102-2.591,14.343-4.451,21.392l3.762,24.579c0,0.812-0.028,1.618-0.062,2.422
		c4.394-5.808,8.905-12.363,13.049-19.446V107.622z"/>
	<path class="st4" d="M222.744,62.3c1.941-1.23,4.063-2.427,6.382-3.548c1.977-0.957,3.831-1.786,5.596-2.526
		c20.818-8.728,27.18-3.219,27.18-3.219s-0.918-1.718-2.974-3.896c-3.959-4.196-12.144-10.102-26.157-8.752
		c-9.38,0.904-19.786,4.96-28.901,9.501C211.515,52.678,218.072,56.993,222.744,62.3z"/>
	<path class="st10" d="M37.459,182.588c-7.701-53.807,3.13-95.851,13.384-120.16c1.356-3.217,2.949-5.99,4.603-8.362
		c-20.82-8.729-27.181-3.22-27.181-3.22s0.917-1.718,2.974-3.896c-0.472,0.296-0.733,0.477-0.733,0.477S-6.215,91.417,9.963,173.561
		c3.617,18.36,13.11,35.902,22.978,50.147l5.435-35.508C38.038,186.324,37.726,184.451,37.459,182.588z"/>
	<path class="st4" d="M55.445,54.066c1.764,0.739,3.618,1.569,5.595,2.525c1.344,0.65,2.615,1.327,3.831,2.02
		c5.739-4.965,13.293-8.731,21.767-10.744c-9.196-4.609-19.746-8.754-29.243-9.669c-14.012-1.351-22.197,4.556-26.157,8.752
		c-2.056,2.178-2.974,3.896-2.974,3.896S34.625,45.337,55.445,54.066z"/>
	<path class="st11" d="M118.413,46.224V29.155h47.06v17.068h17.725c0.575,0,1.146,0.016,1.718,0.031V27.35
		c0-9.726-7.912-17.638-17.638-17.638h-50.672c-9.725,0-17.637,7.913-17.637,17.638v18.905c0.571-0.016,1.143-0.031,1.718-0.031
		H118.413z"/>
	<path class="st1" d="M77.571,286.128c-0.352-0.067-0.703-0.135-1.052-0.208C76.868,285.993,77.219,286.061,77.571,286.128z"/>
	<path class="st1" d="M82.886,286.898c-0.346-0.034-0.689-0.076-1.032-0.114C82.197,286.822,82.54,286.864,82.886,286.898z"/>
	<path class="st1" d="M85.584,287.095c-0.296-0.015-0.59-0.04-0.886-0.06C84.994,287.055,85.288,287.08,85.584,287.095z"/>
	<path class="st1" d="M80.216,286.575c-0.357-0.05-0.713-0.105-1.067-0.164C79.504,286.47,79.859,286.525,80.216,286.575z"/>
	<path class="st1" d="M66.63,282.842c-0.357-0.148-0.709-0.309-1.062-0.465C65.921,282.533,66.273,282.693,66.63,282.842z"/>
	<path class="st1" d="M69.024,283.778c-0.293-0.105-0.579-0.226-0.871-0.336C68.445,283.553,68.73,283.673,69.024,283.778z"/>
	<path class="st1" d="M199.187,287.035c-0.295,0.02-0.589,0.045-0.886,0.06C198.597,287.08,198.89,287.055,199.187,287.035z"/>
	<path class="st1" d="M72.184,284.812c-0.251-0.073-0.506-0.141-0.756-0.219C71.678,284.671,71.933,284.738,72.184,284.812z"/>
	<path class="st1" d="M74.928,285.553c-0.327-0.08-0.656-0.154-0.981-0.241C74.272,285.398,74.601,285.473,74.928,285.553z"/>
	<path class="st1" d="M209.938,285.312c-0.325,0.087-0.654,0.161-0.981,0.241C209.284,285.473,209.613,285.398,209.938,285.312z"/>
	<path class="st1" d="M212.456,284.593c-0.249,0.078-0.503,0.144-0.754,0.219C211.953,284.736,212.207,284.671,212.456,284.593z"/>
	<path class="st1" d="M202.03,286.784c-0.344,0.038-0.686,0.08-1.031,0.114C201.345,286.864,201.687,286.822,202.03,286.784z"/>
	<path class="st1" d="M215.734,283.44c-0.292,0.112-0.58,0.232-0.873,0.338C215.154,283.673,215.442,283.553,215.734,283.44z"/>
	<path class="st1" d="M218.316,282.377c-0.354,0.156-0.705,0.316-1.062,0.465C217.611,282.693,217.963,282.533,218.316,282.377z"/>
	<path class="st1" d="M207.365,285.92c-0.348,0.073-0.699,0.141-1.051,0.208C206.666,286.061,207.018,285.993,207.365,285.92z"/>
	<path class="st1" d="M204.736,286.411c-0.355,0.059-0.71,0.114-1.067,0.164C204.026,286.525,204.381,286.47,204.736,286.411z"/>
	<path class="st1" d="M48.98,271.185c-0.405-0.395-0.805-0.794-1.198-1.2C48.176,270.391,48.575,270.79,48.98,271.185z"/>
	<path class="st1" d="M47.277,269.455c-0.407-0.433-0.81-0.867-1.204-1.311C46.468,268.588,46.87,269.022,47.277,269.455z"/>
	<path class="st1" d="M39.113,258.376c-0.343-0.608-0.674-1.226-0.995-1.848C38.439,257.15,38.77,257.768,39.113,258.376z"/>
	<path class="st1" d="M45.709,267.723c-2.439-2.807-4.607-5.854-6.459-9.106C41.104,261.868,43.27,264.916,45.709,267.723z"/>
	<path class="st1" d="M36.941,254.1c-1.62-3.555-2.885-7.309-3.744-11.214C34.056,246.792,35.32,250.545,36.941,254.1z"/>
	<path class="st1" d="M37.964,256.228c-0.32-0.63-0.629-1.268-0.926-1.911C37.335,254.96,37.645,255.598,37.964,256.228z"/>
	<path class="st1" d="M62.021,280.666c-0.38-0.2-0.759-0.405-1.133-0.614C61.264,280.261,61.642,280.466,62.021,280.666z"/>
	<path class="st1" d="M50.786,272.869c-0.413-0.368-0.817-0.745-1.221-1.126C49.968,272.124,50.372,272.501,50.786,272.869z"/>
	<path class="st1" d="M57.706,278.135c-0.395-0.256-0.79-0.507-1.177-0.771C56.916,277.628,57.311,277.879,57.706,278.135z"/>
	<path class="st1" d="M64.296,281.804c-0.375-0.178-0.745-0.359-1.114-0.545C63.551,281.444,63.921,281.626,64.296,281.804z"/>
	<path class="st1" d="M59.819,279.438c-0.384-0.226-0.769-0.452-1.147-0.684C59.051,278.986,59.435,279.213,59.819,279.438z"/>
	<path class="st1" d="M55.866,276.893c-0.931-0.655-1.842-1.336-2.729-2.045C54.025,275.557,54.936,276.237,55.866,276.893z"/>
	<path class="st1" d="M52.679,274.487c-0.434-0.354-0.856-0.721-1.281-1.087C51.823,273.767,52.246,274.134,52.679,274.487z"/>
	<path class="st1" d="M232.489,273.397c-0.425,0.367-0.85,0.736-1.285,1.091C231.641,274.134,232.064,273.765,232.489,273.397z"/>
	<path class="st1" d="M225.213,278.755c-0.378,0.234-0.763,0.458-1.147,0.684C224.45,279.213,224.835,278.986,225.213,278.755z"/>
	<path class="st1" d="M230.76,274.838c-0.893,0.714-1.809,1.398-2.746,2.058C228.951,276.237,229.866,275.552,230.76,274.838z"/>
	<path class="st1" d="M227.356,277.363c-0.387,0.265-0.783,0.516-1.177,0.771C226.573,277.879,226.97,277.628,227.356,277.363z"/>
	<path class="st1" d="M246.843,254.325c-0.294,0.638-0.601,1.267-0.917,1.891C246.242,255.592,246.549,254.963,246.843,254.325z"/>
	<path class="st1" d="M250.672,242.954c-0.856,3.875-2.112,7.599-3.721,11.13C248.561,250.553,249.815,246.829,250.672,242.954z"/>
	<path class="st1" d="M236.102,269.984c-0.394,0.407-0.792,0.806-1.197,1.2C235.31,270.791,235.708,270.392,236.102,269.984z"/>
	<path class="st1" d="M234.32,271.741c-0.403,0.383-0.809,0.76-1.222,1.129C233.512,272.501,233.917,272.124,234.32,271.741z"/>
	<path class="st1" d="M244.631,258.623c-1.852,3.249-4.018,6.293-6.454,9.1C240.614,264.918,242.778,261.872,244.631,258.623z"/>
	<path class="st1" d="M237.811,268.145c-0.393,0.443-0.795,0.878-1.201,1.308C237.017,269.022,237.418,268.588,237.811,268.145z"/>
	<path class="st1" d="M245.762,256.537c-0.318,0.618-0.646,1.231-0.987,1.835C245.115,257.769,245.443,257.155,245.762,256.537z"/>
	<path class="st1" d="M220.704,281.259c-0.369,0.184-0.74,0.367-1.113,0.545C219.965,281.626,220.334,281.442,220.704,281.259z"/>
	<path class="st1" d="M222.997,280.052c-0.375,0.209-0.753,0.414-1.134,0.614C222.244,280.466,222.622,280.261,222.997,280.052z"/>
	<path class="st1" d="M248.256,206.14l-12.288-80.273c0.831-0.61,1.1-0.978,1.1-0.978l-6.943-46.703
		c-0.641-5.83-3.288-11.236-7.38-15.886c-4.672-5.307-11.229-9.623-18.875-12.441c-5.812-2.143-12.247-3.417-18.953-3.604
		c-0.572-0.016-1.144-0.031-1.718-0.031h-82.51c-0.576,0-1.147,0.016-1.718,0.031c-4.249,0.119-8.388,0.676-12.331,1.612
		c-8.474,2.013-16.028,5.779-21.767,10.744c-6.205,5.367-10.292,12.126-11.11,19.573l-7.355,46.705c0,0,0.32,0.421,1.321,1.112
		c4.025,2.779,19.117,9.936,69.171,11.76c-0.101-0.546-0.16-1.106-0.16-1.681v-3.695c0-4.466,3.168-8.19,7.38-9.049v-9.454
		c0-5.484,4.443-9.929,9.927-9.929h6.951c5.483,0,9.927,4.444,9.927,9.929v9.454c4.211,0.858,7.38,4.583,7.38,9.049v3.695
		c0,0.665-0.074,1.312-0.207,1.938c57.304-1.258,73.613-9.125,77.719-12.042l1.251,8.414c0,0-8.948,12.354-86.144,13.25v5.959
		c0,5.485-4.444,9.929-9.927,9.929h-6.951c-5.483,0-9.927-4.443-9.927-9.929v-6.117c-63.818-1.564-76.041-11.401-77.536-12.898
		L38.376,188.2l-5.435,35.508l-1.073,7.011c0,4.178,0.467,8.244,1.328,12.163c9.616,9.1,22.613,15.429,37.249,17.454
		c-1.063-2.793-1.65-5.819-1.65-8.985v-50.558c0-13.958,11.315-25.272,25.273-25.272h90.999c13.958,0,25.273,11.314,25.273,25.272
		v50.558c0,3.354-0.659,6.554-1.847,9.483c16.645-1.167,31.509-7.84,42.196-17.952c0.692-3.157,1.125-6.409,1.267-9.741
		c0.033-0.804,0.062-1.609,0.062-2.422L248.256,206.14z"/>
	<path class="st11" d="M208.493,260.834c-3.751,9.257-12.823,15.788-23.426,15.788H94.068c-10.793,0-19.999-6.767-23.624-16.286
		c-14.636-2.025-27.632-8.354-37.249-17.454l0,0c0,0.001,0.001,0.003,0.001,0.004c0.859,3.905,2.124,7.659,3.744,11.214
		c0.033,0.072,0.064,0.146,0.097,0.217c0.297,0.644,0.606,1.281,0.926,1.911c0.052,0.1,0.103,0.199,0.154,0.301
		c0.321,0.622,0.652,1.239,0.995,1.848c0.045,0.08,0.092,0.16,0.137,0.24c1.852,3.252,4.02,6.3,6.459,9.106
		c0.121,0.141,0.242,0.282,0.364,0.422c0.394,0.443,0.796,0.878,1.204,1.311c0.168,0.177,0.335,0.354,0.505,0.529
		c0.394,0.406,0.793,0.806,1.198,1.2c0.193,0.188,0.39,0.374,0.584,0.559c0.403,0.381,0.808,0.758,1.221,1.126
		c0.203,0.181,0.409,0.354,0.613,0.531c0.424,0.366,0.847,0.733,1.281,1.087c0.151,0.123,0.306,0.238,0.458,0.36
		c0.887,0.709,1.798,1.39,2.729,2.045c0.221,0.156,0.438,0.317,0.662,0.472c0.387,0.264,0.783,0.515,1.177,0.771
		c0.321,0.206,0.641,0.417,0.966,0.62c0.378,0.231,0.763,0.458,1.147,0.684c0.354,0.206,0.71,0.413,1.069,0.613
		c0.375,0.209,0.753,0.414,1.133,0.614c0.384,0.203,0.771,0.398,1.16,0.593c0.369,0.186,0.74,0.367,1.114,0.545
		c0.421,0.198,0.846,0.386,1.272,0.573c0.354,0.156,0.706,0.316,1.062,0.465c0.503,0.208,1.013,0.404,1.523,0.601
		c0.292,0.11,0.577,0.23,0.871,0.336c0.793,0.289,1.595,0.561,2.404,0.814c0.25,0.078,0.505,0.146,0.756,0.219
		c0.584,0.176,1.17,0.347,1.763,0.5c0.325,0.087,0.654,0.161,0.981,0.241c0.528,0.128,1.057,0.253,1.591,0.367
		c0.349,0.073,0.7,0.141,1.052,0.208c0.523,0.102,1.049,0.196,1.578,0.283c0.354,0.059,0.71,0.114,1.067,0.164
		c0.543,0.078,1.09,0.146,1.638,0.209c0.343,0.038,0.686,0.08,1.032,0.114c0.6,0.057,1.206,0.1,1.812,0.137
		c0.295,0.02,0.589,0.045,0.886,0.06c0.904,0.042,1.812,0.067,2.727,0.067h107.262c0.915,0,1.823-0.025,2.727-0.067
		c0.296-0.015,0.591-0.04,0.886-0.06c0.607-0.037,1.212-0.08,1.812-0.137c0.346-0.034,0.688-0.076,1.031-0.114
		c0.549-0.062,1.096-0.131,1.639-0.209c0.357-0.05,0.712-0.105,1.067-0.164c0.528-0.087,1.055-0.182,1.578-0.283
		c0.352-0.067,0.703-0.135,1.051-0.208c0.535-0.114,1.063-0.239,1.592-0.367c0.327-0.08,0.656-0.154,0.981-0.241
		c0.593-0.155,1.179-0.326,1.764-0.5c0.251-0.075,0.505-0.141,0.754-0.219c0.811-0.254,1.612-0.525,2.405-0.814
		c0.293-0.105,0.581-0.226,0.873-0.338c0.509-0.194,1.018-0.391,1.52-0.599c0.357-0.148,0.709-0.309,1.062-0.465
		c0.427-0.188,0.854-0.375,1.274-0.573c0.373-0.178,0.744-0.361,1.113-0.545c0.389-0.194,0.775-0.39,1.159-0.593
		c0.381-0.2,0.759-0.405,1.134-0.614c0.359-0.2,0.714-0.407,1.068-0.613c0.385-0.226,0.77-0.449,1.147-0.684
		c0.326-0.203,0.645-0.414,0.967-0.62c0.394-0.256,0.79-0.507,1.177-0.771c0.223-0.151,0.438-0.312,0.657-0.468
		c0.938-0.659,1.854-1.344,2.746-2.058c0.147-0.117,0.299-0.23,0.444-0.35c0.436-0.354,0.86-0.724,1.285-1.091
		c0.203-0.176,0.409-0.349,0.609-0.527c0.413-0.369,0.818-0.746,1.222-1.129c0.196-0.185,0.392-0.369,0.584-0.557
		c0.405-0.395,0.804-0.793,1.197-1.2c0.171-0.175,0.339-0.354,0.508-0.532c0.406-0.43,0.809-0.864,1.201-1.308
		c0.124-0.14,0.244-0.283,0.366-0.422c2.437-2.807,4.603-5.851,6.454-9.1c0.047-0.085,0.097-0.167,0.144-0.251
		c0.341-0.604,0.669-1.217,0.987-1.835c0.055-0.106,0.109-0.214,0.164-0.321c0.316-0.624,0.623-1.253,0.917-1.891
		c0.037-0.08,0.073-0.161,0.108-0.241c1.608-3.531,2.864-7.255,3.721-11.13c0.006-0.023,0.013-0.049,0.019-0.074
		c0,0.001-0.001,0.001-0.001,0.002C240.002,252.994,225.138,259.667,208.493,260.834z"/>
	<path class="st6" d="M46.583,134.582c1.496,1.497,13.718,11.334,77.536,12.898v-2.351c-3.67-0.749-6.541-3.675-7.221-7.369
		c-50.054-1.825-65.146-8.981-69.171-11.76l-1.321,8.388C46.407,134.389,46.459,134.458,46.583,134.582z"/>
	<path class="st6" d="M150.924,145.13v2.509c77.195-0.895,86.144-13.25,86.144-13.25l-1.251-8.414
		c-4.106,2.917-20.415,10.784-77.719,12.042C157.334,141.59,154.509,144.399,150.924,145.13z"/>
	<path class="st11" d="M149.068,145.317h-23.094c-0.636,0-1.256-0.064-1.855-0.187v8.468c0,5.485,4.443,9.929,9.927,9.929h6.951
		c5.483,0,9.927-4.443,9.927-9.929v-8.468C150.325,145.252,149.705,145.317,149.068,145.317z"/>
	<path class="st11" d="M149.068,123.149c0.636,0,1.256,0.064,1.855,0.187v-9.454c0-5.484-4.444-9.929-9.927-9.929h-6.951
		c-5.483,0-9.927,4.444-9.927,9.929v9.454c0.599-0.123,1.219-0.187,1.855-0.187H149.068z"/>
	<path class="st14" d="M124.119,145.13c0.599,0.123,1.219,0.187,1.855,0.187h23.094c0.636,0,1.256-0.064,1.855-0.187
		c3.585-0.731,6.411-3.54,7.173-7.112c0.133-0.625,0.207-1.272,0.207-1.938v-3.695c0-4.466-3.169-8.19-7.38-9.049
		c-0.599-0.123-1.219-0.187-1.855-0.187h-23.094c-0.636,0-1.256,0.064-1.855,0.187c-4.212,0.858-7.38,4.583-7.38,9.049v3.695
		c0,0.575,0.059,1.135,0.16,1.681C117.579,141.455,120.449,144.381,124.119,145.13z"/>
	<path class="st2" d="M94.068,276.622h90.999c10.603,0,19.675-6.531,23.426-15.788c1.188-2.93,1.847-6.129,1.847-9.483v-50.558
		c0-13.958-11.314-25.272-25.273-25.272H94.068c-13.958,0-25.273,11.314-25.273,25.272v50.558c0,3.166,0.586,6.192,1.65,8.985
		C74.069,269.855,83.275,276.622,94.068,276.622z M76.711,200.793c0-9.569,7.786-17.356,17.357-17.356h90.999
		c9.57,0,17.357,7.787,17.357,17.356v22.902H76.711V200.793z"/>
	<rect x="76.711" y="216.57" class="st13" width="125.713" height="7.125"/>
	<path class="st3" d="M202.424,200.793c0-9.569-7.787-17.356-17.357-17.356H94.068c-9.571,0-17.357,7.787-17.357,17.356v15.777
		h125.713V200.793z"/>
	<path class="st7" d="M265.005,107.622v53.197h10.25v-54.555h13.577v54.555H335.8v0.751h17.613c2.983,0,5.401-2.418,5.401-5.401
		v-38.163c0-2.982-2.418-5.401-5.401-5.401h-13.278v-4.983c0-4.068-3.298-7.365-7.365-7.365H272.37
		C268.303,100.257,265.005,103.554,265.005,107.622z M348.012,123.408v27.36h-7.877v-27.36H348.012z"/>
	<path class="st8" d="M340.135,260.461v-27.687c-0.052-0.146-0.103-0.281-0.155-0.429c-5.025-14.123-9.236-28.189-11.857-37.398
		c-1.89-1.17-3.284-5.178-3.284-9.954c0-5.694,1.978-10.311,4.419-10.311c2.034,0,3.742,3.211,4.256,7.576l0.076-0.019
		c0.039,0.149,2.55,9.798,6.546,22.893v-31.352h-51.303v111.55h-13.577v-111.55h-10.25v109.143c0,4.067,3.298,7.365,7.365,7.365
		h60.399c4.067,0,7.365-3.298,7.365-7.365v-20.062l-0.084-2.398C340.077,260.463,340.108,260.463,340.135,260.461z"/>
	<path class="st0" d="M393.146,267.478c-4.458-4.807-18.959-6.504-32.104-7.011c-3.598-6.992-7.896-16.905-12.902-30.969
		c-3.025-8.499-5.75-16.979-8.005-24.365c-3.996-13.095-6.507-22.743-6.546-22.893l-0.076,0.019
		c-0.514-4.365-2.222-7.576-4.256-7.576c-2.441,0-4.419,4.616-4.419,10.311c0,4.776,1.395,8.784,3.284,9.954
		c2.621,9.209,6.832,23.275,11.857,37.398c0.053,0.147,0.104,0.282,0.155,0.429c4.098,11.48,7.817,20.473,11.186,27.504
		c-4.643,0.004-8.619,0.094-11.186,0.183c-0.026,0.002-0.058,0.002-0.084,0.003l0.084,2.398l0.22,6.238
		c5.307-0.188,10.548-0.22,15.502-0.118c7.393,12.891,12.818,15.807,16.729,16.558c1.844,0.353,3.641,0.527,5.366,0.527
		c4.489,0,8.501-1.184,11.614-3.479c3.157-2.327,5.126-5.673,5.543-9.421C395.338,271.108,394.641,269.09,393.146,267.478z
		 M384.438,275.632c-2.313,1.707-6.037,2.224-10.224,1.42c-1.127-0.216-3.783-1.46-7.969-7.64
		c10.111,0.655,17.767,1.931,20.124,3.568C386.078,274.012,385.431,274.902,384.438,275.632z"/>
	<rect x="275.255" y="106.264" class="st7" width="13.577" height="54.555"/>
	<rect x="275.255" y="106.264" class="st12" width="13.577" height="54.555"/>
	<rect x="275.255" y="173.781" class="st8" width="13.577" height="111.55"/>
	<rect x="275.255" y="173.781" class="st12" width="13.577" height="111.55"/>
	<polygon class="st5" points="335.8,160.819 265.005,160.819 265.005,173.781 340.135,173.781 340.135,161.57 335.8,161.57 	"/>
</g>
</svg>
