<?xml version="1.0" encoding="utf-8"?>
<!-- Generator: Adobe Illustrator 15.0.0, SVG Export Plug-In . SVG Version: 6.00 Build 0)  -->
<!DOCTYPE svg PUBLIC "-//W3C//DTD SVG 1.1//EN" "http://www.w3.org/Graphics/SVG/1.1/DTD/svg11.dtd">
<svg version="1.1" id="レイヤー_1" xmlns="http://www.w3.org/2000/svg" xmlns:xlink="http://www.w3.org/1999/xlink" x="0px"
	 y="0px" width="400px" height="300px" viewBox="0 0 400 300" style="enable-background:new 0 0 400 300;" xml:space="preserve">
<style type="text/css">
<![CDATA[
	.st0{fill:#53A9EA;}
	.st1{fill:#BACED6;}
	.st2{fill:#F2CA25;}
	.st3{fill:#FF7517;}
	.st4{fill:#9DA6AA;}
	.st5{fill:#303030;}
	.st6{fill:#6FBEEF;}
	.st7{fill:#D31111;}
	.st8{fill:#3C4142;}
	.st9{fill:#A9B8BF;}
]]>
</style>
<g>
	<path class="st4" d="M276.35,10.389c-0.933-2.103-3.537-3.775-5.841-3.775H129.963c-2.303,0-4.909,1.672-5.84,3.775l-5.027,11.362
		h162.282L276.35,10.389z"/>
	<path class="st5" d="M91.328,285.278c0,4.479,3.629,8.107,8.106,8.107h12.384c4.477,0,8.106-3.629,8.106-8.107v-16.963H91.328
		V285.278z"/>
	<path class="st5" d="M280.599,285.278c0,4.479,3.629,8.107,8.106,8.107l12.383,0.001c4.479,0,8.107-3.628,8.107-8.107v-16.963
		h-28.597V285.278z"/>
	<path class="st9" d="M313.578,224.637v-7.497c0-1.262,0.741-2.283,1.656-2.283h2.049v-2.211l-233.526-0.001v-20.455l233.526,0.001
		V31.028c0-5.123-4.153-9.277-9.277-9.277H92.786c-5.124,0-9.277,4.154-9.277,9.277v183.828h2.549c0.914,0,1.655,1.021,1.655,2.283
		v7.496c0,1.262-0.742,2.285-1.655,2.285h-2.549v1.705l233.774,0.002v-1.707h-2.049
		C314.319,226.921,313.578,225.898,313.578,224.637z M87.769,28.881c0-1.632,1.176-2.96,2.626-2.96h219.028
		c1.449,0,2.627,1.325,2.627,2.961v156.671c0,1.633-1.178,2.957-2.627,2.957L90.395,188.51c-1.45,0-2.626-1.324-2.626-2.958V28.881z
		 M268.481,224.32H134.994v-6.493h133.487V224.32z"/>
	<rect x="134.994" y="217.827" class="st4" width="133.487" height="6.493"/>
	<path class="st8" d="M90.395,188.51l219.028,0.001c1.449,0,2.627-1.324,2.627-2.957V28.883c0-1.637-1.178-2.961-2.627-2.961H90.395
		c-1.45,0-2.626,1.328-2.626,2.96v156.67C87.769,187.186,88.945,188.51,90.395,188.51z M293.166,34.699
		c4.121,0,7.462,3.341,7.462,7.461c0,4.124-3.341,7.46-7.462,7.46c-4.124,0-7.464-3.338-7.464-7.46
		C285.702,38.041,289.042,34.699,293.166,34.699z M128.919,31.363h141.469c0.975,0,1.764,1.559,1.764,3.481v16.529
		c0,1.919-0.789,3.476-1.764,3.476H128.919c-0.973,0-1.763-1.556-1.763-3.479V34.845C127.156,32.92,127.947,31.363,128.919,31.363z
		 M109.484,34.699c4.122,0,7.462,3.341,7.462,7.461c0,4.123-3.34,7.46-7.462,7.46c-4.121,0-7.462-3.338-7.462-7.46
		C102.021,38.041,105.363,34.699,109.484,34.699z M94.247,63.772c0-1.262,1.274-2.285,2.845-2.285l204.893,0.001
		c1.568,0,2.842,1.022,2.842,2.285v110.832c0,0.629-1.273,1.141-2.842,1.141l-204.893-0.001c-1.571,0-2.845-0.511-2.845-1.142
		V63.772z"/>
	<path class="st1" d="M127.156,51.371c0,1.922,0.791,3.479,1.763,3.479h141.469c0.975,0,1.764-1.556,1.764-3.476V34.845
		c0-1.922-0.789-3.481-1.764-3.481H128.919c-0.973,0-1.763,1.557-1.763,3.481V51.371z"/>
	<polygon class="st7" points="83.757,212.645 317.283,212.646 317.717,212.646 317.717,192.19 317.283,192.19 83.757,192.189 	"/>
	<path class="st6" d="M97.091,118.617l204.893,0.001c1.568,0,2.842,0.511,2.842,1.144V63.773c0-1.263-1.273-2.285-2.842-2.285
		L97.091,61.488c-1.571,0-2.845,1.023-2.845,2.285v55.988C94.247,119.127,95.521,118.617,97.091,118.617z"/>
	<path class="st0" d="M97.091,175.745l204.893,0.001c1.568,0,2.842-0.512,2.842-1.141v-54.844c0-0.633-1.273-1.144-2.842-1.144
		l-204.893-0.001c-1.571,0-2.845,0.51-2.845,1.143v54.843C94.247,175.234,95.521,175.745,97.091,175.745z"/>
	<path class="st8" d="M82.605,228.626c-1.18,0-2.145,0.965-2.145,2.145v35.4c0,1.179,0.965,2.145,2.145,2.145h8.723h28.597
		l160.674,0.001h28.597h9.143c1.18,0,2.145-0.966,2.145-2.145v-35.399c0-1.18-0.965-2.145-2.145-2.145h-1.055l-233.774-0.002H82.605
		z M319.038,241.76v11.093c0,1.867-1.513,3.378-3.378,3.378h-11.835c-1.866,0-3.378-1.511-3.378-3.378V241.76
		c0-1.865,1.512-3.377,3.378-3.377h11.835C317.525,238.383,319.038,239.895,319.038,241.76z M277.069,241.76
		c0-1.865,1.513-3.378,3.38-3.378l11.835,0.001c1.866,0,3.376,1.512,3.376,3.377v11.093c0,1.867-1.51,3.378-3.376,3.378
		l-11.835-0.001c-1.867,0-3.38-1.512-3.38-3.377V241.76z M252.328,241.76c0-1.865,1.513-3.378,3.378-3.378h11.835
		c1.866,0,3.378,1.513,3.378,3.378v11.093c0,1.865-1.512,3.377-3.378,3.377h-11.835c-1.865,0-3.378-1.512-3.378-3.377V241.76z
		 M237.231,233.281v30.415h-69.685v-30.415H237.231z M135.389,241.76c0-1.865,1.512-3.378,3.377-3.378H150.6
		c1.866,0,3.378,1.513,3.378,3.378v11.093c0,1.865-1.512,3.377-3.378,3.377h-11.834c-1.865,0-3.377-1.512-3.377-3.377V241.76z
		 M127.223,238.382c1.867,0,3.378,1.513,3.378,3.378v11.093c0,1.865-1.511,3.377-3.378,3.377H115.39
		c-1.866,0-3.377-1.512-3.377-3.377V241.76c0-1.865,1.511-3.378,3.377-3.378H127.223z M87.269,241.76
		c0-1.865,1.512-3.378,3.378-3.378h11.833c1.867,0,3.379,1.513,3.379,3.378v11.093c0,1.865-1.512,3.377-3.379,3.377H90.647
		c-1.866,0-3.378-1.512-3.378-3.377V241.76z"/>
	<rect x="167.547" y="233.281" class="st1" width="69.685" height="30.415"/>
	<circle class="st2" cx="109.484" cy="42.16" r="7.461"/>
	<circle class="st2" cx="293.165" cy="42.16" r="7.463"/>
	<path class="st2" d="M112.012,241.76v11.093c0,1.865,1.511,3.377,3.377,3.377h11.833c1.867,0,3.378-1.512,3.378-3.377V241.76
		c0-1.865-1.511-3.378-3.378-3.378H115.39C113.523,238.382,112.012,239.895,112.012,241.76z"/>
	<path class="st2" d="M90.647,256.229h11.833c1.867,0,3.379-1.512,3.379-3.377V241.76c0-1.865-1.512-3.378-3.379-3.378H90.647
		c-1.866,0-3.378,1.513-3.378,3.378v11.093C87.269,254.718,88.781,256.229,90.647,256.229z"/>
	<path class="st1" d="M138.766,256.229H150.6c1.866,0,3.378-1.512,3.378-3.377V241.76c0-1.865-1.512-3.378-3.378-3.378h-11.834
		c-1.865,0-3.377,1.513-3.377,3.378v11.093C135.389,254.718,136.901,256.229,138.766,256.229z"/>
	<path class="st2" d="M280.449,256.229l11.835,0.001c1.866,0,3.376-1.511,3.376-3.378V241.76c0-1.865-1.51-3.377-3.376-3.377
		l-11.835-0.001c-1.867,0-3.38,1.513-3.38,3.378v11.093C277.069,254.718,278.582,256.229,280.449,256.229z"/>
	<path class="st2" d="M255.706,256.229h11.835c1.866,0,3.378-1.512,3.378-3.377V241.76c0-1.865-1.512-3.378-3.378-3.378h-11.835
		c-1.865,0-3.378,1.513-3.378,3.378v11.093C252.328,254.718,253.841,256.229,255.706,256.229z"/>
	<path class="st1" d="M303.825,238.383c-1.866,0-3.378,1.512-3.378,3.377v11.093c0,1.867,1.512,3.378,3.378,3.378h11.835
		c1.865,0,3.378-1.511,3.378-3.378V241.76c0-1.865-1.513-3.377-3.378-3.377H303.825z"/>
	<path class="st3" d="M321.038,214.856h-5.804c-0.915,0-1.656,1.021-1.656,2.283v7.497c0,1.262,0.741,2.284,1.656,2.284h5.804
		c0.917,0,1.658-1.022,1.658-2.284v-7.497C322.696,215.878,321.955,214.856,321.038,214.856z"/>
	<path class="st3" d="M87.713,224.636v-7.496c0-1.263-0.742-2.283-1.655-2.283h-5.804c-0.917,0-1.657,1.021-1.657,2.283v7.496
		c0,1.262,0.74,2.285,1.657,2.285h5.804C86.972,226.921,87.713,225.897,87.713,224.636z"/>
	<path class="st4" d="M341.004,73.406h-15.768c-2.562,0-4.641,1.467-4.641,3.275v38.66c0,1.809,2.078,3.277,4.641,3.277h15.768
		c2.563,0,4.639-1.468,4.639-3.277v-38.66C345.643,74.873,343.567,73.406,341.004,73.406z"/>
	<path class="st4" d="M79.402,115.341v-38.66c0-1.81-2.076-3.276-4.637-3.276h-15.77c-2.562,0-4.639,1.467-4.639,3.276v38.66
		c0,1.809,2.077,3.276,4.639,3.276h15.77C77.326,118.617,79.402,117.15,79.402,115.341z"/>
</g>
</svg>
