<?xml version="1.0" encoding="utf-8"?>
<!-- Generator: Adobe Illustrator 15.0.0, SVG Export Plug-In . SVG Version: 6.00 Build 0)  -->
<!DOCTYPE svg PUBLIC "-//W3C//DTD SVG 1.1//EN" "http://www.w3.org/Graphics/SVG/1.1/DTD/svg11.dtd">
<svg version="1.1" id="レイヤー_1" xmlns="http://www.w3.org/2000/svg" xmlns:xlink="http://www.w3.org/1999/xlink" x="0px"
	 y="0px" width="400px" height="300px" viewBox="0 0 400 300" style="enable-background:new 0 0 400 300;" xml:space="preserve">
<style type="text/css">
<![CDATA[
	.st0{fill:#BCDDE8;}
	.st1{fill:#FF7517;}
	.st2{fill:#FFAA71;}
	.st3{fill:#FFFFFF;}
]]>
</style>
<g>
	<path class="st0" d="M318.163,283.021l-50.938-88.229c-2.986-5.172-7.871-13.634-10.857-18.804l-26.515-45.927V30.797h1.497
		c5.511,0,9.977-5.198,9.977-11.611c0-6.411-4.466-11.609-9.977-11.609h-62.701c-5.509,0-9.976,5.198-9.976,11.609
		c0,6.413,4.467,11.611,9.976,11.611h1.498v99.265l-26.516,45.926c-2.985,5.17-7.871,13.632-10.856,18.804l-50.938,88.229
		c-2.986,5.169-0.543,9.401,5.428,9.401h225.471C318.706,292.423,321.148,288.19,318.163,283.021z M99.386,279.155l68.73-118.517
		h41.154v-15.446h-23.02v-5.428h23.02v-17.517h-23.02v-5.428h23.02V99.303h-23.02v-5.429h23.02V76.358h-23.02V70.93h23.02V53.414
		h-23.02v-5.428h23.02v-5.297h5.429v117.95h17.791l68.124,118.517H99.386z"/>
	<path class="st1" d="M214.698,160.639v105.232h-5.429v-5.956h-23.02v-5.429h23.02V236.97h-23.02v-5.429h23.02v-17.515h-23.02
		v-5.428h23.02v-17.518h-23.02v-5.428h23.02v-17.518h-23.02v-5.428h23.02v-2.069h-41.154l-68.73,118.517h201.228l-68.124-118.517
		H214.698z M159.417,206.393c3.014,0,5.459,2.447,5.459,5.461c0,3.015-2.445,5.46-5.459,5.46s-5.46-2.445-5.46-5.46
		C153.957,208.84,156.402,206.393,159.417,206.393z M150.485,273.377c-5.48,0-9.924-4.441-9.924-9.923
		c0-5.479,4.443-9.922,9.924-9.922c5.48,0,9.923,4.442,9.923,9.922C160.409,268.936,155.965,273.377,150.485,273.377z
		 M161.896,240.136c-3.014,0-5.458-2.445-5.458-5.458c0-3.016,2.444-5.461,5.458-5.461s5.459,2.445,5.459,5.461
		C167.355,237.69,164.911,240.136,161.896,240.136z M232.352,232.196c-3.015,0-5.458-2.444-5.458-5.458
		c0-3.015,2.443-5.46,5.458-5.46c3.014,0,5.459,2.445,5.459,5.46C237.811,229.752,235.365,232.196,232.352,232.196z
		 M251.207,248.072c3.014,0,5.458,2.444,5.458,5.46c0,3.014-2.444,5.458-5.458,5.458c-3.015,0-5.459-2.444-5.459-5.458
		C245.748,250.517,248.192,248.072,251.207,248.072z M247.237,196.472c0,5.479-4.442,9.921-9.923,9.921s-9.924-4.442-9.924-9.921
		c0-5.481,4.443-9.924,9.924-9.924S247.237,190.99,247.237,196.472z"/>
	<polygon class="st3" points="186.25,162.708 186.25,168.136 209.27,168.136 209.27,185.653 186.25,185.653 186.25,191.081 
		209.27,191.081 209.27,208.599 186.25,208.599 186.25,214.026 209.27,214.026 209.27,231.541 186.25,231.541 186.25,236.97 
		209.27,236.97 209.27,254.486 186.25,254.486 186.25,259.915 209.27,259.915 209.27,265.871 214.698,265.871 214.698,42.688 
		209.27,42.688 209.27,47.985 186.25,47.985 186.25,53.414 209.27,53.414 209.27,70.93 186.25,70.93 186.25,76.358 209.27,76.358 
		209.27,93.875 186.25,93.875 186.25,99.303 209.27,99.303 209.27,116.819 186.25,116.819 186.25,122.247 209.27,122.247 
		209.27,139.764 186.25,139.764 186.25,145.192 209.27,145.192 209.27,162.708 	"/>
	<circle class="st2" cx="150.485" cy="263.455" r="9.922"/>
	<circle class="st2" cx="237.314" cy="196.472" r="9.923"/>
	<circle class="st2" cx="161.896" cy="234.676" r="5.459"/>
	<circle class="st2" cx="159.417" cy="211.853" r="5.46"/>
	<circle class="st2" cx="232.352" cy="226.737" r="5.459"/>
	<circle class="st2" cx="251.207" cy="253.531" r="5.459"/>
</g>
</svg>
