<?xml version="1.0" encoding="utf-8"?>
<!-- Generator: Adobe Illustrator 15.0.0, SVG Export Plug-In . SVG Version: 6.00 Build 0)  -->
<!DOCTYPE svg PUBLIC "-//W3C//DTD SVG 1.1//EN" "http://www.w3.org/Graphics/SVG/1.1/DTD/svg11.dtd">
<svg version="1.1" id="レイヤー_1" xmlns="http://www.w3.org/2000/svg" xmlns:xlink="http://www.w3.org/1999/xlink" x="0px"
	 y="0px" width="400px" height="300px" viewBox="0 0 400 300" style="enable-background:new 0 0 400 300;" xml:space="preserve">
<style type="text/css">
<![CDATA[
	.st0{fill:#E4E4E4;}
	.st1{fill:#F22319;}
	.st2{fill:#CBD1D3;}
	.st3{fill:#303030;}
	.st4{fill:#DDAC7A;}
]]>
</style>
<g>
	<path class="st4" d="M366.681,23.637l-10.123-12.279c-7.982-9.686-22.307-11.064-31.991-3.081l-82.292,67.837
		c-6.415,5.285-94.138,94.424-130.407,133.049l-62.691,51.678l0.016,0.019l62.251-51.317l13.914,16.878l0.438-0.361
		c44.831-28.229,149.071-97.283,155.513-102.594l82.292-67.837C373.286,47.645,374.665,33.321,366.681,23.637z"/>
	<polygon class="st3" points="49.192,260.859 42.369,266.484 56.297,283.379 125.372,226.438 125.357,226.42 111.443,209.542 	"/>
	<path class="st4" d="M40.342,264.026c-2.021-2.451-5.655-2.795-8.116-0.765l-1.991,1.642c-2.462,2.028-2.817,5.662-0.799,8.112
		l17.981,21.811c2.02,2.45,5.652,2.794,8.115,0.765l1.993-1.643c2.46-2.028,2.816-5.661,0.797-8.112l-2.025-2.457l-13.929-16.895
		L40.342,264.026z"/>
	<path class="st0" d="M92.589,101.596c7.921-5.271,12.639-14.023,12.639-23.544c0-9.714-4.904-18.637-13.117-23.869
		c-0.078-0.049-0.141-0.111-0.211-0.167c-6.07,5.98-9.843,14.287-9.843,23.461C82.057,86.993,86.116,95.575,92.589,101.596z"/>
	<path class="st0" d="M136.798,54.183c-8.213,5.232-13.117,14.155-13.117,23.869c0,9.715,4.904,18.638,13.118,23.87
		c0.053,0.034,0.095,0.078,0.146,0.115c6.753-6.038,11.013-14.809,11.013-24.56c0-9.456-4.009-17.988-10.41-24.003
		C137.346,53.746,137.1,53.99,136.798,54.183z"/>
	<path class="st0" d="M110.91,78.052c0,10.8-5.052,20.777-13.624,27.183c5.122,3.281,11.201,5.193,17.722,5.193
		c6.269,0,12.133-1.761,17.128-4.812C123.251,99.228,118,89.066,118,78.052c0-11.366,5.599-21.817,15.005-28.156
		c-5.178-3.39-11.359-5.37-17.997-5.37c-6.879,0-13.27,2.122-18.56,5.741C105.526,56.639,110.91,66.906,110.91,78.052z"/>
	<path class="st1" d="M105.228,78.052c0,9.521-4.718,18.273-12.639,23.544c1.45,1.349,3.023,2.566,4.697,3.639
		c8.571-6.406,13.624-16.383,13.624-27.183c0-11.146-5.383-21.413-14.461-27.785c-1.626,1.114-3.148,2.369-4.548,3.749
		c0.071,0.056,0.134,0.118,0.211,0.167C100.324,59.415,105.228,68.338,105.228,78.052z"/>
	<path class="st1" d="M118,78.052c0,11.015,5.252,21.176,14.136,27.563c1.712-1.046,3.32-2.248,4.809-3.579
		c-0.051-0.037-0.093-0.081-0.146-0.115c-8.214-5.232-13.118-14.155-13.118-23.87c0-9.714,4.904-18.637,13.117-23.869
		c0.302-0.192,0.548-0.437,0.75-0.708c-1.405-1.32-2.925-2.518-4.543-3.578C123.599,56.235,118,66.686,118,78.052z"/>
	<path class="st2" d="M115.008,116.109c21.302,0,38.632-17.33,38.632-38.632s-17.33-38.632-38.632-38.632
		S76.375,56.175,76.375,77.477S93.706,116.109,115.008,116.109z M91.9,54.016c1.4-1.379,2.922-2.635,4.548-3.749
		c5.29-3.619,11.681-5.741,18.56-5.741c6.638,0,12.819,1.979,17.997,5.37c1.619,1.061,3.139,2.258,4.543,3.578
		c6.401,6.015,10.41,14.547,10.41,24.003c0,9.75-4.26,18.521-11.013,24.56c-1.489,1.331-3.097,2.532-4.809,3.579
		c-4.995,3.051-10.859,4.812-17.128,4.812c-6.521,0-12.6-1.912-17.722-5.193c-1.674-1.073-3.247-2.29-4.697-3.639
		c-6.473-6.021-10.532-14.603-10.532-24.119C82.057,68.303,85.83,59.996,91.9,54.016z"/>
</g>
</svg>
