<?xml version="1.0" encoding="utf-8"?>
<!-- Generator: Adobe Illustrator 15.0.0, SVG Export Plug-In . SVG Version: 6.00 Build 0)  -->
<!DOCTYPE svg PUBLIC "-//W3C//DTD SVG 1.1//EN" "http://www.w3.org/Graphics/SVG/1.1/DTD/svg11.dtd">
<svg version="1.1" id="レイヤー_1" xmlns="http://www.w3.org/2000/svg" xmlns:xlink="http://www.w3.org/1999/xlink" x="0px"
	 y="0px" width="400px" height="300px" viewBox="0 0 400 300" style="enable-background:new 0 0 400 300;" xml:space="preserve">
<style type="text/css">
<![CDATA[
	.st0{fill:#4DAA4D;}
	.st1{fill:#53A9EA;}
	.st2{fill:#BACED6;}
	.st3{fill:#F2CA25;}
	.st4{fill:#FFFFFF;}
	.st5{fill:none;}
	.st6{fill:#303030;}
	.st7{fill:#6FBEEF;}
	.st8{fill:#3C4142;}
	.st9{fill:#767B7C;}
	.st10{fill:#DAE2E5;}
	.st11{fill:#A9B8BF;}
]]>
</style>
<g>
	<polygon class="st5" points="200,11.188 167.032,35.85 189.927,52.976 210.073,52.976 232.969,35.849 	"/>
	<polygon class="st4" points="256.995,274.812 143.005,274.812 135.439,279.264 264.561,279.264 	"/>
	<polygon class="st4" points="154.899,267.812 245.101,267.812 242.054,266.019 157.946,266.019 	"/>
	<polygon class="st4" points="123.546,286.264 112.516,292.755 287.484,292.755 276.454,286.264 	"/>
	<path class="st6" d="M295.309,289.147c-0.088-0.023-0.186-0.047-0.276-0.073l-39.178-23.056h-13.801l3.047,1.793h-90.201
		l3.047-1.793h-13.801l-39.177,23.056c-0.092,0.026-0.189,0.05-0.278,0.073c-3.237,0.855-3.183,3.286-3.088,4.01
		c0.066,0.518,0.576,3.098,4.011,3.098c0.827,0,1.587-0.287,2.186-0.766c0.17-0.074,0.337-0.157,0.502-0.254l4.215-2.48l11.03-6.491
		h152.908l11.03,6.491l4.215,2.48c0.164,0.097,0.331,0.18,0.5,0.253c0.6,0.479,1.359,0.767,2.187,0.767
		c3.436,0,3.944-2.58,4.012-3.098C298.491,292.434,298.547,290.003,295.309,289.147z M143.005,274.812h113.99l7.565,4.452H135.439
		L143.005,274.812z"/>
	<path class="st9" d="M167.032,35.85L200,11.188l32.969,24.66l-22.896,17.127h11.687l17.438-13.045l0.375-0.324
		c1.004-1.002,1.558-2.335,1.559-3.753c0.001-1.42-0.552-2.755-1.556-3.759l-0.177-0.178L203.525,5.084
		c-0.973-0.866-2.213-1.339-3.525-1.339s-2.553,0.473-3.525,1.339l-35.673,26.684l-0.377,0.326
		c-1.004,1.004-1.558,2.338-1.557,3.758c0,1.419,0.554,2.753,1.559,3.755l0.176,0.175l17.639,13.194h11.686L167.032,35.85z"/>
	<path class="st11" d="M246.815,62.786v-8.002c0-1-0.81-1.809-1.81-1.809H221.76h-11.687h-20.146h-11.686h-23.247
		c-1,0-1.81,0.809-1.81,1.809v8.002H246.815z"/>
	<path class="st8" d="M157.946,266.019h84.107h13.801h10.024c1.463,0,2.648-0.809,2.648-1.809v-8.725H131.473v8.725
		c0,1,1.186,1.809,2.648,1.809h10.024H157.946z"/>
	<path class="st2" d="M288.632,198.171v19.038v33.753c0,2.498-1.876,4.523-4.374,4.523c2.498,0,4.523-2.025,4.523-4.523
		L288.632,67.31c0-2.498-1.876-4.523-4.374-4.523h-37.442h-93.631h-37.199c-2.498,0-4.767,2.025-4.767,4.523l0.162,122.964h177.251
		V198.171z M281.234,182.715c0,1.104-0.895,2-2,2H120.766c-1.105,0-2-0.896-2-2V70.085c0-1.105,0.895-2,2-2h158.469
		c1.105,0,2,0.895,2,2V182.715z"/>
	<path class="st10" d="M268.527,255.485h15.73c2.498,0,4.374-2.025,4.374-4.523v-33.753H111.306l0.155,33.753
		c0,2.498,2.026,4.523,4.524,4.523h15.487H268.527z M262.678,221.231c7.494,0,13.568,6.076,13.568,13.57
		s-6.074,13.568-13.568,13.568s-13.57-6.074-13.57-13.568S255.184,221.231,262.678,221.231z M137.836,248.37
		c-7.494,0-13.57-6.074-13.57-13.568s6.076-13.57,13.57-13.57s13.569,6.076,13.569,13.57S145.33,248.37,137.836,248.37z"/>
	<circle class="st3" cx="137.835" cy="234.802" r="13.57"/>
	<circle class="st3" cx="262.678" cy="234.801" r="13.569"/>
	<polygon class="st0" points="288.632,217.209 288.632,198.171 288.632,190.273 111.381,190.273 111.219,190.273 111.219,217.209 
		111.306,217.209 	"/>
	<path class="st8" d="M279.234,68.085H120.766c-1.105,0-2,0.895-2,2v112.63c0,1.104,0.895,2,2,2h158.469c1.105,0,2-0.896,2-2V70.085
		C281.234,68.979,280.34,68.085,279.234,68.085z M143.686,77.379c0-1.03,0.811-1.866,1.81-1.866h109.01
		c0.999,0,1.81,0.836,1.81,1.866v8.862c0,1.031-0.811,1.866-1.81,1.866h-109.01c-0.999,0-1.81-0.835-1.81-1.866V77.379z
		 M273.411,136.811v39.542v0.842c0,0.464-0.889,0.84-1.983,0.84H128.572c-1.096,0-1.983-0.376-1.983-0.841v-0.842v-39.541V95.585
		c0-0.93,0.888-1.683,1.983-1.683h142.855c1.095,0,1.983,0.753,1.983,1.684V136.811z"/>
	<path class="st7" d="M271.428,93.902H128.572c-1.096,0-1.983,0.753-1.983,1.683v41.226c0-0.465,0.888-0.842,1.983-0.842h142.855
		c1.095,0,1.983,0.377,1.983,0.842V95.586C273.411,94.655,272.522,93.902,271.428,93.902z"/>
	<path class="st1" d="M271.428,135.969H128.572c-1.096,0-1.983,0.377-1.983,0.842v39.541v0.842c0,0.465,0.888,0.841,1.983,0.841
		h142.855c1.095,0,1.983-0.376,1.983-0.84v-0.842v-39.542C273.411,136.346,272.522,135.969,271.428,135.969z"/>
	<path class="st2" d="M145.495,88.107h109.01c0.999,0,1.81-0.835,1.81-1.866v-8.862c0-1.03-0.811-1.866-1.81-1.866h-109.01
		c-0.999,0-1.81,0.836-1.81,1.866v8.862C143.686,87.272,144.496,88.107,145.495,88.107z"/>
</g>
</svg>
