<?xml version="1.0" encoding="utf-8"?>
<!-- Generator: Adobe Illustrator 15.0.0, SVG Export Plug-In . SVG Version: 6.00 Build 0)  -->
<!DOCTYPE svg PUBLIC "-//W3C//DTD SVG 1.1//EN" "http://www.w3.org/Graphics/SVG/1.1/DTD/svg11.dtd">
<svg version="1.1" id="レイヤー_1" xmlns="http://www.w3.org/2000/svg" xmlns:xlink="http://www.w3.org/1999/xlink" x="0px"
	 y="0px" width="400px" height="300px" viewBox="0 0 400 300" style="enable-background:new 0 0 400 300;" xml:space="preserve">
<style type="text/css">
<![CDATA[
	.st0{fill:#19A3F7;}
	.st1{fill:#FF5215;}
	.st2{fill:#FFAB17;}
	.st3{fill:#FFE045;}
	.st4{fill:#FFF9D9;}
	.st5{fill:#303030;}
]]>
</style>
<g>
	<g>
		<path class="st2" d="M332.607,243.099c0,21.812-17.684,39.51-39.508,39.51H106.9c-21.824,0-39.508-17.697-39.508-39.51V56.901
			c0-21.826,17.684-39.51,39.508-39.51H293.1c21.824,0,39.508,17.684,39.508,39.51V243.099z"/>
	</g>
	<g>
		<path class="st4" d="M106.9,270.608c-15.168,0-27.508-12.342-27.508-27.51V56.901c0-15.168,12.34-27.51,27.508-27.51H293.1
			c15.168,0,27.508,12.342,27.508,27.51v186.197c0,15.168-12.34,27.51-27.508,27.51H106.9z"/>
	</g>
	<path class="st3" d="M106.9,262.608c-10.757,0-19.508-8.752-19.508-19.51V56.901c0-10.758,8.751-19.51,19.508-19.51H293.1
		c10.757,0,19.508,8.752,19.508,19.51v186.197c0,10.758-8.751,19.51-19.508,19.51H106.9z"/>
	<path class="st5" d="M265.037,109.038c0,13.271-7.164,24.023-16.012,24.023S233,122.31,233,109.038s7.178-24.023,16.025-24.023
		S265.037,95.767,265.037,109.038z"/>
	<path class="st5" d="M165.045,109.038c0,13.271-7.178,24.023-16.025,24.023c-8.836,0-16.012-10.752-16.012-24.023
		s7.176-24.023,16.012-24.023C157.867,85.015,165.045,95.767,165.045,109.038z"/>
	<g>
		<path class="st1" d="M201.458,195.328c38.991,0.433,49.577,32.708,42.001,37.647c-9.461,6.17-24.847-5.946-41.656-6.463
			c-16.792,0.891-31.906,13.346-41.5,7.389C152.618,229.131,162.485,196.628,201.458,195.328z"/>
		<path class="st5" d="M166.401,240.509c-3.275,0-6.214-0.794-8.736-2.359c-4.44-2.757-5.905-8.842-3.918-16.278
			c4.02-15.044,20.28-30.631,47.544-31.54c0.074-0.003,0.148-0.003,0.223-0.003c27.277,0.303,43.879,15.524,48.232,30.476
			c2.151,7.39,0.822,13.506-3.557,16.36c-2.603,1.697-5.683,2.558-9.154,2.559c0,0-0.001,0-0.002,0
			c-5.163,0-10.659-1.851-16.478-3.81c-6.074-2.045-12.352-4.159-18.697-4.396c-6.338,0.378-12.567,2.631-18.594,4.81
			C177.319,238.478,171.703,240.509,166.401,240.509z M163.145,229.774c0.895,0.5,1.937,0.734,3.256,0.734
			c3.549,0,8.365-1.741,13.462-3.585c6.462-2.337,13.786-4.985,21.675-5.404c0.14-0.008,0.281-0.008,0.418-0.005
			c7.897,0.243,15.278,2.729,21.79,4.921c5.021,1.69,9.764,3.287,13.288,3.287c1.438,0,2.555-0.259,3.491-0.81
			c0.403-0.936,0.55-4.669-2.314-9.912c-2.353-4.305-11.94-18.356-36.697-18.672c-24.746,0.866-34.02,15.129-36.275,19.485
			C162.491,225.12,162.721,228.85,163.145,229.774z"/>
	</g>
	<path class="st0" d="M303.279,187.782c0,8.236-6.678,14.91-14.918,14.91s-14.918-6.674-14.918-14.91
		c0-8.24,6.678-35.797,14.918-35.797S303.279,179.542,303.279,187.782z"/>
</g>
</svg>
