<?xml version="1.0" encoding="utf-8"?>
<!-- Generator: Adobe Illustrator 15.0.0, SVG Export Plug-In . SVG Version: 6.00 Build 0)  -->
<!DOCTYPE svg PUBLIC "-//W3C//DTD SVG 1.1//EN" "http://www.w3.org/Graphics/SVG/1.1/DTD/svg11.dtd">
<svg version="1.1" id="レイヤー_1" xmlns="http://www.w3.org/2000/svg" xmlns:xlink="http://www.w3.org/1999/xlink" x="0px"
	 y="0px" width="400px" height="300px" viewBox="0 0 400 300" style="enable-background:new 0 0 400 300;" xml:space="preserve">
<style type="text/css">
<![CDATA[
	.st0{fill:#FF5215;}
	.st1{fill:#FFAB17;}
	.st2{fill:#FFE045;}
	.st3{fill:#FFF9D9;}
	.st4{fill:#303030;}
]]>
</style>
<g>
	<g>
		<path class="st1" d="M332.607,243.099c0,21.812-17.684,39.51-39.508,39.51H106.9c-21.824,0-39.508-17.697-39.508-39.51V56.901
			c0-21.826,17.684-39.51,39.508-39.51H293.1c21.824,0,39.508,17.684,39.508,39.51V243.099z"/>
	</g>
	<g>
		<path class="st3" d="M106.9,270.608c-15.168,0-27.508-12.342-27.508-27.51V56.901c0-15.168,12.34-27.51,27.508-27.51H293.1
			c15.168,0,27.508,12.342,27.508,27.51v186.197c0,15.168-12.34,27.51-27.508,27.51H106.9z"/>
	</g>
	<path class="st2" d="M106.9,262.608c-10.757,0-19.508-8.752-19.508-19.51V56.901c0-10.758,8.751-19.51,19.508-19.51H293.1
		c10.757,0,19.508,8.752,19.508,19.51v186.197c0,10.758-8.751,19.51-19.508,19.51H106.9z"/>
	<path class="st4" d="M265.037,109.038c0,13.271-7.164,24.023-16.012,24.023S233,122.31,233,109.038s7.178-24.023,16.025-24.023
		S265.037,95.767,265.037,109.038z"/>
	<path class="st4" d="M165.045,109.038c0,13.271-7.178,24.023-16.025,24.023c-8.836,0-16.012-10.752-16.012-24.023
		s7.176-24.023,16.012-24.023C157.867,85.015,165.045,95.767,165.045,109.038z"/>
	<g>
		<ellipse class="st0" cx="201.259" cy="211.778" rx="22" ry="34"/>
		<path class="st4" d="M201.259,250.778c-15.14,0-27-17.131-27-39s11.86-39,27-39c15.141,0,27,17.131,27,39
			S216.399,250.778,201.259,250.778z M201.259,182.778c-9.215,0-17,13.28-17,29s7.785,29,17,29s17-13.28,17-29
			S210.474,182.778,201.259,182.778z"/>
	</g>
</g>
</svg>
