<?xml version="1.0" encoding="utf-8"?>
<!-- Generator: Adobe Illustrator 15.0.0, SVG Export Plug-In . SVG Version: 6.00 Build 0)  -->
<!DOCTYPE svg PUBLIC "-//W3C//DTD SVG 1.1//EN" "http://www.w3.org/Graphics/SVG/1.1/DTD/svg11.dtd">
<svg version="1.1" id="レイヤー_1" xmlns="http://www.w3.org/2000/svg" xmlns:xlink="http://www.w3.org/1999/xlink" x="0px"
	 y="0px" width="400px" height="300px" viewBox="0 0 400 300" style="enable-background:new 0 0 400 300;" xml:space="preserve">
<style type="text/css">
<![CDATA[
	.st0{fill:#19A3F7;}
	.st1{fill:#FFAB17;}
	.st2{fill:#FFE045;}
	.st3{fill:#FFF9D9;}
	.st4{fill:#303030;}
]]>
</style>
<g>
	<g>
		<path class="st1" d="M332.607,243.099c0,21.812-17.684,39.51-39.508,39.51H106.9c-21.824,0-39.508-17.697-39.508-39.51V56.901
			c0-21.826,17.684-39.51,39.508-39.51H293.1c21.824,0,39.508,17.684,39.508,39.51V243.099z"/>
	</g>
	<g>
		<path class="st3" d="M106.9,270.608c-15.168,0-27.508-12.342-27.508-27.51V56.901c0-15.168,12.34-27.51,27.508-27.51H293.1
			c15.168,0,27.508,12.342,27.508,27.51v186.197c0,15.168-12.34,27.51-27.508,27.51H106.9z"/>
	</g>
	<path class="st2" d="M106.9,262.608c-10.757,0-19.508-8.752-19.508-19.51V56.901c0-10.758,8.751-19.51,19.508-19.51H293.1
		c10.757,0,19.508,8.752,19.508,19.51v186.197c0,10.758-8.751,19.51-19.508,19.51H106.9z"/>
	<path class="st4" d="M136.045,149.575c-2.364,0-4.648-1.276-5.829-3.512c-1.698-3.216-0.467-7.2,2.749-8.897l25.506-13.465
		l-25.75-15.024c-3.141-1.833-4.202-5.865-2.369-9.006c1.832-3.142,5.864-4.203,9.006-2.369l35.992,20.999
		c2.066,1.205,3.315,3.436,3.265,5.827c-0.051,2.391-1.394,4.567-3.509,5.684l-35.992,19.001
		C138.133,149.33,137.082,149.575,136.045,149.575z"/>
	<path class="st4" d="M264.963,149.575c-1.036,0-2.088-0.245-3.068-0.763l-35.992-19.001c-2.115-1.117-3.458-3.292-3.509-5.684
		s1.199-4.622,3.265-5.827l35.992-20.999c3.139-1.833,7.173-0.773,9.006,2.369c1.833,3.141,0.771,7.173-2.369,9.006l-25.751,15.024
		l25.507,13.465c3.216,1.698,4.446,5.681,2.749,8.897C269.611,148.299,267.327,149.575,264.963,149.575z"/>
	<path class="st4" d="M240.969,234.125h-77.584c-3.313,0-6-2.687-6-6s2.687-6,6-6h77.584c3.313,0,6,2.687,6,6
		S244.282,234.125,240.969,234.125z"/>
	<path class="st0" d="M270.308,191.884c3.467,7.472,12.333,10.714,19.808,7.246c7.476-3.469,10.724-12.332,7.257-19.804
		c-3.469-7.476-21.124-29.663-28.599-26.194C261.299,156.6,266.839,184.408,270.308,191.884z"/>
	<path class="st0" d="M132.649,191.884c-3.467,7.472-12.333,10.714-19.807,7.246c-7.475-3.469-10.724-12.332-7.257-19.804
		c3.469-7.476,21.125-29.663,28.599-26.194C141.658,156.6,136.118,184.408,132.649,191.884z"/>
</g>
</svg>
