<?xml version="1.0" encoding="utf-8"?>
<!-- Generator: Adobe Illustrator 15.0.0, SVG Export Plug-In . SVG Version: 6.00 Build 0)  -->
<!DOCTYPE svg PUBLIC "-//W3C//DTD SVG 1.1//EN" "http://www.w3.org/Graphics/SVG/1.1/DTD/svg11.dtd">
<svg version="1.1" id="レイヤー_1" xmlns="http://www.w3.org/2000/svg" xmlns:xlink="http://www.w3.org/1999/xlink" x="0px"
	 y="0px" width="400px" height="300px" viewBox="0 0 400 300" style="enable-background:new 0 0 400 300;" xml:space="preserve">
<style type="text/css">
<![CDATA[
	.st0{fill:#FFAB17;}
	.st1{fill:#FFE045;}
	.st2{fill:#FFFBE9;}
	.st3{fill:#FFFFFF;}
	.st4{fill:#303030;}
]]>
</style>
<g>
	<g>
		<path class="st0" d="M332.607,243.099c0,21.812-17.684,39.51-39.508,39.51H106.9c-21.824,0-39.508-17.697-39.508-39.51V56.9
			c0-21.825,17.684-39.509,39.508-39.509H293.1c21.824,0,39.508,17.684,39.508,39.509V243.099z"/>
	</g>
	<g>
		<path class="st2" d="M106.9,270.608c-15.168,0-27.508-12.342-27.508-27.51V56.9c0-15.168,12.34-27.509,27.508-27.509H293.1
			c15.168,0,27.508,12.341,27.508,27.509v186.198c0,15.168-12.34,27.51-27.508,27.51H106.9z"/>
	</g>
	<path class="st1" d="M106.9,262.608c-10.757,0-19.508-8.752-19.508-19.51V56.9c0-10.757,8.751-19.509,19.508-19.509H293.1
		c10.757,0,19.508,8.752,19.508,19.509v186.198c0,10.758-8.751,19.51-19.508,19.51H106.9z"/>
	<path class="st4" d="M270.509,133.022c-0.072,0-0.146-0.002-0.219-0.005c-2.93-0.118-5.208-2.589-5.09-5.519
		c0.242-5.965-1.252-9.091-4.207-13.332c-2.641-3.79-6.132-5.961-9.83-6.11c-8.031-0.321-15.297,6.672-15.766,18.236
		c-0.118,2.93-2.598,5.203-5.52,5.09c-2.929-0.118-5.207-2.59-5.089-5.52c0.712-17.612,12.739-31.506,26.803-30.91
		c7.097,0.287,13.528,4.069,18.113,10.65c4.271,6.131,6.438,14.059,6.104,22.325C275.693,130.784,273.341,133.022,270.509,133.022z"
		/>
	<path class="st4" d="M126.923,133.022c0.073,0,0.146-0.002,0.219-0.005c2.93-0.118,5.208-2.589,5.089-5.519
		c-0.241-5.965,1.253-9.091,4.208-13.332c2.641-3.79,6.132-5.961,9.831-6.11c8.03-0.321,15.297,6.672,15.765,18.236
		c0.118,2.93,2.598,5.203,5.519,5.09c2.929-0.118,5.208-2.59,5.089-5.52c-0.712-17.612-12.74-31.506-26.803-30.91
		c-7.096,0.287-13.529,4.069-18.113,10.65c-4.271,6.131-6.439,14.059-6.104,22.325C121.738,130.784,124.09,133.022,126.923,133.022z
		"/>
	<g>
		<path class="st3" d="M283.608,216.144c0,6.651-5.392,12.043-12.044,12.043H127.046c-6.651,0-12.043-5.392-12.043-12.043v-24.086
			c0-6.652,5.392-12.043,12.043-12.043h144.518c6.652,0,12.044,5.391,12.044,12.043V216.144z"/>
		<path class="st4" d="M271.564,233.187H127.046c-9.398,0-17.043-7.646-17.043-17.043v-24.086c0-9.397,7.646-17.043,17.043-17.043
			h144.518c9.398,0,17.044,7.646,17.044,17.043v24.086C288.608,225.541,280.963,233.187,271.564,233.187z M127.046,185.015
			c-3.884,0-7.043,3.159-7.043,7.043v24.086c0,3.884,3.16,7.043,7.043,7.043h144.518c3.884,0,7.044-3.159,7.044-7.043v-24.086
			c0-3.884-3.16-7.043-7.044-7.043H127.046z"/>
	</g>
	<path class="st4" d="M143.452,229.778c-2.209,0-4-1.791-4-4v-43.355c0-2.209,1.791-4,4-4s4,1.791,4,4v43.355
		C147.452,227.987,145.661,229.778,143.452,229.778z"/>
	<path class="st4" d="M171.104,229.778c-2.209,0-4-1.791-4-4v-43.355c0-2.209,1.791-4,4-4s4,1.791,4,4v43.355
		C175.104,227.987,173.313,229.778,171.104,229.778z"/>
	<path class="st4" d="M198.757,229.778c-2.209,0-4-1.791-4-4v-43.355c0-2.209,1.791-4,4-4s4,1.791,4,4v43.355
		C202.757,227.987,200.966,229.778,198.757,229.778z"/>
	<path class="st4" d="M226.409,229.778c-2.209,0-4-1.791-4-4v-43.355c0-2.209,1.791-4,4-4s4,1.791,4,4v43.355
		C230.409,227.987,228.618,229.778,226.409,229.778z"/>
	<path class="st4" d="M254.062,229.778c-2.209,0-4-1.791-4-4v-43.355c0-2.209,1.791-4,4-4s4,1.791,4,4v43.355
		C258.062,227.987,256.271,229.778,254.062,229.778z"/>
</g>
</svg>
