<?xml version="1.0" encoding="utf-8"?>
<!-- Generator: Adobe Illustrator 15.0.0, SVG Export Plug-In . SVG Version: 6.00 Build 0)  -->
<!DOCTYPE svg PUBLIC "-//W3C//DTD SVG 1.1//EN" "http://www.w3.org/Graphics/SVG/1.1/DTD/svg11.dtd">
<svg version="1.1" id="レイヤー_1" xmlns="http://www.w3.org/2000/svg" xmlns:xlink="http://www.w3.org/1999/xlink" x="0px"
	 y="0px" width="400px" height="300px" viewBox="0 0 400 300" style="enable-background:new 0 0 400 300;" xml:space="preserve">
<style type="text/css">
<![CDATA[
	.st0{fill:#FFAB17;}
	.st1{fill:#FFE045;}
	.st2{fill:#FFFBE9;}
	.st3{fill:#303030;}
]]>
</style>
<g>
	<g>
		<path class="st0" d="M332.607,243.099c0,21.812-17.684,39.51-39.508,39.51H106.9c-21.824,0-39.508-17.697-39.508-39.51V56.9
			c0-21.825,17.684-39.509,39.508-39.509H293.1c21.824,0,39.508,17.684,39.508,39.509V243.099z"/>
	</g>
	<g>
		<path class="st2" d="M106.9,270.608c-15.168,0-27.508-12.342-27.508-27.51V56.9c0-15.168,12.34-27.509,27.508-27.509H293.1
			c15.168,0,27.508,12.341,27.508,27.509v186.198c0,15.168-12.34,27.51-27.508,27.51H106.9z"/>
	</g>
	<path class="st1" d="M106.9,262.608c-10.757,0-19.508-8.752-19.508-19.51V56.9c0-10.757,8.751-19.509,19.508-19.509H293.1
		c10.757,0,19.508,8.752,19.508,19.509v186.198c0,10.758-8.751,19.51-19.508,19.51H106.9z"/>
	<path class="st3" d="M265.037,109.037c0,13.272-7.164,24.024-16.012,24.024S233,122.31,233,109.037
		c0-13.271,7.178-24.023,16.025-24.023S265.037,95.766,265.037,109.037z"/>
	<path class="st3" d="M165.045,109.037c0,13.272-7.178,24.024-16.025,24.024c-8.836,0-16.012-10.752-16.012-24.024
		c0-13.271,7.176-24.023,16.012-24.023C157.867,85.014,165.045,95.766,165.045,109.037z"/>
	<path class="st3" d="M199.486,223.776c-65.691,0-83.983-39.192-84.73-40.86c-1.31-2.928,0.001-6.362,2.929-7.673
		c2.918-1.306,6.341-0.006,7.66,2.902c0.671,1.448,16.436,34.018,74.142,34.018c58.874,0,76.776-32.885,77.51-34.285
		c1.48-2.829,4.977-3.946,7.817-2.479c2.838,1.467,3.965,4.937,2.514,7.782C286.482,184.84,265.862,223.776,199.486,223.776z"/>
</g>
</svg>
