<?xml version="1.0" encoding="utf-8"?>
<!-- Generator: Adobe Illustrator 15.0.0, SVG Export Plug-In . SVG Version: 6.00 Build 0)  -->
<!DOCTYPE svg PUBLIC "-//W3C//DTD SVG 1.1//EN" "http://www.w3.org/Graphics/SVG/1.1/DTD/svg11.dtd">
<svg version="1.1" id="レイヤー_1" xmlns="http://www.w3.org/2000/svg" xmlns:xlink="http://www.w3.org/1999/xlink" x="0px"
	 y="0px" width="400px" height="300px" viewBox="0 0 400 300" style="enable-background:new 0 0 400 300;" xml:space="preserve">
<style type="text/css">
<![CDATA[
	.st0{fill:#5390EA;}
	.st1{fill:#FFAB17;}
	.st2{fill:#FFE045;}
	.st3{fill:#FFF9D9;}
	.st4{fill:#303030;}
	.st5{fill:#D4E6FC;}
]]>
</style>
<g>
	<g>
		<path class="st1" d="M332.607,243.099c0,21.812-17.684,39.51-39.508,39.51H106.9c-21.824,0-39.508-17.697-39.508-39.51V56.901
			c0-21.826,17.684-39.51,39.508-39.51H293.1c21.824,0,39.508,17.684,39.508,39.51V243.099z"/>
	</g>
	<g>
		<path class="st3" d="M106.9,270.608c-15.168,0-27.508-12.342-27.508-27.51V56.901c0-15.168,12.34-27.51,27.508-27.51H293.1
			c15.168,0,27.508,12.342,27.508,27.51v186.197c0,15.168-12.34,27.51-27.508,27.51H106.9z"/>
	</g>
	<path class="st2" d="M106.9,262.608c-10.757,0-19.508-8.752-19.508-19.51V56.901c0-10.758,8.751-19.51,19.508-19.51H293.1
		c10.757,0,19.508,8.752,19.508,19.51v186.197c0,10.758-8.751,19.51-19.508,19.51H106.9z"/>
	<path class="st4" d="M199.486,223.776c-65.691,0-83.983-39.192-84.73-40.86c-1.31-2.928,0.001-6.362,2.929-7.673
		c2.918-1.306,6.341-0.006,7.66,2.902c0.671,1.448,16.436,34.018,74.142,34.018c58.874,0,76.776-32.885,77.51-34.285
		c1.48-2.829,4.977-3.946,7.817-2.479c2.838,1.467,3.965,4.937,2.514,7.782C286.482,184.84,265.862,223.776,199.486,223.776z"/>
	<g>
		<path class="st5" d="M299.028,117.577c0,12.255-9.936,22.19-22.191,22.19h-45.5c-12.255,0-22.19-9.935-22.19-22.19V98.709
			c0-12.256,9.936-22.19,22.19-22.19h45.5c12.256,0,22.191,9.935,22.191,22.19V117.577z"/>
		<path class="st0" d="M276.837,144.768h-45.5c-14.993,0-27.19-12.198-27.19-27.19V98.709c0-14.993,12.197-27.19,27.19-27.19h45.5
			c14.993,0,27.191,12.198,27.191,27.19v18.868C304.028,132.57,291.83,144.768,276.837,144.768z M231.337,81.519
			c-9.479,0-17.19,7.711-17.19,17.19v18.868c0,9.479,7.712,17.19,17.19,17.19h45.5c9.479,0,17.191-7.711,17.191-17.19V98.709
			c0-9.479-7.712-17.19-17.191-17.19H231.337z"/>
	</g>
	<g>
		<path class="st5" d="M186.957,117.577c0,12.256-9.935,22.19-22.19,22.19h-45.5c-12.255,0-22.19-9.935-22.19-22.19V98.709
			c0-12.255,9.935-22.19,22.19-22.19h45.5c12.256,0,22.19,9.935,22.19,22.19V117.577z"/>
		<path class="st0" d="M164.767,144.768h-45.5c-14.993,0-27.19-12.198-27.19-27.19V98.709c0-14.993,12.198-27.19,27.19-27.19h45.5
			c14.993,0,27.19,12.198,27.19,27.19v18.868C191.957,132.57,179.759,144.768,164.767,144.768z M119.267,81.519
			c-9.479,0-17.19,7.711-17.19,17.19v18.868c0,9.479,7.711,17.19,17.19,17.19h45.5c9.479,0,17.19-7.711,17.19-17.19V98.709
			c0-9.479-7.711-17.19-17.19-17.19H119.267z"/>
	</g>
	<rect x="186.957" y="108.711" class="st0" width="22.189" height="10"/>
	<path class="st4" d="M265.037,109.038c0,13.271-7.164,24.023-16.012,24.023S233,122.31,233,109.038s7.178-24.023,16.025-24.023
		S265.037,95.767,265.037,109.038z"/>
	<path class="st4" d="M165.045,109.038c0,13.271-7.178,24.023-16.025,24.023c-8.836,0-16.012-10.752-16.012-24.023
		s7.176-24.023,16.012-24.023C157.867,85.015,165.045,95.767,165.045,109.038z"/>
</g>
</svg>
