<?xml version="1.0" encoding="utf-8"?>
<!-- Generator: Adobe Illustrator 15.0.0, SVG Export Plug-In . SVG Version: 6.00 Build 0)  -->
<!DOCTYPE svg PUBLIC "-//W3C//DTD SVG 1.1//EN" "http://www.w3.org/Graphics/SVG/1.1/DTD/svg11.dtd">
<svg version="1.1" id="レイヤー_1" xmlns="http://www.w3.org/2000/svg" xmlns:xlink="http://www.w3.org/1999/xlink" x="0px"
	 y="0px" width="400px" height="300px" viewBox="0 0 400 300" style="enable-background:new 0 0 400 300;" xml:space="preserve">
<style type="text/css">
<![CDATA[
	.st0{fill:#F9AAB6;}
	.st1{fill:#FF5215;}
	.st2{fill:#FFAB17;}
	.st3{fill:#FFE045;}
	.st4{fill:#FFF9D9;}
	.st5{fill:#303030;}
]]>
</style>
<g>
	<g>
		<path class="st2" d="M332.607,243.099c0,21.812-17.684,39.51-39.508,39.51H106.9c-21.824,0-39.508-17.697-39.508-39.51V56.9
			c0-21.825,17.684-39.509,39.508-39.509H293.1c21.824,0,39.508,17.684,39.508,39.509V243.099z"/>
	</g>
	<g>
		<path class="st4" d="M106.9,270.608c-15.168,0-27.508-12.342-27.508-27.51V56.9c0-15.168,12.34-27.509,27.508-27.509H293.1
			c15.168,0,27.508,12.341,27.508,27.509v186.198c0,15.168-12.34,27.51-27.508,27.51H106.9z"/>
	</g>
	<path class="st3" d="M106.9,262.608c-10.757,0-19.508-8.752-19.508-19.51V56.9c0-10.757,8.751-19.509,19.508-19.509H293.1
		c10.757,0,19.508,8.752,19.508,19.509v186.198c0,10.758-8.751,19.51-19.508,19.51H106.9z"/>
	<g>
		<path class="st1" d="M141.811,175.624c0,0,6.018,54.057,58.664,54.057c52.635,0,56.29-54.057,56.29-54.057H141.811z"/>
		<path class="st5" d="M200.475,234.681c-29.539,0-45.324-16.021-53.365-29.461c-8.545-14.283-10.202-28.446-10.268-29.043
			c-0.157-1.413,0.295-2.827,1.243-3.887c0.949-1.061,2.304-1.666,3.726-1.666h114.954c1.385,0,2.707,0.574,3.653,1.586
			c0.945,1.012,1.429,2.37,1.335,3.751c-0.04,0.598-1.08,14.792-9.022,29.116C245.242,218.582,230.098,234.681,200.475,234.681z
			 M147.808,180.624c3.048,13.001,14.342,44.057,52.667,44.057c19.875,0,34.514-8.228,43.51-24.453
			c4.104-7.399,6.081-14.807,7.011-19.604H147.808z"/>
	</g>
	<path class="st0" d="M298.994,141.333c0,8.135-13.193,14.73-29.463,14.73c-16.268,0-29.451-6.596-29.451-14.73
		s13.184-14.731,29.451-14.731C285.801,126.602,298.994,133.198,298.994,141.333z"/>
	<path class="st0" d="M164.446,141.333c0,8.134-13.193,14.73-29.463,14.73c-16.268,0-29.451-6.597-29.451-14.73
		c0-8.135,13.184-14.731,29.451-14.731C151.253,126.602,164.446,133.198,164.446,141.333z"/>
	<path class="st5" d="M269.896,131.44c-3.041,0-5.774-2.12-6.434-5.214c-1.732-8.132-8.856-14.989-18.15-17.469
		c-4.811-1.284-9.752-1.29-14.287-0.014c-3.496,0.98-7.137-1.054-8.122-4.556c-0.984-3.5,1.055-7.137,4.556-8.122
		c6.807-1.915,14.155-1.926,21.25-0.033c14.033,3.745,24.881,14.52,27.635,27.449c0.758,3.557-1.512,7.055-5.068,7.812
		C270.812,131.393,270.351,131.44,269.896,131.44z"/>
	<path class="st5" d="M130,131.44c-0.455,0-0.916-0.047-1.378-0.146c-3.557-0.758-5.826-4.255-5.068-7.812
		c2.754-12.929,13.602-23.704,27.635-27.449c7.092-1.894,14.44-1.882,21.25,0.033c3.501,0.985,5.541,4.622,4.556,8.122
		c-0.985,3.501-4.623,5.54-8.122,4.556c-4.535-1.277-9.475-1.271-14.287,0.013c-9.294,2.48-16.418,9.337-18.15,17.469
		C135.774,129.32,133.041,131.44,130,131.44z"/>
</g>
</svg>
