<?xml version="1.0" encoding="utf-8"?>
<!-- Generator: Adobe Illustrator 15.0.0, SVG Export Plug-In . SVG Version: 6.00 Build 0)  -->
<!DOCTYPE svg PUBLIC "-//W3C//DTD SVG 1.1//EN" "http://www.w3.org/Graphics/SVG/1.1/DTD/svg11.dtd">
<svg version="1.1" id="レイヤー_1" xmlns="http://www.w3.org/2000/svg" xmlns:xlink="http://www.w3.org/1999/xlink" x="0px"
	 y="0px" width="400px" height="300px" viewBox="0 0 400 300" style="enable-background:new 0 0 400 300;" xml:space="preserve">
<style type="text/css">
<![CDATA[
	.st0{fill:#F9AAB6;}
	.st1{fill:#FF5215;}
	.st2{fill:#FFAB17;}
	.st3{fill:#FFE045;}
	.st4{fill:#FFF9D9;}
	.st5{fill:#303030;}
]]>
</style>
<g>
	<g>
		<path class="st2" d="M332.607,243.099c0,21.812-17.684,39.51-39.508,39.51H106.9c-21.824,0-39.508-17.697-39.508-39.51V56.9
			c0-21.825,17.684-39.509,39.508-39.509H293.1c21.824,0,39.508,17.684,39.508,39.509V243.099z"/>
	</g>
	<g>
		<path class="st4" d="M106.9,270.608c-15.168,0-27.508-12.342-27.508-27.51V56.9c0-15.168,12.34-27.509,27.508-27.509H293.1
			c15.168,0,27.508,12.341,27.508,27.509v186.198c0,15.168-12.34,27.51-27.508,27.51H106.9z"/>
	</g>
	<path class="st3" d="M106.9,262.608c-10.757,0-19.508-8.752-19.508-19.51V56.9c0-10.757,8.751-19.509,19.508-19.509H293.1
		c10.757,0,19.508,8.752,19.508,19.509v186.198c0,10.758-8.751,19.51-19.508,19.51H106.9z"/>
	<g>
		<path class="st1" d="M142.445,169.624c0,0,6.01,70.154,58.592,70.154c52.571,0,56.222-70.154,56.222-70.154H142.445z"/>
		<path class="st5" d="M201.037,244.778c-23.594,0-42.114-13.136-53.556-37.986c-8.345-18.124-9.954-35.989-10.018-36.741
			c-0.119-1.396,0.352-2.776,1.299-3.808c0.947-1.032,2.283-1.619,3.683-1.619h114.813c1.371,0,2.683,0.563,3.626,1.558
			c0.944,0.994,1.438,2.333,1.367,3.702c-0.039,0.752-1.048,18.634-8.791,36.779C242.821,231.599,224.693,244.778,201.037,244.778z
			 M148.175,174.624c1.06,6.342,3.458,17.354,8.493,28.208c9.832,21.198,24.759,31.946,44.37,31.946
			c39.238,0,48.608-44.609,50.681-60.154H148.175z"/>
	</g>
	<path class="st0" d="M292.716,139.304c0,8.135-13.193,14.731-29.462,14.731s-29.451-6.597-29.451-14.731
		c0-8.134,13.183-14.731,29.451-14.731S292.716,131.17,292.716,139.304z"/>
	<path class="st0" d="M166.767,137.465c0,8.134-13.194,14.731-29.463,14.731s-29.451-6.598-29.451-14.731
		c0-8.135,13.183-14.731,29.451-14.731S166.767,129.33,166.767,137.465z"/>
	<path class="st5" d="M137.002,137.541c-2.364,0-4.648-1.276-5.829-3.512c-1.698-3.216-0.467-7.2,2.749-8.897l25.506-13.465
		l-25.75-15.023c-3.141-1.833-4.202-5.865-2.369-9.006c1.832-3.142,5.864-4.203,9.006-2.369l35.992,20.998
		c2.066,1.205,3.315,3.436,3.265,5.827c-0.051,2.391-1.394,4.567-3.509,5.684l-35.992,19.001
		C139.09,137.296,138.039,137.541,137.002,137.541z"/>
	<path class="st5" d="M265.92,137.541c-1.036,0-2.088-0.245-3.068-0.763l-35.992-19.001c-2.115-1.117-3.458-3.292-3.509-5.684
		s1.199-4.622,3.265-5.827l35.992-20.998c3.141-1.834,7.173-0.772,9.006,2.369c1.833,3.141,0.771,7.173-2.369,9.006l-25.751,15.023
		L269,125.132c3.216,1.698,4.446,5.681,2.749,8.897C270.568,136.265,268.284,137.541,265.92,137.541z"/>
</g>
</svg>
