<?xml version="1.0" encoding="utf-8"?>
<!-- Generator: Adobe Illustrator 15.0.0, SVG Export Plug-In . SVG Version: 6.00 Build 0)  -->
<!DOCTYPE svg PUBLIC "-//W3C//DTD SVG 1.1//EN" "http://www.w3.org/Graphics/SVG/1.1/DTD/svg11.dtd">
<svg version="1.1" id="レイヤー_1" xmlns="http://www.w3.org/2000/svg" xmlns:xlink="http://www.w3.org/1999/xlink" x="0px"
	 y="0px" width="400px" height="300px" viewBox="0 0 400 300" style="enable-background:new 0 0 400 300;" xml:space="preserve">
<style type="text/css">
<![CDATA[
	.st0{fill:#19A3F7;}
	.st1{fill:#FF5215;}
	.st2{fill:#FFAB17;}
	.st3{fill:#FFE045;}
	.st4{fill:#FFF9D9;}
	.st5{fill:#303030;}
]]>
</style>
<g>
	<g>
		<path class="st2" d="M332.607,243.099c0,21.812-17.684,39.51-39.508,39.51H106.9c-21.824,0-39.508-17.697-39.508-39.51V56.901
			c0-21.826,17.684-39.51,39.508-39.51H293.1c21.824,0,39.508,17.684,39.508,39.51V243.099z"/>
	</g>
	<g>
		<path class="st4" d="M106.9,270.608c-15.168,0-27.508-12.342-27.508-27.51V56.901c0-15.168,12.34-27.51,27.508-27.51H293.1
			c15.168,0,27.508,12.342,27.508,27.51v186.197c0,15.168-12.34,27.51-27.508,27.51H106.9z"/>
	</g>
	<path class="st3" d="M106.9,262.608c-10.757,0-19.508-8.752-19.508-19.51V56.901c0-10.758,8.751-19.51,19.508-19.51H293.1
		c10.757,0,19.508,8.752,19.508,19.51v186.197c0,10.758-8.751,19.51-19.508,19.51H106.9z"/>
	<g>
		<path class="st1" d="M206.105,186.233c53.466,0.592,67.981,44.85,57.593,51.622c-12.973,8.46-34.07-8.153-57.119-8.861
			c-23.026,1.22-43.752,18.302-56.906,10.133C139.136,232.585,152.665,188.016,206.105,186.233z"/>
		<path class="st5" d="M158.034,246.331c-4.14,0-7.84-0.995-10.999-2.956c-5.277-3.276-7.024-11.042-4.559-20.267
			c3.981-14.898,21.828-40.483,63.462-41.872c0.075-0.003,0.146-0.003,0.223-0.003c41.654,0.461,60.064,25.644,64.376,40.45
			c2.669,9.167,1.095,16.969-4.108,20.36c-3.308,2.157-7.082,3.206-11.539,3.207h-0.002c-6.775,0-14.172-2.49-22.003-5.127
			c-8.481-2.855-17.25-5.808-26.25-6.125c-8.99,0.517-17.692,3.664-26.11,6.709C172.53,243.6,164.978,246.331,158.034,246.331z
			 M206.161,191.234c-35.703,1.233-50.757,22.231-54.023,34.456c-1.583,5.924-0.325,8.88,0.172,9.188
			c1.595,0.99,3.414,1.452,5.724,1.452c5.191,0,11.942-2.442,19.09-5.027c8.741-3.161,18.647-6.744,29.191-7.303
			c0.14-0.008,0.279-0.008,0.418-0.005c10.554,0.324,20.536,3.686,29.343,6.65c7.033,2.368,13.677,4.604,18.813,4.604
			c2.491-0.001,4.422-0.504,6.078-1.584c0.491-0.319,1.683-3.302-0.031-9.188C257.398,212.33,241.882,191.672,206.161,191.234z"/>
	</g>
	<path class="st0" d="M267.607,171.371c3.467,7.472,12.332,10.714,19.807,7.246c7.476-3.469,10.725-12.332,7.258-19.804
		c-3.469-7.476-21.125-29.663-28.6-26.194C258.598,136.087,264.139,163.896,267.607,171.371z"/>
	<path class="st0" d="M129.983,171.371c-3.467,7.472-12.333,10.714-19.808,7.246c-7.476-3.469-10.724-12.332-7.257-19.804
		c3.469-7.476,21.124-29.663,28.599-26.194C138.992,136.087,133.452,163.896,129.983,171.371z"/>
	<path class="st5" d="M131.308,137.16c-3.4,0-5.527-0.843-6.02-1.061l4.855-10.974c0,0-0.091-0.052-0.276-0.111
		c0.056,0.017,5.683,1.674,15.221-6.67c13.456-11.772,15.44-23.352,15.457-23.465c0.469-3.28,3.507-5.565,6.789-5.09
		c3.28,0.469,5.56,3.508,5.09,6.789c-0.092,0.644-2.449,15.938-19.434,30.798C143.832,135.389,136.234,137.16,131.308,137.16z"/>
	<path class="st5" d="M270.621,137.16c-4.924,0-12.517-1.771-21.676-9.784c-16.984-14.86-19.342-30.154-19.434-30.798
		c-0.469-3.28,1.81-6.32,5.09-6.789c3.26-0.473,6.291,1.788,6.782,5.044c0.096,0.581,2.107,11.826,15.463,23.512
		c9.535,8.342,15.155,6.689,15.209,6.67c-0.186,0.059-0.277,0.111-0.277,0.111l4.861,10.972
		C276.147,136.316,274.02,137.16,270.621,137.16z"/>
</g>
</svg>
