<?xml version="1.0" encoding="utf-8"?>
<!-- Generator: Adobe Illustrator 15.0.0, SVG Export Plug-In . SVG Version: 6.00 Build 0)  -->
<!DOCTYPE svg PUBLIC "-//W3C//DTD SVG 1.1//EN" "http://www.w3.org/Graphics/SVG/1.1/DTD/svg11.dtd">
<svg version="1.1" id="レイヤー_1" xmlns="http://www.w3.org/2000/svg" xmlns:xlink="http://www.w3.org/1999/xlink" x="0px"
	 y="0px" width="400px" height="300px" viewBox="0 0 400 300" style="enable-background:new 0 0 400 300;" xml:space="preserve">
<style type="text/css">
<![CDATA[
	.st0{fill:#FF5215;}
	.st1{fill:#FFAB17;}
	.st2{fill:#FFE045;}
	.st3{fill:#FFF9D9;}
	.st4{fill:#303030;}
]]>
</style>
<g>
	<g>
		<path class="st1" d="M332.607,243.099c0,21.812-17.684,39.51-39.508,39.51H106.9c-21.824,0-39.508-17.697-39.508-39.51V56.9
			c0-21.825,17.684-39.509,39.508-39.509H293.1c21.824,0,39.508,17.684,39.508,39.509V243.099z"/>
	</g>
	<g>
		<path class="st3" d="M106.9,270.608c-15.168,0-27.508-12.342-27.508-27.51V56.9c0-15.168,12.34-27.509,27.508-27.509H293.1
			c15.168,0,27.508,12.341,27.508,27.509v186.198c0,15.168-12.34,27.51-27.508,27.51H106.9z"/>
	</g>
	<path class="st2" d="M106.9,262.608c-10.757,0-19.508-8.752-19.508-19.51V56.9c0-10.757,8.751-19.509,19.508-19.509H293.1
		c10.757,0,19.508,8.752,19.508,19.509v186.198c0,10.758-8.751,19.51-19.508,19.51H106.9z"/>
	<path class="st4" d="M265.037,109.037c0,13.272-7.164,24.024-16.012,24.024S233,122.31,233,109.037
		c0-13.271,7.178-24.023,16.025-24.023S265.037,95.766,265.037,109.037z"/>
	<path class="st4" d="M165.045,109.037c0,13.272-7.178,24.024-16.025,24.024c-8.836,0-16.012-10.752-16.012-24.024
		c0-13.271,7.176-24.023,16.012-24.023C157.867,85.014,165.045,95.766,165.045,109.037z"/>
	<g>
		<path class="st0" d="M142.375,175.624c0,0,6.018,54.057,58.664,54.057c52.635,0,56.29-54.057,56.29-54.057H142.375z"/>
		<path class="st4" d="M201.039,234.681c-29.539,0-45.324-16.021-53.365-29.461c-8.545-14.283-10.202-28.446-10.268-29.043
			c-0.157-1.413,0.295-2.827,1.243-3.887c0.949-1.061,2.304-1.666,3.726-1.666h114.954c1.385,0,2.707,0.574,3.653,1.586
			c0.945,1.012,1.429,2.37,1.335,3.751c-0.04,0.598-1.08,14.792-9.022,29.116C245.807,218.582,230.662,234.681,201.039,234.681z
			 M148.373,180.624c3.048,13.001,14.342,44.057,52.667,44.057c19.875,0,34.514-8.228,43.51-24.453
			c4.104-7.399,6.081-14.807,7.011-19.604H148.373z"/>
	</g>
</g>
</svg>
