<?xml version="1.0" encoding="utf-8"?>
<!-- Generator: Adobe Illustrator 15.0.0, SVG Export Plug-In . SVG Version: 6.00 Build 0)  -->
<!DOCTYPE svg PUBLIC "-//W3C//DTD SVG 1.1//EN" "http://www.w3.org/Graphics/SVG/1.1/DTD/svg11.dtd">
<svg version="1.1" id="レイヤー_1" xmlns="http://www.w3.org/2000/svg" xmlns:xlink="http://www.w3.org/1999/xlink" x="0px"
	 y="0px" width="400px" height="300px" viewBox="0 0 400 300" style="enable-background:new 0 0 400 300;" xml:space="preserve">
<style type="text/css">
<![CDATA[
	.st0{fill:#F9AAB6;}
	.st1{fill:#FFAB17;}
	.st2{fill:#FFE045;}
	.st3{fill:#FFF9D9;}
	.st4{fill:#FFFFFF;}
	.st5{fill:#303030;}
]]>
</style>
<g>
	<g>
		<path class="st1" d="M332.607,243.099c0,21.812-17.684,39.51-39.508,39.51H106.9c-21.824,0-39.508-17.697-39.508-39.51V56.9
			c0-21.825,17.684-39.509,39.508-39.509H293.1c21.824,0,39.508,17.684,39.508,39.509V243.099z"/>
	</g>
	<g>
		<path class="st3" d="M106.9,270.608c-15.168,0-27.508-12.342-27.508-27.51V56.9c0-15.168,12.34-27.509,27.508-27.509H293.1
			c15.168,0,27.508,12.341,27.508,27.509v186.198c0,15.168-12.34,27.51-27.508,27.51H106.9z"/>
	</g>
	<path class="st2" d="M106.9,262.608c-10.757,0-19.508-8.752-19.508-19.51V56.9c0-10.757,8.751-19.509,19.508-19.509H293.1
		c10.757,0,19.508,8.752,19.508,19.509v186.198c0,10.758-8.751,19.51-19.508,19.51H106.9z"/>
	<path class="st5" d="M202.178,203.644c-22.106,0-30.816-21.176-31.176-22.077c-1.189-2.979,0.261-6.356,3.239-7.546
		c2.973-1.188,6.341,0.255,7.538,3.219c0.282,0.684,6.28,14.791,20.399,14.791c14.307,0,20.322-14.626,20.381-14.773
		c1.191-2.978,4.57-4.428,7.548-3.235c2.978,1.191,4.426,4.57,3.235,7.548C232.981,182.471,224.259,203.644,202.178,203.644z"/>
	<path class="st0" d="M288.687,147.304c0,8.135-13.193,14.731-29.461,14.731c-16.27,0-29.451-6.597-29.451-14.731
		c0-8.134,13.182-14.731,29.451-14.731C275.493,132.572,288.687,139.17,288.687,147.304z"/>
	<path class="st0" d="M172.715,145.465c0,8.134-13.194,14.731-29.463,14.731s-29.451-6.598-29.451-14.731
		c0-8.135,13.183-14.731,29.451-14.731S172.715,137.33,172.715,145.465z"/>
	<path class="st5" d="M169.995,110.847c0,20.19-10.917,36.561-24.381,36.561s-24.381-16.37-24.381-36.561
		c0-20.2,10.917-36.561,24.381-36.561S169.995,90.646,169.995,110.847z"/>
	<path class="st4" d="M155.367,88.769c0,5.869-4.121,10.621-9.202,10.621c-5.082,0-9.203-4.752-9.203-10.621
		c0-5.868,4.121-10.62,9.203-10.62C151.246,78.148,155.367,82.9,155.367,88.769z"/>
	<polygon class="st4" points="142.486,119.008 146.909,110.917 151.332,119.008 159.422,123.431 151.332,127.854 146.898,135.945 
		142.474,127.854 134.383,123.431 	"/>
	<path class="st5" d="M283.122,110.847c0,20.19-10.918,36.561-24.381,36.561c-13.453,0-24.371-16.37-24.371-36.561
		c0-20.2,10.918-36.561,24.371-36.561C272.204,74.286,283.122,90.646,283.122,110.847z"/>
	<path class="st4" d="M268.493,88.769c0,5.869-4.121,10.621-9.191,10.621c-5.092,0-9.213-4.752-9.213-10.621
		c0-5.868,4.121-10.62,9.213-10.62C264.372,78.148,268.493,82.9,268.493,88.769z"/>
	<polygon class="st4" points="256.69,117.174 261.126,109.083 265.548,117.174 273.64,121.597 265.538,126.021 261.114,134.111 
		256.69,126.021 248.601,121.597 	"/>
</g>
</svg>
