<?xml version="1.0" encoding="utf-8"?>
<!-- Generator: Adobe Illustrator 15.0.0, SVG Export Plug-In . SVG Version: 6.00 Build 0)  -->
<!DOCTYPE svg PUBLIC "-//W3C//DTD SVG 1.1//EN" "http://www.w3.org/Graphics/SVG/1.1/DTD/svg11.dtd">
<svg version="1.1" id="レイヤー_1" xmlns="http://www.w3.org/2000/svg" xmlns:xlink="http://www.w3.org/1999/xlink" x="0px"
	 y="0px" width="400px" height="300px" viewBox="0 0 400 300" style="enable-background:new 0 0 400 300;" xml:space="preserve">
<style type="text/css">
<![CDATA[
	.st0{fill:#FF5215;}
	.st1{fill:#FFAB17;}
	.st2{fill:#FFE045;}
	.st3{fill:#FFF9D9;}
	.st4{fill:#303030;}
	.st5{fill:#3D3D3B;}
]]>
</style>
<g>
	<g>
		<path class="st1" d="M332.607,243.099c0,21.812-17.684,39.51-39.508,39.51H106.9c-21.824,0-39.508-17.697-39.508-39.51V56.901
			c0-21.826,17.684-39.51,39.508-39.51H293.1c21.824,0,39.508,17.684,39.508,39.51V243.099z"/>
	</g>
	<g>
		<path class="st3" d="M106.9,270.608c-15.168,0-27.508-12.342-27.508-27.51V56.901c0-15.168,12.34-27.51,27.508-27.51H293.1
			c15.168,0,27.508,12.342,27.508,27.51v186.197c0,15.168-12.34,27.51-27.508,27.51H106.9z"/>
	</g>
	<path class="st2" d="M106.9,262.608c-10.757,0-19.508-8.752-19.508-19.51V56.901c0-10.758,8.751-19.51,19.508-19.51H293.1
		c10.757,0,19.508,8.752,19.508,19.51v186.197c0,10.758-8.751,19.51-19.508,19.51H106.9z"/>
	<path class="st0" d="M292.88,154.648c0,8.134-13.193,14.73-29.462,14.73s-29.451-6.597-29.451-14.73
		c0-8.135,13.183-14.732,29.451-14.732S292.88,146.514,292.88,154.648z"/>
	<path class="st0" d="M166.931,152.809c0,8.134-13.194,14.73-29.463,14.73s-29.451-6.597-29.451-14.73
		c0-8.135,13.183-14.731,29.451-14.731S166.931,144.674,166.931,152.809z"/>
	<path class="st4" d="M259.465,219.463c-1.15,0-2.312-0.341-3.325-1.051c-0.282-0.196-28.915-19.952-56.677-19.952
		c-27.118,0-46.713,19.117-46.908,19.31c-2.274,2.255-5.948,2.249-8.208-0.021c-2.259-2.27-2.26-5.935,0.004-8.199
		c0.927-0.927,23.071-22.702,55.111-22.702c31.472,0,62.051,21.151,63.337,22.052c2.627,1.839,3.267,5.459,1.427,8.087
		C263.098,218.599,261.296,219.463,259.465,219.463z"/>
	<path class="st5" d="M163.474,143.729c-1.467,0-2.942-0.487-4.166-1.489l-33.003-27.002c-2.815-2.303-3.23-6.451-0.927-9.266
		c2.303-2.815,6.452-3.229,9.266-0.927l33.003,27.002c2.815,2.303,3.23,6.451,0.927,9.266
		C167.273,142.905,165.381,143.729,163.474,143.729z"/>
	<path class="st5" d="M237.548,143.729c-1.938,0-3.857-0.852-5.157-2.486c-2.264-2.846-1.792-6.988,1.054-9.252l33.945-27.002
		c2.846-2.264,6.989-1.793,9.253,1.054c2.264,2.846,1.792,6.988-1.054,9.252l-33.945,27.002
		C240.432,143.262,238.984,143.729,237.548,143.729z"/>
	<g>
		<path class="st5" d="M274.87,62.891h-21.113c-2.209,0-4-1.791-4-4s1.791-4,4-4h13.113V41.776c0-2.209,1.791-4,4-4s4,1.791,4,4
			V62.891z"/>
		<path class="st5" d="M304.091,62.891h-21.113V41.776c0-2.209,1.791-4,4-4s4,1.791,4,4v13.114h13.113c2.209,0,4,1.791,4,4
			S306.3,62.891,304.091,62.891z"/>
		<path class="st5" d="M270.87,94.754c-2.209,0-4-1.791-4-4V77.64h-13.113c-2.209,0-4-1.791-4-4s1.791-4,4-4h21.113v21.114
			C274.87,92.963,273.079,94.754,270.87,94.754z"/>
		<path class="st5" d="M286.978,94.754c-2.209,0-4-1.791-4-4V69.64h21.113c2.209,0,4,1.791,4,4s-1.791,4-4,4h-13.113v13.114
			C290.978,92.963,289.187,94.754,286.978,94.754z"/>
	</g>
</g>
</svg>
