<?xml version="1.0" encoding="utf-8"?>
<!-- Generator: Adobe Illustrator 15.0.0, SVG Export Plug-In . SVG Version: 6.00 Build 0)  -->
<!DOCTYPE svg PUBLIC "-//W3C//DTD SVG 1.1//EN" "http://www.w3.org/Graphics/SVG/1.1/DTD/svg11.dtd">
<svg version="1.1" xmlns="http://www.w3.org/2000/svg" xmlns:xlink="http://www.w3.org/1999/xlink" x="0px" y="0px" width="400px"
	 height="300px" viewBox="0 0 400 300" style="enable-background:new 0 0 400 300;" xml:space="preserve">
<style type="text/css">
<![CDATA[
	.st0{fill:#AF753C;}
	.st1{fill:#E1EEEF;}
	.st2{fill:#4DAA4D;}
	.st3{fill:#EA5454;}
	.st4{fill:#545453;}
	.st5{fill:#FF7C24;}
	.st6{fill:#3D3D3B;}
]]>
</style>
<g id="レイヤー_1">
</g>
<g id="レイヤー_2">
	<g>
		
			<rect x="261.049" y="109.543" transform="matrix(-0.7136 -0.7006 0.7006 -0.7136 350.8646 447.2255)" class="st0" width="11.602" height="84.698"/>
		<polygon class="st0" points="261.033,154.373 272.635,154.267 272.283,123.979 260.682,124.086 		"/>
	</g>
	<circle class="st1" cx="187.124" cy="210.876" r="78.124"/>
	<circle class="st1" cx="187.124" cy="104.277" r="56.585"/>
	<circle class="st6" cx="162.371" cy="92.793" r="7.807"/>
	<circle class="st6" cx="210.945" cy="92.793" r="7.807"/>
	<circle class="st5" cx="186.658" cy="112.743" r="7.807"/>
	<circle class="st6" cx="186.658" cy="177.797" r="7.807"/>
	<circle class="st6" cx="186.658" cy="212.492" r="7.807"/>
	<circle class="st6" cx="186.658" cy="247.188" r="7.807"/>
	<polygon class="st3" points="217.482,56.477 158.684,56.477 165.933,12.176 210.232,12.176 	"/>
	<path class="st4" d="M187.453,139.176c-0.004,0-0.009,0-0.013,0c-14.536-0.007-20.357-12.275-20.598-12.797
		c-0.462-1.003-0.024-2.191,0.979-2.654c1.005-0.461,2.189-0.024,2.652,0.976c0.213,0.453,5.057,10.47,16.969,10.476
		c0.003,0,0.008,0,0.011,0c11.995,0,16.922-10.369,16.971-10.474c0.464-1.003,1.653-1.438,2.654-0.977
		c1.003,0.463,1.44,1.651,0.977,2.654C207.812,126.902,201.976,139.176,187.453,139.176z"/>
	<g>
		<path class="st2" d="M243.353,153.484c1.138,1.909-0.306,4.279-3.286,5.165c-34.409,10.206-71.044,10.206-105.453,0
			c-2.981-0.886-4.423-3.255-3.287-5.165c2.057-3.505,4.062-7.035,6.012-10.586c0.967-1.736,3.709-2.519,6.177-1.847
			c28.687,7.849,58.961,7.849,87.649,0c2.466-0.671,5.21,0.112,6.176,1.849C239.291,146.45,241.295,149.979,243.353,153.484z"/>
	</g>
	<g>
		<path class="st3" d="M303.515,144.949l24.524-26.257c7.855-7.764,7.932-20.427,0.168-28.284l0,0
			c-7.764-7.857-20.428-7.932-28.284-0.168l-24.524,26.258L303.515,144.949z"/>
		<path class="st3" d="M297.658,115.176l-0.324-20.455c-0.149-5.972-5.111-10.691-11.082-10.541l0,0
			c-5.971,0.148-10.689,5.11-10.54,11.082l0.325,20.455L297.658,115.176z"/>
	</g>
	<path class="st2" d="M140.658,152.176c0,0-16,12-19,44c-2.62,27.949,0,32,0,32h21c0,0-2-20,0-34s10-36,10-36L140.658,152.176z"/>
</g>
</svg>
