<?xml version="1.0" encoding="utf-8"?>
<!-- Generator: Adobe Illustrator 15.0.0, SVG Export Plug-In . SVG Version: 6.00 Build 0)  -->
<!DOCTYPE svg PUBLIC "-//W3C//DTD SVG 1.1//EN" "http://www.w3.org/Graphics/SVG/1.1/DTD/svg11.dtd">
<svg version="1.1" xmlns="http://www.w3.org/2000/svg" xmlns:xlink="http://www.w3.org/1999/xlink" x="0px" y="0px" width="400px"
	 height="300px" viewBox="0 0 400 300" style="enable-background:new 0 0 400 300;" xml:space="preserve">
<style type="text/css">
<![CDATA[
	.st0{display:inline;fill:#4DAA4D;}
	.st1{fill:#AF753C;}
	.st2{display:inline;fill:#EA5454;}
	.st3{fill:#4DAA4D;}
	.st4{display:inline;fill:#B7D7E5;}
	.st5{display:inline;fill:#545453;}
	.st6{fill:#EA5454;}
	.st7{fill:#EFE89E;}
	.st8{fill:#53A9EA;}
	.st9{fill:#59C159;}
	.st10{fill:#8DCEFF;}
	.st11{display:inline;fill:#FF7C24;}
	.st12{fill:#2B274C;}
	.st13{fill:#C6CCCC;}
	.st14{fill:#FFB3D2;}
	.st15{fill:#FFE045;}
	.st16{display:inline;}
	.st17{fill:#327CBF;}
	.st18{display:inline;fill:#D3E1E5;}
	.st19{display:inline;fill:#3D3D3B;}
	.st20{display:none;}
	.st21{fill:#76BEFF;}
	.st22{fill:#A9B8BF;}
	.st23{display:inline;fill:#E1EEEF;}
]]>
</style>
<g id="レイヤー_1" class="st20">
</g>
<g id="レイヤー_2" class="st20">
	<g class="st16">
		
			<rect x="261.049" y="109.543" transform="matrix(-0.7136 -0.7006 0.7006 -0.7136 350.8646 447.2255)" class="st1" width="11.602" height="84.698"/>
		<polygon class="st1" points="261.033,154.373 272.635,154.267 272.283,123.979 260.682,124.086 		"/>
	</g>
	<circle class="st23" cx="187.124" cy="210.876" r="78.124"/>
	<circle class="st23" cx="187.124" cy="104.277" r="56.585"/>
	<circle class="st19" cx="162.371" cy="92.793" r="7.807"/>
	<circle class="st19" cx="210.945" cy="92.793" r="7.807"/>
	<circle class="st11" cx="186.658" cy="112.743" r="7.807"/>
	<circle class="st19" cx="186.658" cy="177.797" r="7.807"/>
	<circle class="st19" cx="186.658" cy="212.492" r="7.807"/>
	<circle class="st19" cx="186.658" cy="247.188" r="7.807"/>
	<polygon class="st2" points="217.482,56.477 158.684,56.477 165.933,12.176 210.232,12.176 	"/>
	<path class="st5" d="M187.453,139.176c-0.004,0-0.009,0-0.013,0c-14.536-0.007-20.357-12.275-20.598-12.797
		c-0.462-1.003-0.024-2.191,0.979-2.654c1.005-0.461,2.189-0.024,2.652,0.976c0.213,0.453,5.057,10.47,16.969,10.476
		c0.003,0,0.008,0,0.011,0c11.995,0,16.922-10.369,16.971-10.474c0.464-1.003,1.653-1.438,2.654-0.977
		c1.003,0.463,1.44,1.651,0.977,2.654C207.812,126.902,201.976,139.176,187.453,139.176z"/>
	<g class="st16">
		<path class="st3" d="M243.353,153.484c1.138,1.909-0.306,4.279-3.286,5.165c-34.409,10.206-71.044,10.206-105.453,0
			c-2.981-0.886-4.423-3.255-3.287-5.165c2.057-3.505,4.062-7.035,6.012-10.586c0.967-1.736,3.709-2.519,6.177-1.847
			c28.687,7.849,58.961,7.849,87.649,0c2.466-0.671,5.21,0.112,6.176,1.849C239.291,146.45,241.295,149.979,243.353,153.484z"/>
	</g>
	<g class="st16">
		<path class="st6" d="M303.515,144.949l24.524-26.257c7.855-7.764,7.932-20.427,0.168-28.284l0,0
			c-7.764-7.857-20.428-7.932-28.284-0.168l-24.524,26.258L303.515,144.949z"/>
		<path class="st6" d="M297.658,115.176l-0.324-20.455c-0.149-5.972-5.111-10.691-11.082-10.541l0,0
			c-5.971,0.148-10.689,5.11-10.54,11.082l0.325,20.455L297.658,115.176z"/>
	</g>
	<path class="st0" d="M140.658,152.176c0,0-16,12-19,44c-2.62,27.949,0,32,0,32h21c0,0-2-20,0-34s10-36,10-36L140.658,152.176z"/>
</g>
<g id="レイヤー_3" class="st20">
	<g class="st16">
		<path class="st13" d="M200.519,254.701c-2.025,0-3.668-1.641-3.668-3.668V24.236c0-2.026,1.643-3.668,3.668-3.668
			c2.026,0,3.668,1.642,3.668,3.668v226.797C204.187,253.061,202.545,254.701,200.519,254.701z"/>
		<g>
			<path class="st17" d="M251.162,124.893c0,5.355-0.407,10.615-1.189,15.753c0.023,0.02,0.052,0.039,0.076,0.06
				c11.523-9.714,29.83-15.995,50.447-15.995c11.066,0,21.461,1.812,30.504,4.991c-16.509-54.094-66.801-93.449-126.298-93.449
				c-0.965,0-1.92,0.038-2.881,0.058C231.452,54.8,251.162,87.549,251.162,124.893z"/>
			<path class="st17" d="M198.909,36.384c-56.074,2.421-103.059,39.826-119.731,90.932c6.961-1.678,14.507-2.605,22.396-2.605
				c19.785,0,37.437,5.785,49.013,14.834c0.044-0.033,0.091-0.065,0.134-0.098c-0.664-4.76-1.036-9.613-1.036-14.554
				C149.684,87.597,169.347,54.886,198.909,36.384z"/>
			<path class="st8" d="M149.684,124.893c0,4.941,0.372,9.794,1.036,14.554c11.582-8.991,29.172-14.736,48.882-14.736
				c20.573,0,38.842,6.256,50.371,15.936c0.782-5.139,1.189-10.398,1.189-15.753c0-37.344-19.71-70.093-49.341-88.582
				c-0.969,0.021-1.943,0.031-2.912,0.073C169.347,54.886,149.684,87.597,149.684,124.893z"/>
		</g>
		<path class="st17" d="M181.744,282c-13.295,0-24.113-10.816-24.113-24.111c0-8.422,4.281-16.094,11.453-20.525
			c2.299-1.418,5.31-0.707,6.731,1.592c1.421,2.297,0.707,5.309-1.591,6.73c-4.266,2.635-6.813,7.195-6.813,12.203
			c0,7.9,6.431,14.33,14.333,14.33c7.901,0,14.332-6.43,14.332-14.33v-30.906h9.781v30.906C205.857,271.184,195.041,282,181.744,282
			z"/>
	</g>
</g>
<g id="レイヤー_4" class="st20">
	<g class="st16">
		<rect x="49.658" class="st12" width="300" height="300"/>
		<polygon class="st7" points="303.204,155.605 308.399,177.611 330.407,182.806 308.399,188 303.204,210.006 298.011,188 
			276.003,182.806 298.011,177.611 		"/>
		<polygon class="st7" points="91.816,68.605 97.011,90.611 119.019,95.806 97.011,101 91.816,123.006 86.623,101 64.615,95.806 
			86.623,90.611 		"/>
		<polygon class="st7" points="209.956,10.945 214.011,28.123 231.19,32.178 214.011,36.232 209.956,53.41 205.901,36.232 
			188.723,32.178 205.901,28.123 		"/>
		<polygon class="st7" points="251.956,240.713 256.011,257.891 273.19,261.945 256.011,266 251.956,283.178 247.902,266 
			230.724,261.945 247.902,257.891 		"/>
		<polygon class="st7" points="89.011,237 93.066,254.178 110.245,258.232 93.066,262.287 89.011,279.465 84.957,262.287 
			67.777,258.232 84.957,254.178 		"/>
		<polygon class="st7" points="309.399,236.371 311.788,246.491 321.909,248.88 311.788,251.269 309.399,261.389 307.011,251.269 
			296.89,248.88 307.011,246.491 		"/>
		<polygon class="st7" points="161.744,58.714 164.132,68.834 174.253,71.223 164.132,73.611 161.744,83.731 159.355,73.611 
			149.234,71.223 159.355,68.834 		"/>
		<polygon class="st7" points="318.399,11.88 320.788,22 330.909,24.389 320.788,26.777 318.399,36.897 316.011,26.777 
			305.89,24.389 316.011,22 		"/>
		<polygon class="st7" points="91.521,13.714 93.91,23.834 104.031,26.223 93.91,28.611 91.521,38.731 89.132,28.611 79.011,26.223 
			89.132,23.834 		"/>
		<g>
			<path class="st14" d="M314.33,81.924c-31.254,2.917-60.789,13.171-86.465,29.37c-25.676,16.2-47.492,38.347-63.309,65.046
				c-1.794-1.151-3.587-2.303-5.38-3.454s-3.587-2.303-5.381-3.454c15.321-30.363,37.719-56.264,64.958-75.952
				c27.24-19.689,59.323-33.166,94.016-38.684c-2.268,4.923-4.394,9.793-6.387,14.605C309.143,73.439,311.795,77.614,314.33,81.924z
				"/>
			<path class="st9" d="M315.838,108.114c-27.934,0.407-55.01,7.55-79.175,20.381c-24.165,12.833-45.421,31.354-61.719,54.516
				c-1.793-1.151-3.586-2.304-5.379-3.454c-1.794-1.152-3.587-2.303-5.381-3.455c15.801-26.826,37.637-49.101,63.367-65.421
				c25.73-16.32,55.354-26.687,86.726-29.692c-2.023,4.74-3.913,9.423-5.675,14.047C311.13,99.262,313.544,103.623,315.838,108.114z
				"/>
			<path class="st10" d="M317.348,134.305c-24.616-2.103-49.231,1.929-71.887,11.392c-22.656,9.463-43.352,24.358-60.128,43.984
				c-1.793-1.151-3.586-2.303-5.379-3.454s-3.587-2.303-5.381-3.454c16.281-23.289,37.556-41.938,61.776-54.892
				c24.22-12.95,51.383-20.205,79.437-20.702c-1.783,4.558-3.436,9.056-4.965,13.49
				C313.115,125.084,315.294,129.632,317.348,134.305z"/>
		</g>
		<polygon class="st15" points="128.436,104.06 168.222,142.096 223.003,136.869 199.133,186.463 221.034,236.951 166.49,229.566 
			125.229,266 115.405,211.849 68.011,183.862 116.472,157.787 		"/>
	</g>
</g>
<g id="レイヤー_5" class="st20">
	<path class="st4" d="M274.811,71.48c-1.85-20.383-17.836-36.382-37.52-36.382c-7.808,0-15.066,2.521-21.096,6.822
		c-10.712-15.747-28.752-26.103-49.224-26.103c-32.876,0-59.519,26.65-59.519,59.525c0,0.287,0.082,0.562,0.09,0.863
		c-16.521,8.149-27.801,23.464-27.801,41.23c0,26.232,24.307,47.492,54.292,47.492h127.653c29.984,0,54.312-21.26,54.312-47.492
		C316,95.178,298.426,76.631,274.811,71.48z"/>
	<circle class="st18" cx="121" cy="193" r="14"/>
	<circle class="st18" cx="201" cy="185" r="14"/>
	<circle class="st18" cx="231" cy="227" r="14"/>
	<circle class="st18" cx="277" cy="193" r="14"/>
	<circle class="st18" cx="277" cy="258" r="14"/>
	<circle class="st18" cx="165" cy="227" r="14"/>
	<circle class="st18" cx="121" cy="258" r="14"/>
	<circle class="st18" cx="201" cy="271" r="14"/>
</g>
<g id="レイヤー_6">
	<path class="st22" d="M274.88,71.478c-1.85-20.383-17.836-36.382-37.52-36.382c-7.809,0-15.066,2.521-21.096,6.822
		c-10.713-15.747-28.752-26.103-49.225-26.103c-32.875,0-59.518,26.65-59.518,59.525c0,0.288,0.082,0.562,0.09,0.864
		c-16.521,8.149-27.801,23.463-27.801,41.23c0,26.232,24.307,47.492,54.292,47.492h127.654c29.984,0,54.312-21.26,54.312-47.492
		C316.069,95.175,298.495,76.628,274.88,71.478z"/>
	<g>
		<path class="st21" d="M126.633,209.468c0,5.799-4.7,10.5-10.499,10.5c-5.799,0-10.5-4.701-10.5-10.5s4.701-26.998,10.5-26.998
			C121.933,182.47,126.633,203.669,126.633,209.468z"/>
		<path class="st21" d="M277.999,209.468c0,5.799-4.701,10.5-10.5,10.5s-10.5-4.701-10.5-10.5s4.701-26.998,10.5-26.998
			S277.999,203.669,277.999,209.468z"/>
		<path class="st21" d="M126.633,266.466c0,5.799-4.7,10.499-10.499,10.499c-5.799,0-10.5-4.7-10.5-10.499s4.701-26.999,10.5-26.999
			C121.933,239.467,126.633,260.667,126.633,266.466z"/>
		<path class="st21" d="M277.999,266.466c0,5.799-4.701,10.499-10.5,10.499s-10.5-4.7-10.5-10.499s4.701-26.999,10.5-26.999
			S277.999,260.667,277.999,266.466z"/>
		<path class="st21" d="M202.315,202.344c0,5.799-4.701,10.499-10.5,10.499s-10.498-4.7-10.498-10.499s4.699-26.999,10.498-26.999
			S202.315,196.545,202.315,202.344z"/>
		<path class="st21" d="M202.315,274.341c0,5.799-4.701,10.499-10.5,10.499s-10.498-4.7-10.498-10.499s4.699-26.999,10.498-26.999
			S202.315,268.542,202.315,274.341z"/>
		<path class="st21" d="M167.131,238.342c0,5.799-4.7,10.499-10.499,10.499s-10.5-4.7-10.5-10.499s4.701-26.999,10.5-26.999
			S167.131,232.543,167.131,238.342z"/>
		<path class="st21" d="M241.126,238.342c0,5.799-4.701,10.499-10.5,10.499s-10.499-4.7-10.499-10.499s4.7-26.999,10.499-26.999
			S241.126,232.543,241.126,238.342z"/>
	</g>
</g>
</svg>
