<?xml version="1.0" encoding="utf-8"?>
<!-- Generator: Adobe Illustrator 15.0.0, SVG Export Plug-In . SVG Version: 6.00 Build 0)  -->
<!DOCTYPE svg PUBLIC "-//W3C//DTD SVG 1.1//EN" "http://www.w3.org/Graphics/SVG/1.1/DTD/svg11.dtd">
<svg version="1.1" xmlns="http://www.w3.org/2000/svg" xmlns:xlink="http://www.w3.org/1999/xlink" x="0px" y="0px" width="400px"
	 height="300px" viewBox="0 0 400 300" style="enable-background:new 0 0 400 300;" xml:space="preserve">
<style type="text/css">
<![CDATA[
	.st0{display:inline;fill:#4DAA4D;}
	.st1{fill:#AF753C;}
	.st2{display:inline;fill:#EA5454;}
	.st3{fill:#4DAA4D;}
	.st4{display:inline;fill:#B7D7E5;}
	.st5{display:inline;fill:#545453;}
	.st6{fill:#EA5454;}
	.st7{fill:#EFE89E;}
	.st8{fill:#53A9EA;}
	.st9{fill:#59C159;}
	.st10{fill:#8DCEFF;}
	.st11{display:inline;fill:#2B274C;}
	.st12{display:inline;fill:#FF7C24;}
	.st13{fill:#2B274C;}
	.st14{fill:#C6CCCC;}
	.st15{fill:#FFB3D2;}
	.st16{fill:#FFCC33;}
	.st17{fill:#FFE045;}
	.st18{display:inline;}
	.st19{fill:#327CBF;}
	.st20{display:inline;fill:#D3E1E5;}
	.st21{display:inline;fill:#3D3D3B;}
	.st22{display:inline;fill:#76BEFF;}
	.st23{display:inline;fill:#A9B8BF;}
	.st24{display:none;}
	.st25{fill:#76BEFF;}
	.st26{fill:#A9B8BF;}
	.st27{display:inline;fill:#E1EEEF;}
]]>
</style>
<g id="レイヤー_1" class="st24">
</g>
<g id="レイヤー_2" class="st24">
	<g class="st18">
		
			<rect x="261.049" y="109.543" transform="matrix(-0.7136 -0.7006 0.7006 -0.7136 350.8646 447.2255)" class="st1" width="11.602" height="84.698"/>
		<polygon class="st1" points="261.033,154.373 272.635,154.267 272.283,123.979 260.682,124.086 		"/>
	</g>
	<circle class="st27" cx="187.124" cy="210.876" r="78.124"/>
	<circle class="st27" cx="187.124" cy="104.277" r="56.585"/>
	<circle class="st21" cx="162.371" cy="92.793" r="7.807"/>
	<circle class="st21" cx="210.945" cy="92.793" r="7.807"/>
	<circle class="st12" cx="186.658" cy="112.743" r="7.807"/>
	<circle class="st21" cx="186.658" cy="177.797" r="7.807"/>
	<circle class="st21" cx="186.658" cy="212.492" r="7.807"/>
	<circle class="st21" cx="186.658" cy="247.188" r="7.807"/>
	<polygon class="st2" points="217.482,56.477 158.684,56.477 165.933,12.176 210.232,12.176 	"/>
	<path class="st5" d="M187.453,139.176c-0.004,0-0.009,0-0.013,0c-14.536-0.007-20.357-12.275-20.598-12.797
		c-0.462-1.003-0.024-2.191,0.979-2.654c1.005-0.461,2.189-0.024,2.652,0.976c0.213,0.453,5.057,10.47,16.969,10.476
		c0.003,0,0.008,0,0.011,0c11.995,0,16.922-10.369,16.971-10.474c0.464-1.003,1.653-1.438,2.654-0.977
		c1.003,0.463,1.44,1.651,0.977,2.654C207.812,126.902,201.976,139.176,187.453,139.176z"/>
	<g class="st18">
		<path class="st3" d="M243.353,153.484c1.138,1.909-0.306,4.279-3.286,5.165c-34.409,10.206-71.044,10.206-105.453,0
			c-2.981-0.886-4.423-3.255-3.287-5.165c2.057-3.505,4.062-7.035,6.012-10.586c0.967-1.736,3.709-2.519,6.177-1.847
			c28.687,7.849,58.961,7.849,87.649,0c2.466-0.671,5.21,0.112,6.176,1.849C239.291,146.45,241.295,149.979,243.353,153.484z"/>
	</g>
	<g class="st18">
		<path class="st6" d="M303.515,144.949l24.524-26.257c7.855-7.764,7.932-20.427,0.168-28.284l0,0
			c-7.764-7.857-20.428-7.932-28.284-0.168l-24.524,26.258L303.515,144.949z"/>
		<path class="st6" d="M297.658,115.176l-0.324-20.455c-0.149-5.972-5.111-10.691-11.082-10.541l0,0
			c-5.971,0.148-10.689,5.11-10.54,11.082l0.325,20.455L297.658,115.176z"/>
	</g>
	<path class="st0" d="M140.658,152.176c0,0-16,12-19,44c-2.62,27.949,0,32,0,32h21c0,0-2-20,0-34s10-36,10-36L140.658,152.176z"/>
</g>
<g id="レイヤー_3" class="st24">
	<g class="st18">
		<path class="st14" d="M200.519,254.701c-2.025,0-3.668-1.641-3.668-3.668V24.236c0-2.026,1.643-3.668,3.668-3.668
			c2.026,0,3.668,1.642,3.668,3.668v226.797C204.187,253.061,202.545,254.701,200.519,254.701z"/>
		<g>
			<path class="st19" d="M251.162,124.893c0,5.355-0.407,10.615-1.189,15.753c0.023,0.02,0.052,0.039,0.076,0.06
				c11.523-9.714,29.83-15.995,50.447-15.995c11.066,0,21.461,1.812,30.504,4.991c-16.509-54.094-66.801-93.449-126.298-93.449
				c-0.965,0-1.92,0.038-2.881,0.058C231.452,54.8,251.162,87.549,251.162,124.893z"/>
			<path class="st19" d="M198.909,36.384c-56.074,2.421-103.059,39.826-119.731,90.932c6.961-1.678,14.507-2.605,22.396-2.605
				c19.785,0,37.437,5.785,49.013,14.834c0.044-0.033,0.091-0.065,0.134-0.098c-0.664-4.76-1.036-9.613-1.036-14.554
				C149.684,87.597,169.347,54.886,198.909,36.384z"/>
			<path class="st8" d="M149.684,124.893c0,4.941,0.372,9.794,1.036,14.554c11.582-8.991,29.172-14.736,48.882-14.736
				c20.573,0,38.842,6.256,50.371,15.936c0.782-5.139,1.189-10.398,1.189-15.753c0-37.344-19.71-70.093-49.341-88.582
				c-0.969,0.021-1.943,0.031-2.912,0.073C169.347,54.886,149.684,87.597,149.684,124.893z"/>
		</g>
		<path class="st19" d="M181.744,282c-13.295,0-24.113-10.816-24.113-24.111c0-8.422,4.281-16.094,11.453-20.525
			c2.299-1.418,5.31-0.707,6.731,1.592c1.421,2.297,0.707,5.309-1.591,6.73c-4.266,2.635-6.813,7.195-6.813,12.203
			c0,7.9,6.431,14.33,14.333,14.33c7.901,0,14.332-6.43,14.332-14.33v-30.906h9.781v30.906C205.857,271.184,195.041,282,181.744,282
			z"/>
	</g>
</g>
<g id="レイヤー_4" class="st24">
	<g class="st18">
		<rect x="49.658" class="st13" width="300" height="300"/>
		<polygon class="st7" points="303.204,155.605 308.399,177.611 330.407,182.806 308.399,188 303.204,210.006 298.011,188 
			276.003,182.806 298.011,177.611 		"/>
		<polygon class="st7" points="91.816,68.605 97.011,90.611 119.019,95.806 97.011,101 91.816,123.006 86.623,101 64.615,95.806 
			86.623,90.611 		"/>
		<polygon class="st7" points="209.956,10.945 214.011,28.123 231.19,32.178 214.011,36.232 209.956,53.41 205.901,36.232 
			188.723,32.178 205.901,28.123 		"/>
		<polygon class="st7" points="251.956,240.713 256.011,257.891 273.19,261.945 256.011,266 251.956,283.178 247.902,266 
			230.724,261.945 247.902,257.891 		"/>
		<polygon class="st7" points="89.011,237 93.066,254.178 110.245,258.232 93.066,262.287 89.011,279.465 84.957,262.287 
			67.777,258.232 84.957,254.178 		"/>
		<polygon class="st7" points="309.399,236.371 311.788,246.491 321.909,248.88 311.788,251.269 309.399,261.389 307.011,251.269 
			296.89,248.88 307.011,246.491 		"/>
		<polygon class="st7" points="161.744,58.714 164.132,68.834 174.253,71.223 164.132,73.611 161.744,83.731 159.355,73.611 
			149.234,71.223 159.355,68.834 		"/>
		<polygon class="st7" points="318.399,11.88 320.788,22 330.909,24.389 320.788,26.777 318.399,36.897 316.011,26.777 
			305.89,24.389 316.011,22 		"/>
		<polygon class="st7" points="91.521,13.714 93.91,23.834 104.031,26.223 93.91,28.611 91.521,38.731 89.132,28.611 79.011,26.223 
			89.132,23.834 		"/>
		<g>
			<path class="st15" d="M314.33,81.924c-31.254,2.917-60.789,13.171-86.465,29.37c-25.676,16.2-47.492,38.347-63.309,65.046
				c-1.794-1.151-3.587-2.303-5.38-3.454s-3.587-2.303-5.381-3.454c15.321-30.363,37.719-56.264,64.958-75.952
				c27.24-19.689,59.323-33.166,94.016-38.684c-2.268,4.923-4.394,9.793-6.387,14.605C309.143,73.439,311.795,77.614,314.33,81.924z
				"/>
			<path class="st9" d="M315.838,108.114c-27.934,0.407-55.01,7.55-79.175,20.381c-24.165,12.833-45.421,31.354-61.719,54.516
				c-1.793-1.151-3.586-2.304-5.379-3.454c-1.794-1.152-3.587-2.303-5.381-3.455c15.801-26.826,37.637-49.101,63.367-65.421
				c25.73-16.32,55.354-26.687,86.726-29.692c-2.023,4.74-3.913,9.423-5.675,14.047C311.13,99.262,313.544,103.623,315.838,108.114z
				"/>
			<path class="st10" d="M317.348,134.305c-24.616-2.103-49.231,1.929-71.887,11.392c-22.656,9.463-43.352,24.358-60.128,43.984
				c-1.793-1.151-3.586-2.303-5.379-3.454s-3.587-2.303-5.381-3.454c16.281-23.289,37.556-41.938,61.776-54.892
				c24.22-12.95,51.383-20.205,79.437-20.702c-1.783,4.558-3.436,9.056-4.965,13.49
				C313.115,125.084,315.294,129.632,317.348,134.305z"/>
		</g>
		<polygon class="st17" points="128.436,104.06 168.222,142.096 223.003,136.869 199.133,186.463 221.034,236.951 166.49,229.566 
			125.229,266 115.405,211.849 68.011,183.862 116.472,157.787 		"/>
	</g>
</g>
<g id="レイヤー_5" class="st24">
	<path class="st4" d="M274.811,71.48c-1.85-20.383-17.836-36.382-37.52-36.382c-7.808,0-15.066,2.521-21.096,6.822
		c-10.712-15.747-28.752-26.103-49.224-26.103c-32.876,0-59.519,26.65-59.519,59.525c0,0.287,0.082,0.562,0.09,0.863
		c-16.521,8.149-27.801,23.464-27.801,41.23c0,26.232,24.307,47.492,54.292,47.492h127.653c29.984,0,54.312-21.26,54.312-47.492
		C316,95.178,298.426,76.631,274.811,71.48z"/>
	<circle class="st20" cx="121" cy="193" r="14"/>
	<circle class="st20" cx="201" cy="185" r="14"/>
	<circle class="st20" cx="231" cy="227" r="14"/>
	<circle class="st20" cx="277" cy="193" r="14"/>
	<circle class="st20" cx="277" cy="258" r="14"/>
	<circle class="st20" cx="165" cy="227" r="14"/>
	<circle class="st20" cx="121" cy="258" r="14"/>
	<circle class="st20" cx="201" cy="271" r="14"/>
</g>
<g id="レイヤー_6" class="st24">
	<path class="st23" d="M274.88,71.478c-1.85-20.383-17.836-36.382-37.52-36.382c-7.809,0-15.066,2.521-21.096,6.822
		c-10.713-15.747-28.752-26.103-49.225-26.103c-32.875,0-59.518,26.65-59.518,59.525c0,0.288,0.082,0.562,0.09,0.864
		c-16.521,8.149-27.801,23.463-27.801,41.23c0,26.232,24.307,47.492,54.292,47.492h127.654c29.984,0,54.312-21.26,54.312-47.492
		C316.069,95.175,298.495,76.628,274.88,71.478z"/>
	<g class="st18">
		<path class="st25" d="M126.633,209.468c0,5.799-4.7,10.5-10.499,10.5c-5.799,0-10.5-4.701-10.5-10.5s4.701-26.998,10.5-26.998
			C121.933,182.47,126.633,203.669,126.633,209.468z"/>
		<path class="st25" d="M277.999,209.468c0,5.799-4.701,10.5-10.5,10.5s-10.5-4.701-10.5-10.5s4.701-26.998,10.5-26.998
			S277.999,203.669,277.999,209.468z"/>
		<path class="st25" d="M126.633,266.466c0,5.799-4.7,10.499-10.499,10.499c-5.799,0-10.5-4.7-10.5-10.499s4.701-26.999,10.5-26.999
			C121.933,239.467,126.633,260.667,126.633,266.466z"/>
		<path class="st25" d="M277.999,266.466c0,5.799-4.701,10.499-10.5,10.499s-10.5-4.7-10.5-10.499s4.701-26.999,10.5-26.999
			S277.999,260.667,277.999,266.466z"/>
		<path class="st25" d="M202.315,202.344c0,5.799-4.701,10.499-10.5,10.499s-10.498-4.7-10.498-10.499s4.699-26.999,10.498-26.999
			S202.315,196.545,202.315,202.344z"/>
		<path class="st25" d="M202.315,274.341c0,5.799-4.701,10.499-10.5,10.499s-10.498-4.7-10.498-10.499s4.699-26.999,10.498-26.999
			S202.315,268.542,202.315,274.341z"/>
		<path class="st25" d="M167.131,238.342c0,5.799-4.7,10.499-10.499,10.499s-10.5-4.7-10.5-10.499s4.701-26.999,10.5-26.999
			S167.131,232.543,167.131,238.342z"/>
		<path class="st25" d="M241.126,238.342c0,5.799-4.701,10.499-10.5,10.499s-10.499-4.7-10.499-10.499s4.7-26.999,10.499-26.999
			S241.126,232.543,241.126,238.342z"/>
	</g>
</g>
<g id="レイヤー_7" class="st24">
	<path class="st23" d="M274.854,71.981c-1.85-20.383-17.836-36.382-37.52-36.382c-7.809,0-15.066,2.521-21.096,6.822
		c-10.713-15.747-28.752-26.103-49.225-26.103c-32.875,0-59.518,26.65-59.518,59.525c0,0.288,0.082,0.562,0.09,0.864
		c-16.521,8.149-27.801,23.463-27.801,41.23c0,26.232,24.307,47.492,54.292,47.492H261.73c29.984,0,54.312-21.26,54.312-47.492
		C316.043,95.678,298.469,77.131,274.854,71.981z"/>
	<path class="st22" d="M121.505,207.687c-2.899,5.021-9.321,6.742-14.343,3.843c-5.022-2.899-6.742-9.321-3.843-14.343
		s17.569-21.031,22.592-18.132S124.404,202.664,121.505,207.687z"/>
	<path class="st22" d="M269.439,211.115c-2.898,5.021-9.32,6.742-14.342,3.844c-5.021-2.9-6.742-9.32-3.844-14.344
		c2.9-5.021,17.57-21.029,22.593-18.131C278.869,185.385,272.34,206.094,269.439,211.115z"/>
	<path class="st22" d="M96.326,273.362c-2.899,5.022-9.321,6.742-14.343,3.843s-6.742-9.32-3.843-14.342
		c2.899-5.022,17.57-21.031,22.592-18.132S99.225,268.34,96.326,273.362z"/>
	<path class="st22" d="M239.441,281.611c-2.899,5.022-9.32,6.742-14.342,3.844c-5.022-2.9-6.743-9.321-3.844-14.343
		c2.899-5.022,17.57-21.031,22.592-18.132C248.87,255.88,242.341,276.59,239.441,281.611z"/>
	<path class="st22" d="M193.758,203.991c-2.899,5.022-9.32,6.742-14.344,3.843c-5.021-2.899-6.741-9.32-3.842-14.342
		c2.899-5.022,17.57-21.031,22.592-18.132S196.657,198.97,193.758,203.991z"/>
	<path class="st22" d="M168.259,284.988c-2.899,5.021-9.321,6.742-14.343,3.842c-5.021-2.898-6.742-9.32-3.843-14.342
		s17.569-21.031,22.592-18.133C177.688,259.256,171.158,279.965,168.259,284.988z"/>
	<path class="st22" d="M151.777,242.99c-2.898,5.021-9.32,6.742-14.342,3.842c-5.021-2.898-6.742-9.32-3.844-14.342
		c2.9-5.021,17.57-21.031,22.592-18.131C161.207,217.258,154.678,237.969,151.777,242.99z"/>
	<path class="st22" d="M218.787,242.99c-2.898,5.021-9.32,6.742-14.342,3.842c-5.022-2.898-6.742-9.32-3.844-14.342
		c2.9-5.021,17.57-21.031,22.593-18.133C228.216,217.258,221.688,237.967,218.787,242.99z"/>
</g>
<g id="レイヤー_8" class="st24">
	<rect x="50.648" class="st11" width="300" height="300"/>
	<path class="st4" d="M297.635,48.402c-1.197-13.206-11.553-23.571-24.307-23.571c-5.058,0-9.762,1.633-13.666,4.42
		c-6.939-10.202-18.628-16.912-31.892-16.912c-21.3,0-38.56,17.266-38.56,38.565c0,0.186,0.054,0.363,0.057,0.559
		c-10.701,5.28-18.01,15.202-18.01,26.713c0,16.996,15.748,30.768,35.174,30.768h82.703c19.426,0,35.188-13.772,35.188-30.769
		C324.322,63.754,312.937,51.738,297.635,48.402z"/>
	<g class="st18">
		<path class="st25" d="M245.57,145.834c-1.152,2.811-4.367,4.154-7.177,3.001c-2.811-1.153-4.154-4.366-3.001-7.177
			c1.154-2.811,7.648-12.15,10.459-10.998C248.661,131.813,246.725,143.023,245.57,145.834z"/>
		<path class="st25" d="M219.888,179.537c-1.152,2.81-4.366,4.154-7.176,3c-2.812-1.152-4.154-4.366-3.001-7.177
			c1.154-2.811,7.647-12.151,10.459-10.998C222.98,165.516,221.042,176.725,219.888,179.537z"/>
		<path class="st25" d="M201.601,217.605c-1.153,2.811-4.368,4.154-7.177,3.001c-2.812-1.153-4.154-4.366-3.002-7.177
			c1.155-2.811,7.649-12.151,10.459-10.998C204.691,203.584,202.754,214.795,201.601,217.605z"/>
	</g>
	<g class="st18">
		<path class="st25" d="M257.946,189.422c-0.922,2.894-4.017,4.494-6.91,3.572c-2.896-0.922-4.494-4.016-3.573-6.909
			c0.923-2.896,6.639-12.731,9.532-11.811C259.89,175.196,258.868,186.526,257.946,189.422z"/>
		<path class="st25" d="M235.081,225.096c-0.921,2.895-4.015,4.494-6.909,3.572c-2.896-0.922-4.494-4.016-3.573-6.91
			c0.923-2.895,6.638-12.73,9.532-11.81S236.004,222.199,235.081,225.096z"/>
		<path class="st25" d="M219.94,264.521c-0.921,2.895-4.017,4.494-6.91,3.573c-2.895-0.922-4.495-4.016-3.573-6.909
			c0.923-2.896,6.638-12.732,9.533-11.811C221.884,250.297,220.862,261.627,219.94,264.521z"/>
	</g>
	<g class="st18">
		<path class="st25" d="M315.229,168.115c-0.812,2.927-3.845,4.644-6.771,3.832c-2.929-0.812-4.643-3.844-3.831-6.771
			c0.812-2.928,6.154-12.973,9.08-12.16C316.635,153.827,316.041,165.188,315.229,168.115z"/>
		<path class="st25" d="M293.724,204.625c-0.812,2.928-3.843,4.643-6.77,3.831c-2.93-0.812-4.643-3.843-3.831-6.771
			c0.812-2.928,6.153-12.972,9.08-12.16C295.131,190.337,294.537,201.697,293.724,204.625z"/>
		<path class="st25" d="M280.079,244.594c-0.811,2.928-3.844,4.644-6.771,3.832c-2.927-0.812-4.643-3.844-3.831-6.771
			c0.813-2.929,6.153-12.974,9.081-12.161C281.485,230.307,280.892,241.666,280.079,244.594z"/>
	</g>
	<g class="st18">
		<path class="st25" d="M120.059,178.823c-1.152,2.81-4.367,4.154-7.177,3.001c-2.811-1.153-4.154-4.367-3.001-7.178
			c1.154-2.811,7.648-12.15,10.459-10.998C123.149,164.803,121.213,176.012,120.059,178.823z"/>
		<path class="st25" d="M94.376,212.525c-1.152,2.811-4.366,4.154-7.176,3c-2.812-1.152-4.154-4.365-3.001-7.176
			c1.154-2.811,7.647-12.151,10.459-10.998C97.469,198.504,95.53,209.714,94.376,212.525z"/>
		<path class="st25" d="M76.089,250.594c-1.153,2.811-4.368,4.154-7.177,3.002c-2.812-1.154-4.154-4.367-3.002-7.178
			c1.155-2.811,7.649-12.15,10.459-10.998C79.18,236.573,77.242,247.783,76.089,250.594z"/>
	</g>
	<g class="st18">
		<path class="st25" d="M148.923,205.043c-1.091,2.834-4.275,4.25-7.108,3.158c-2.837-1.091-4.25-4.273-3.16-7.109
			c1.094-2.836,7.38-12.316,10.215-11.226S150.014,202.207,148.923,205.043z"/>
		<path class="st25" d="M123.989,239.303c-1.09,2.836-4.273,4.25-7.108,3.158c-2.837-1.091-4.249-4.273-3.158-7.108
			c1.092-2.836,7.378-12.317,10.213-11.227C126.771,225.217,125.081,236.467,123.989,239.303z"/>
		<path class="st25" d="M106.545,277.766c-1.091,2.834-4.275,4.25-7.109,3.158c-2.835-1.092-4.249-4.273-3.158-7.109
			c1.092-2.836,7.379-12.316,10.214-11.227C109.325,263.68,107.637,274.93,106.545,277.766z"/>
	</g>
	<g class="st18">
		<path class="st17" d="M285.991,97.627c0.347-0.427,0.45-0.364,0.23,0.141l-14.205,32.621c-0.22,0.505,0.032,1.045,0.56,1.201
			l23.584,6.971c0.527,0.155,0.722,0.665,0.431,1.132l-30.146,48.46c-0.291,0.467-0.39,0.421-0.221-0.103l11.636-36.004
			c0.169-0.523-0.127-1.069-0.658-1.212l-27.234-7.354c-0.531-0.145-0.683-0.611-0.336-1.037L285.991,97.627z"/>
	</g>
	<path class="st23" d="M206.744,87.602c-1.315-14.503-12.689-25.887-26.695-25.887c-5.555,0-10.72,1.793-15.008,4.854
		c-7.623-11.204-20.459-18.572-35.023-18.572c-23.393,0-42.348,18.962-42.348,42.353c0,0.205,0.059,0.4,0.062,0.615
		c-11.754,5.798-19.779,16.694-19.779,29.335c0,18.665,17.295,33.791,38.629,33.791h90.826c21.334,0,38.643-15.126,38.643-33.791
		C236.051,104.462,223.547,91.267,206.744,87.602z"/>
	<g class="st18">
		<path class="st17" d="M175.3,125.776c0.347-0.427,0.45-0.364,0.23,0.141l-24.699,56.716c-0.22,0.504,0.032,1.045,0.56,1.2
			l41.42,12.241c0.527,0.156,0.722,0.666,0.431,1.133l-51.968,83.537c-0.291,0.467-0.39,0.422-0.221-0.102l20.203-62.514
			c0.169-0.523-0.127-1.069-0.658-1.213l-47.63-12.86c-0.531-0.144-0.683-0.61-0.336-1.037L175.3,125.776z"/>
	</g>
</g>
<g id="レイヤー_9">
	<path class="st26" d="M274.811,71.981c-1.85-20.383-17.836-36.382-37.52-36.382c-7.808,0-15.066,2.521-21.096,6.822
		c-10.712-15.747-28.752-26.103-49.224-26.103c-32.876,0-59.519,26.65-59.519,59.525c0,0.288,0.082,0.562,0.09,0.864
		c-16.521,8.149-27.801,23.463-27.801,41.23c0,26.232,24.307,47.492,54.292,47.492h127.653c29.984,0,54.312-21.26,54.312-47.492
		C316,95.678,298.426,77.131,274.811,71.981z"/>
	<g>
		<path class="st17" d="M219.582,105.878c0.347-0.427,0.45-0.364,0.23,0.141l-28.228,64.818c-0.22,0.505,0.032,1.044,0.56,1.2
			l47.418,14.017c0.527,0.155,0.722,0.665,0.431,1.132l-59.307,95.336c-0.291,0.467-0.39,0.42-0.221-0.104l23.084-71.43
			c0.169-0.523-0.127-1.068-0.658-1.212l-54.49-14.713c-0.531-0.144-0.683-0.61-0.336-1.037L219.582,105.878z"/>
	</g>
	<g>
		<path class="st16" d="M277.955,178.446c0.347-0.427,0.45-0.364,0.23,0.141l-13.116,30.12c-0.22,0.504,0.032,1.045,0.56,1.2
			l21.733,6.424c0.527,0.155,0.722,0.665,0.431,1.132l-27.882,44.82c-0.291,0.467-0.39,0.42-0.221-0.104l10.746-33.252
			c0.169-0.523-0.127-1.068-0.658-1.212l-25.116-6.782c-0.531-0.144-0.683-0.61-0.336-1.037L277.955,178.446z"/>
	</g>
	<g>
		<path class="st16" d="M135.024,178.446c0.347-0.427,0.45-0.364,0.23,0.141l-13.116,30.12c-0.22,0.504,0.032,1.045,0.56,1.2
			l21.733,6.424c0.527,0.155,0.722,0.665,0.431,1.132l-27.882,44.82c-0.291,0.467-0.39,0.42-0.221-0.104l10.747-33.252
			c0.169-0.523-0.127-1.068-0.658-1.212l-25.117-6.782c-0.531-0.144-0.683-0.61-0.336-1.037L135.024,178.446z"/>
	</g>
</g>
</svg>
