<?xml version="1.0" encoding="utf-8"?>
<!-- Generator: Adobe Illustrator 15.0.0, SVG Export Plug-In . SVG Version: 6.00 Build 0)  -->
<!DOCTYPE svg PUBLIC "-//W3C//DTD SVG 1.1//EN" "http://www.w3.org/Graphics/SVG/1.1/DTD/svg11.dtd">
<svg version="1.1" id="レイヤー_1" xmlns="http://www.w3.org/2000/svg" xmlns:xlink="http://www.w3.org/1999/xlink" x="0px"
	 y="0px" width="400px" height="300px" viewBox="0 0 400 300" style="enable-background:new 0 0 400 300;" xml:space="preserve">
<style type="text/css">
<![CDATA[
	.st0{fill:#CC0000;}
]]>
</style>
<g>
	<g>
		<path class="st0" d="M191.229,40.885l-16.871,8.86l-22.173,10.104l-1.929,0.777l-18.799,7.15
			c-3.374,1.244-18.799,6.528-24.102,6.528c-5.302,0-20.004-5.907-20.004-13.057c0-2.021,2.169-4.042,3.374-4.042
			c0.241,0,3.134,0.311,3.615,0.311c9.4,0,32.537-5.751,44.105-9.326c32.055-9.948,43.864-19.586,43.864-21.14
			c0-0.311-3.855-3.109-3.855-3.73c0-6.218,9.881-7.617,17.353-7.617c9.399,0,14.942,2.798,14.942,5.44
			c0,5.907,0,7.15,25.065,15.544c4.338,1.399,22.655,7.928,26.752,9.171c20.969,6.062,26.029,7.461,41.695,9.948
			c3.615,0.622,5.784,2.332,5.784,3.73c0,2.021-14.942,11.658-20.485,11.658c-3.615,0-6.025-0.622-20.245-5.13
			c-18.559-5.751-50.854-18.653-62.182-26.114c-4.82-3.264-5.302-3.575-7.712-4.507L191.229,40.885z M270.281,119.227l-5.543,11.192
			c-2.17,4.352-8.195,16.321-17.595,16.321c-0.964,0-5.061,0-5.784-0.156c-4.338-1.088-4.82-1.088-5.784-1.088h-8.436l-36.393-0.622
			c-6.025-0.156-17.594-0.311-23.137-0.156c-0.241,0-13.738,2.643-16.39,2.643c-8.917,0-13.255-5.751-14.22-8.238l-4.097-9.948
			c-0.723-2.021-7.23-14.767-9.641-15.855c-0.964-0.466-5.543-2.021-6.267-2.487c-3.133-1.244-4.097-3.109-4.097-4.508
			c0-4.663,8.194-11.658,18.076-12.746c2.169-0.155,11.327-1.71,13.255-1.865c11.81-1.088,44.347-1.244,53.746-0.933l16.63,0.622
			l27.957,0.622c9.159,0.155,20.004,0.622,24.584,1.554c13.015,2.798,18.316,9.482,18.316,13.057c0,2.176-1.205,2.643-6.025,4.353
			c-0.481,0.155-4.338,2.332-5.062,3.108c-2.892,3.731-3.374,4.197-3.614,4.664L270.281,119.227z M160.139,65.6h1.446
			c3.615,0.933,4.097,1.088,7.23,1.088c13.255,0,17.111,0,28.921-0.156c3.615,0,25.788,0.933,30.85,0.933
			c7.472,0,15.666,0.156,22.173,1.555c2.651,0.622,2.893,3.419,2.893,4.352c0,5.13-4.338,8.083-12.051,8.083
			c-6.507,0-35.429-1.244-41.454-1.244c-12.051,0-37.839,1.399-42.177,1.71c-1.688,0.156-8.677,1.399-10.123,1.399
			c-2.41,0-5.784-2.642-5.784-4.197C142.062,73.838,151.221,65.6,160.139,65.6z M244.493,129.642l5.543-13.057
			c0.482-1.088,3.374-9.637,3.374-10.104c0-0.777-11.327-1.71-11.81-1.71l-25.307-0.777l-22.173-0.311l-26.511,0.156
			c-2.651,0-14.702,1.244-17.112,1.244c-2.892,0-5.543,0-5.543,2.487c0,1.399,5.784,13.834,8.194,19.43
			c1.446,3.575,2.651,3.886,7.472,3.886c4.338,0,23.137,0.311,26.993,0.311l43.141,0.156h12.533L244.493,129.642z"/>
		<path class="st0" d="M150.017,190.885c0,1.399,2.892,1.399,3.614,1.399h8.195c4.819,0.777,6.748,3.886,6.748,5.44
			c0,1.71-1.929,4.663-4.82,5.285c-1.205,0.311-10.123,1.243-12.292,1.555c0.964,4.974,6.749,8.083,8.194,8.704
			c8.194,4.353,9.159,4.819,9.159,6.995c0,3.73-5.303,5.907-8.436,5.907c-2.41,0-4.82-1.71-5.062-1.866
			c-4.098-2.953-4.579-3.264-6.507-4.041l-0.482,0.311l-0.482,3.265l-0.24,36.84l0.481,12.746c0,1.088,0.482,16.632-11.568,16.632
			c-5.784,0-14.461-8.86-14.461-15.078c0-1.709,5.303-9.481,5.303-9.792l3.133-14.301l0.964-13.99l-0.241-7.461h-0.964l-1.205,0.933
			l-7.23,9.482c-8.194,10.725-15.666,20.984-23.86,20.984c-6.507,0-10.363-6.528-10.363-9.948c0-6.995,0.964-7.617,7.953-11.503
			c13.015-6.995,30.609-25.337,30.609-33.886c-3.615-0.156-5.062,0-17.354,1.398c-1.205,0.155-6.748,1.244-7.712,1.244
			c-4.82,0-8.436-3.265-8.436-5.44c0-1.244,3.856-11.348,19.04-11.348c3.374,0,17.594,0.777,20.486,0.777
			c0.24-3.575-0.241-11.813-2.17-14.611c-0.481-0.467-2.892-2.487-3.133-3.109v-0.777c0-5.44,8.436-11.969,16.147-11.969
			c6.508,0,9.641,4.197,9.641,8.083v4.197L150.017,190.885z M197.014,202.854c-0.964,0.466-10.846,7.461-16.389,7.461
			c-8.918,0-8.918-6.218-8.918-11.191c0-3.575,1.205-4.042,12.533-8.239c4.338-1.554,13.737-6.217,16.63-8.394
			c1.687-1.243,6.748-6.684,6.748-8.549c0-0.467-0.482-0.622-2.893-2.021c-0.481-0.312-1.445-1.71-1.445-2.487
			c0-2.487,4.82-6.373,13.496-6.373c5.784,0,7.472,5.285,8.194,6.994h19.281c1.928,0,5.302,0,6.989-0.155
			c1.205-0.155,5.543-0.933,6.507-0.933c8.677,0,20.969,7.15,20.969,12.125c0,2.953-3.374,3.575-11.328,4.508
			c-1.445,0.155-1.928,0.155-4.097,2.021l-10.363,8.86c-0.724,0.777-9.4,8.238-9.4,8.394c0,2.332,20.005,9.481,21.21,9.793
			l19.521,4.974c0.482,0.155,19.763,3.265,21.691,3.575c1.446,0.312,4.82,0.933,4.82,2.643c0,1.399-9.399,13.679-19.522,13.679
			c-5.784,0-20.727-5.44-26.511-7.616c-2.41-0.777-16.148-8.083-18.076-9.171l-13.015-7.928l-6.025,5.44l-13.256,9.948
			c-1.688,1.243-15.666,8.549-15.906,8.549c-8.436,2.799-13.738,4.664-20.486,4.664c-5.062,0-17.835-3.42-17.835-10.104
			c0-2.486,0.482-2.486,6.748-3.264c20.969-2.643,54.951-23.006,54.951-24.249c0-1.088-3.134-3.265-3.374-3.575
			c-3.615-2.643-4.339-3.108-10.363-7.928L197.014,202.854z M265.702,284.771c-6.989,0.622-18.076,1.089-52.059,1.089
			c-18.799,0-19.763-4.819-20.968-10.726c-0.724-3.265-2.17-6.84-4.82-13.679c-0.482-1.244-3.856-6.685-3.856-7.772
			c0-6.995,14.461-11.969,15.184-12.124c2.41-0.933,13.979-1.555,17.353-1.555c3.856,0,20.245,0.311,23.619,0.311
			c2.41,0,18.559-0.311,19.04-0.311c9.882,0,17.354,0,21.691,1.71c6.267,2.331,13.256,6.684,13.256,9.948
			c0,1.554-6.267,6.994-6.749,8.394c-0.481,0.933-6.748,15.855-9.158,18.187c-2.169,2.021-2.169,2.177-2.41,3.265
			C272.45,283.528,270.281,284.306,265.702,284.771z M212.438,270.782c0.481,1.243,1.205,1.865,4.097,1.865
			c2.169,0,12.292,0.466,14.22,0.466c2.169,0,11.087-0.155,13.015-0.155c12.773,0,14.22,0,15.907-0.777
			c2.892-1.554,7.23-14.922,7.23-18.031c0-2.021-4.339-2.176-6.508-2.176c-8.676,0-32.536,0.155-39.044,0.311
			c-11.81,0.467-13.255,0.467-13.255,2.487C208.101,258.191,210.51,266.896,212.438,270.782z M245.698,183.113
			c-2.41-0.311-2.893-0.311-3.856-0.311c-2.651,0-14.943,0.155-17.354,0.155c-3.133,0-3.374,0-4.579,0.466
			c0,0.155-1.205,1.71-1.205,2.332c0,3.886,10.604,10.57,13.738,12.591C237.021,195.237,245.457,187.154,245.698,183.113z"/>
	</g>
	<path class="st0" d="M322.151,300.333H77.849c-15.447,0-28.013-12.566-28.013-28.013V28.018c0-15.446,12.566-28.013,28.013-28.013
		h244.302c15.446,0,28.013,12.566,28.013,28.013V272.32C350.164,287.767,337.598,300.333,322.151,300.333z M77.849,11.21
		c-9.268,0-16.808,7.54-16.808,16.808V272.32c0,9.268,7.54,16.808,16.808,16.808h244.302c9.269,0,16.808-7.54,16.808-16.808V28.018
		c0-9.268-7.539-16.808-16.808-16.808H77.849z"/>
</g>
</svg>
