<?xml version="1.0" encoding="utf-8"?>
<!-- Generator: Adobe Illustrator 15.0.0, SVG Export Plug-In . SVG Version: 6.00 Build 0)  -->
<!DOCTYPE svg PUBLIC "-//W3C//DTD SVG 1.1//EN" "http://www.w3.org/Graphics/SVG/1.1/DTD/svg11.dtd">
<svg version="1.1" id="レイヤー_1" xmlns="http://www.w3.org/2000/svg" xmlns:xlink="http://www.w3.org/1999/xlink" x="0px"
	 y="0px" width="400px" height="300px" viewBox="0 0 400 300" style="enable-background:new 0 0 400 300;" xml:space="preserve">
<style type="text/css">
<![CDATA[
	.st0{fill:#2A3BDB;}
]]>
</style>
<path class="st0" d="M322.151,300.333H77.849c-15.447,0-28.013-12.566-28.013-28.013V28.018c0-15.446,12.566-28.013,28.013-28.013
	h244.302c15.446,0,28.013,12.566,28.013,28.013V272.32C350.164,287.767,337.598,300.333,322.151,300.333z M77.849,11.21
	c-9.268,0-16.808,7.54-16.808,16.808V272.32c0,9.268,7.54,16.808,16.808,16.808h244.302c9.269,0,16.808-7.54,16.808-16.808V28.018
	c0-9.268-7.539-16.808-16.808-16.808H77.849z"/>
<g>
	<g>
		<path class="st0" d="M204.604,26.234l-19.37,0.634l-3.009,0.211l-15.797,1.479l-12.977,1.69
			c-2.257,0.317-12.225,2.008-13.353,2.219c-6.583,1.797-7.711,2.008-10.532,2.008c-5.266,0-8.087-1.796-8.087-4.754
			c0-2.43,7.711-9.51,14.293-9.51c0.564,0,3.385,0.317,3.949,0.317l22.568-2.113l4.325-0.423l28.022-1.268l4.889-0.211h19.748
			l25.953,2.008l31.783,2.324c1.316,0.106,7.522,0.634,8.274,0.74c0.753,0.106,1.505,0.317,1.505,0.951
			c0,2.113-11.096,8.77-20.122,8.77c-1.129,0-2.822-0.105-3.95-0.316l-29.526-3.276c-0.941-0.106-2.257-0.211-3.197-0.211
			s-1.692,0.211-3.009,1.163L212.691,39.23c-1.128,0.846-1.881,1.902-2.068,2.959l-0.94,8.453l-0.377,15.216l0.188,3.063
			l0.754,9.827l0.375,9.616c0.188,3.698-0.94,6.128-2.068,7.713c-1.316,1.795-6.206,4.332-8.275,4.332
			c-8.463,0-12.789-10.46-12.789-11.306c0-1.48,3.949-7.502,4.514-8.77c2.069-5.6,1.88-9.087,1.692-13.736l-0.564-10.672
			l-0.564-2.219c-1.692,0.529-6.958,4.333-8.275,4.967l-15.609,7.396c-4.89,2.325-10.531,4.333-15.609,5.917
			c-1.693,0.529-8.651,3.17-10.343,3.487c-2.257,0.528-4.138,0.739-6.207,0.739c-6.206,0-20.123-4.438-20.123-8.453
			c0-2.219,1.692-2.43,6.958-3.17c9.591-1.479,33.099-6.868,52.094-14.582c12.412-4.966,36.297-18.28,36.484-23.351L204.604,26.234z
			 M246.544,53.284l11.849,3.275l17.113,3.699c1.692,0.422,9.968,1.584,11.472,2.113c0.564,0.106,1.129,0.634,1.129,1.057
			c0,0.422-11.66,9.192-20.876,9.192c-6.018,0-13.352-3.064-15.421-4.015l-13.54-6.763l-2.634-1.056l-10.531-5.072
			c-1.88-0.952-2.257-0.952-5.83-1.797c-2.444-0.528-3.574-3.169-3.574-4.438c0-2.113,3.01-5.812,9.404-5.071
			c0.563,0.316,2.821,2.113,3.385,2.324c1.505,0.74,4.138,1.691,6.395,2.43L246.544,53.284z"/>
		<path class="st0" d="M195.39,121.013l-13.164,6.023l-17.302,6.868l-1.505,0.527l-14.669,4.861
			c-2.633,0.846-14.669,4.438-18.807,4.438s-15.609-4.015-15.609-8.875c0-1.374,1.692-2.748,2.633-2.748
			c0.188,0,2.444,0.211,2.82,0.211c7.334,0,25.39-3.909,34.417-6.339c25.013-6.762,34.228-13.312,34.228-14.37
			c0-0.211-3.009-2.113-3.009-2.536c0-4.226,7.71-5.178,13.541-5.178c7.334,0,11.66,1.902,11.66,3.699c0,4.015,0,4.86,19.56,10.566
			c3.385,0.951,17.678,5.389,20.875,6.234c16.361,4.121,20.312,5.072,32.534,6.762c2.822,0.423,4.515,1.585,4.515,2.537
			c0,1.374-11.66,7.925-15.986,7.925c-2.82,0-4.701-0.424-15.797-3.487c-14.48-3.911-39.682-12.68-48.521-17.751
			c-3.762-2.219-4.138-2.431-6.019-3.065L195.39,121.013z M257.075,174.269l-4.325,7.606c-1.692,2.959-6.395,11.094-13.729,11.094
			c-0.751,0-3.949,0-4.513-0.104c-3.386-0.738-3.762-0.738-4.514-0.738h-6.583l-28.397-0.424
			c-4.702-0.105-13.729-0.213-18.054-0.105c-0.188,0-10.72,1.796-12.789,1.796c-6.958,0-10.344-3.909-11.096-5.601l-3.197-6.763
			c-0.564-1.374-5.642-10.038-7.523-10.776c-0.752-0.317-4.325-1.375-4.889-1.692c-2.445-0.844-3.197-2.112-3.197-3.063
			c0-3.17,6.394-7.926,14.105-8.664c1.692-0.104,8.839-1.162,10.344-1.267c9.215-0.741,34.604-0.846,41.938-0.637l12.977,0.424
			l21.814,0.422c7.146,0.107,15.61,0.424,19.184,1.058c10.155,1.901,14.293,6.446,14.293,8.877c0,1.479-0.939,1.796-4.701,2.958
			c-0.377,0.105-3.386,1.585-3.95,2.112c-2.257,2.536-2.633,2.853-2.82,3.169L257.075,174.269z M171.129,137.813h1.129
			c2.82,0.635,3.197,0.741,5.642,0.741c10.343,0,13.353,0,22.568-0.106c2.82,0,20.123,0.634,24.071,0.634
			c5.831,0,12.226,0.106,17.304,1.057c2.067,0.422,2.256,2.323,2.256,2.958c0,3.487-3.385,5.495-9.402,5.495
			c-5.078,0-27.646-0.846-32.348-0.846c-9.403,0-29.526,0.952-32.912,1.162c-1.316,0.106-6.77,0.953-7.898,0.953
			c-1.881,0-4.514-1.798-4.514-2.854C157.024,143.414,164.171,137.813,171.129,137.813z M236.953,181.348l4.324-8.875
			c0.377-0.741,2.633-6.554,2.633-6.868c0-0.529-8.839-1.165-9.214-1.165l-19.747-0.528l-17.303-0.21l-20.687,0.105
			c-2.069,0-11.472,0.846-13.353,0.846c-2.256,0-4.325,0-4.325,1.69c0,0.951,4.514,9.403,6.395,13.207
			c1.128,2.431,2.068,2.642,5.83,2.642c3.385,0,18.054,0.212,21.063,0.212l33.664,0.105h9.78L236.953,181.348z"/>
		<path class="st0" d="M163.231,218.755c0,0.95,2.256,0.95,2.82,0.95h6.394c3.762,0.529,5.266,2.642,5.266,3.697
			c0,1.164-1.504,3.171-3.761,3.595c-0.941,0.212-7.899,0.844-9.592,1.056c0.752,3.382,5.266,5.495,6.395,5.917
			c6.394,2.958,7.146,3.275,7.146,4.755c0,2.535-4.138,4.017-6.583,4.017c-1.881,0-3.761-1.165-3.949-1.271
			c-3.197-2.007-3.573-2.218-5.078-2.746l-0.376,0.212l-0.376,2.218l-0.188,25.041l0.376,8.664c0,0.741,0.376,11.306-9.027,11.306
			c-4.513,0-11.284-6.021-11.284-10.247c0-1.162,4.137-6.446,4.137-6.656l2.445-9.722l0.752-9.51l-0.188-5.071h-0.752l-0.94,0.633
			l-5.642,6.444c-6.394,7.292-12.224,14.267-18.618,14.267c-5.078,0-8.086-4.438-8.086-6.763c0-4.755,0.752-5.179,6.206-7.818
			c10.156-4.755,23.885-17.223,23.885-23.036c-2.821-0.104-3.95,0-13.541,0.951c-0.941,0.106-5.266,0.846-6.019,0.846
			c-3.761,0-6.582-2.219-6.582-3.697c0-0.846,3.009-7.713,14.857-7.713c2.633,0,13.729,0.527,15.986,0.527
			c0.188-2.429-0.188-8.031-1.693-9.933c-0.376-0.316-2.257-1.689-2.444-2.113v-0.528c0-3.697,6.582-8.136,12.6-8.136
			c5.078,0,7.522,2.854,7.522,5.496v2.851L163.231,218.755z M199.903,226.89c-0.751,0.319-8.463,5.072-12.789,5.072
			c-6.958,0-6.958-4.226-6.958-7.606c0-2.431,0.941-2.749,9.78-5.601c3.385-1.058,10.72-4.227,12.976-5.705
			c1.316-0.846,5.266-4.543,5.266-5.813c0-0.316-0.375-0.422-2.257-1.372c-0.375-0.212-1.128-1.164-1.128-1.691
			c0-1.69,3.762-4.332,10.532-4.332c4.513,0,5.829,3.592,6.395,4.756h15.045c1.505,0,4.138,0,5.453-0.106
			c0.941-0.104,4.326-0.634,5.078-0.634c6.77,0,16.361,4.859,16.361,8.24c0,2.008-2.633,2.432-8.838,3.065
			c-1.129,0.105-1.505,0.105-3.198,1.373l-8.086,6.024c-0.564,0.526-7.335,5.599-7.335,5.704c0,1.585,15.609,6.444,16.55,6.657
			l15.234,3.382c0.375,0.104,15.42,2.219,16.924,2.43c1.13,0.211,3.762,0.634,3.762,1.796c0,0.951-7.334,9.299-15.233,9.299
			c-4.513,0-16.173-3.699-20.687-5.178c-1.881-0.528-12.601-5.495-14.105-6.233l-10.155-5.389l-4.701,3.697l-10.344,6.762
			c-1.316,0.847-12.225,5.812-12.413,5.812c-6.582,1.903-10.719,3.171-15.985,3.171c-3.949,0-13.917-2.325-13.917-6.868
			c0-1.691,0.376-1.691,5.266-2.22c16.362-1.796,42.879-15.638,42.879-16.482c0-0.74-2.444-2.218-2.633-2.431
			c-2.82-1.796-3.386-2.112-8.087-5.389L199.903,226.89z M253.503,282.573c-5.455,0.424-14.105,0.741-40.623,0.741
			c-14.669,0-15.421-3.275-16.362-7.292c-0.564-2.218-1.693-4.647-3.761-9.298c-0.377-0.846-3.01-4.543-3.01-5.283
			c0-4.755,11.284-8.136,11.848-8.24c1.881-0.636,10.908-1.058,13.541-1.058c3.01,0,15.798,0.212,18.431,0.212
			c1.88,0,14.48-0.212,14.857-0.212c7.711,0,13.54,0,16.926,1.162c4.89,1.585,10.344,4.544,10.344,6.764
			c0,1.055-4.891,4.754-5.267,5.705c-0.376,0.634-5.266,10.777-7.146,12.361c-1.692,1.374-1.692,1.479-1.881,2.22
			C258.768,281.728,257.075,282.257,253.503,282.573z M211.939,273.063c0.377,0.846,0.94,1.27,3.197,1.27
			c1.693,0,9.591,0.315,11.096,0.315c1.693,0,8.651-0.104,10.155-0.104c9.968,0,11.097,0,12.413-0.528
			c2.257-1.059,5.642-10.146,5.642-12.259c0-1.372-3.385-1.478-5.078-1.478c-6.771,0-25.389,0.105-30.466,0.211
			c-9.216,0.316-10.344,0.316-10.344,1.69C208.555,264.507,210.436,270.422,211.939,273.063z M237.893,213.472
			c-1.88-0.211-2.257-0.211-3.009-0.211c-2.069,0-11.659,0.105-13.541,0.105c-2.444,0-2.633,0-3.573,0.316
			c0,0.105-0.939,1.163-0.939,1.585c0,2.642,8.274,7.185,10.719,8.559C231.122,221.714,237.704,216.218,237.893,213.472z"/>
	</g>
</g>
</svg>
