<?xml version="1.0" encoding="utf-8"?>
<!-- Generator: Adobe Illustrator 15.0.0, SVG Export Plug-In . SVG Version: 6.00 Build 0)  -->
<!DOCTYPE svg PUBLIC "-//W3C//DTD SVG 1.1//EN" "http://www.w3.org/Graphics/SVG/1.1/DTD/svg11.dtd">
<svg version="1.1" id="レイヤー_1" xmlns="http://www.w3.org/2000/svg" xmlns:xlink="http://www.w3.org/1999/xlink" x="0px"
	 y="0px" width="400px" height="300px" viewBox="0 0 400 300" style="enable-background:new 0 0 400 300;" xml:space="preserve">
<style type="text/css">
<![CDATA[
	.st0{fill:#19A3F7;}
	.st1{fill:#FFAB17;}
	.st2{fill:#FFE045;}
	.st3{fill:#FFF9D9;}
	.st4{fill:#303030;}
]]>
</style>
<g>
	<g>
		<path class="st1" d="M332.607,243.099c0,21.812-17.684,39.51-39.508,39.51H106.9c-21.824,0-39.508-17.697-39.508-39.51V56.901
			c0-21.826,17.684-39.51,39.508-39.51H293.1c21.824,0,39.508,17.684,39.508,39.51V243.099z"/>
	</g>
	<g>
		<path class="st3" d="M106.9,270.608c-15.168,0-27.508-12.342-27.508-27.51V56.901c0-15.168,12.34-27.51,27.508-27.51H293.1
			c15.168,0,27.508,12.342,27.508,27.51v186.197c0,15.168-12.34,27.51-27.508,27.51H106.9z"/>
	</g>
	<path class="st2" d="M106.9,262.608c-10.757,0-19.508-8.752-19.508-19.51V56.901c0-10.758,8.751-19.51,19.508-19.51H293.1
		c10.757,0,19.508,8.752,19.508,19.51v186.197c0,10.758-8.751,19.51-19.508,19.51H106.9z"/>
	<path class="st4" d="M264.542,137.821c-0.065,0-0.131-0.001-0.197-0.004c-2.637-0.107-4.688-2.331-4.581-4.968
		c0.218-5.369-1.127-8.183-3.787-12c-2.377-3.412-5.52-5.366-8.849-5.5c-7.229-0.289-13.77,6.006-14.191,16.416
		c-0.106,2.637-2.339,4.683-4.969,4.581c-2.637-0.106-4.688-2.331-4.581-4.968c0.642-15.854,11.468-28.361,24.127-27.825
		c6.388,0.259,12.178,3.663,16.305,9.587c3.845,5.519,5.796,12.655,5.495,20.096C269.209,135.807,267.091,137.821,264.542,137.821z"
		/>
	<path class="st4" d="M137.602,137.821c0.065,0,0.131-0.001,0.197-0.004c2.637-0.107,4.688-2.331,4.581-4.968
		c-0.218-5.369,1.127-8.183,3.787-12c2.377-3.412,5.52-5.366,8.849-5.5c7.229-0.289,13.77,6.006,14.191,16.416
		c0.106,2.637,2.339,4.683,4.969,4.581c2.637-0.106,4.688-2.331,4.581-4.968c-0.642-15.854-11.468-28.361-24.127-27.825
		c-6.388,0.259-12.178,3.663-16.305,9.587c-3.845,5.519-5.796,12.655-5.495,20.096C132.935,135.807,135.053,137.821,137.602,137.821
		z"/>
	<polygon class="st4" points="263.818,113.14 277.259,108.181 268.574,129.004 	"/>
	<polygon class="st4" points="138.691,113.14 125.251,108.181 133.936,129.004 	"/>
	<path class="st4" d="M226.097,195.627H179.46c-3.313,0-6-2.687-6-6s2.687-6,6-6h46.637c3.313,0,6,2.687,6,6
		S229.41,195.627,226.097,195.627z"/>
	<path class="st0" d="M130.222,187.782c0,8.236-6.678,14.91-14.918,14.91s-14.918-6.674-14.918-14.91
		c0-8.24,6.678-35.797,14.918-35.797S130.222,179.542,130.222,187.782z"/>
</g>
</svg>
