<?xml version="1.0" encoding="utf-8"?>
<!-- Generator: Adobe Illustrator 15.0.0, SVG Export Plug-In . SVG Version: 6.00 Build 0)  -->
<!DOCTYPE svg PUBLIC "-//W3C//DTD SVG 1.1//EN" "http://www.w3.org/Graphics/SVG/1.1/DTD/svg11.dtd">
<svg version="1.1" id="レイヤー_1" xmlns="http://www.w3.org/2000/svg" xmlns:xlink="http://www.w3.org/1999/xlink" x="0px"
	 y="0px" width="400px" height="300px" viewBox="0 0 400 300" style="enable-background:new 0 0 400 300;" xml:space="preserve">
<style type="text/css">
<![CDATA[
	.st0{fill:#19A3F7;}
	.st1{fill:#FFAB17;}
	.st2{fill:#FFE045;}
	.st3{fill:#FFF9D9;}
	.st4{fill:#303030;}
	.st5{fill:#A2C0ED;}
]]>
</style>
<g>
	<g>
		<path class="st1" d="M332.607,243.099c0,21.812-17.684,39.51-39.508,39.51H106.9c-21.824,0-39.508-17.697-39.508-39.51V56.901
			c0-21.826,17.684-39.51,39.508-39.51H293.1c21.824,0,39.508,17.684,39.508,39.51V243.099z"/>
	</g>
	<g>
		<path class="st3" d="M106.9,270.608c-15.168,0-27.508-12.342-27.508-27.51V56.901c0-15.168,12.34-27.51,27.508-27.51H293.1
			c15.168,0,27.508,12.342,27.508,27.51v186.197c0,15.168-12.34,27.51-27.508,27.51H106.9z"/>
	</g>
	<path class="st2" d="M106.9,262.608c-10.757,0-19.508-8.752-19.508-19.51V56.901c0-10.758,8.751-19.51,19.508-19.51H293.1
		c10.757,0,19.508,8.752,19.508,19.51v186.197c0,10.758-8.751,19.51-19.508,19.51H106.9z"/>
	<path class="st0" d="M301.674,187.782c0,8.236-6.678,14.91-14.918,14.91s-14.918-6.674-14.918-14.91
		c0-8.24,6.678-35.797,14.918-35.797S301.674,179.542,301.674,187.782z"/>
	<g>
		<path class="st5" d="M312.607,115.93V56.901c0-10.758-8.751-19.51-19.508-19.51H106.9c-10.757,0-19.508,8.752-19.508,19.51v58.269
			c33.165-10.314,71.102-16.172,111.409-16.172C240.085,98.998,278.877,105.145,312.607,115.93z"/>
	</g>
	<path class="st4" d="M265.037,109.038c0,13.271-7.164,24.023-16.012,24.023S233,122.31,233,109.038s7.178-24.023,16.025-24.023
		S265.037,95.767,265.037,109.038z"/>
	<path class="st4" d="M165.045,109.038c0,13.271-7.178,24.023-16.025,24.023c-8.836,0-16.012-10.752-16.012-24.023
		s7.176-24.023,16.012-24.023C157.867,85.015,165.045,95.767,165.045,109.038z"/>
	<path class="st4" d="M227.207,228.757c-2.378,0-4.628-1.423-5.568-3.763c-0.096-0.233-7.836-18.892-21.565-18.892
		c-13.796,0-22.464,18.873-22.548,19.063c-1.332,3.035-4.87,4.417-7.905,3.083c-3.034-1.331-4.415-4.871-3.083-7.905
		c0.47-1.071,11.766-26.241,33.536-26.241c21.894,0,32.272,25.347,32.703,26.426c1.229,3.077-0.268,6.568-3.345,7.798
		C228.701,228.618,227.948,228.757,227.207,228.757z"/>
	<path class="st4" d="M119.09,105.183c-3.399,0-5.526-0.843-6.019-1.061l4.854-10.975c0,0-0.091-0.052-0.275-0.11
		c0.053,0.016,5.684,1.673,15.221-6.67c13.456-11.772,15.44-23.351,15.457-23.465c0.469-3.28,3.505-5.562,6.789-5.09
		c3.28,0.469,5.56,3.508,5.09,6.789c-0.092,0.644-2.449,15.938-19.434,30.798C131.614,103.412,124.017,105.183,119.09,105.183z"/>
	<path class="st4" d="M277.392,105.183c-4.924,0-12.518-1.771-21.677-9.784c-16.984-14.86-19.342-30.154-19.434-30.798
		c-0.469-3.28,1.81-6.32,5.09-6.789c3.26-0.475,6.292,1.788,6.782,5.044c0.096,0.581,2.107,11.826,15.463,23.511
		c9.248,8.091,14.886,6.802,14.933,6.782c3.031-1.343,6.574,0.026,7.916,3.056c1.342,3.03-0.026,6.574-3.057,7.916
		C282.917,104.339,280.789,105.183,277.392,105.183z"/>
</g>
</svg>
