<?xml version="1.0" encoding="utf-8"?>
<!-- Generator: Adobe Illustrator 15.0.0, SVG Export Plug-In . SVG Version: 6.00 Build 0)  -->
<!DOCTYPE svg PUBLIC "-//W3C//DTD SVG 1.1//EN" "http://www.w3.org/Graphics/SVG/1.1/DTD/svg11.dtd">
<svg version="1.1" id="レイヤー_1" xmlns="http://www.w3.org/2000/svg" xmlns:xlink="http://www.w3.org/1999/xlink" x="0px"
	 y="0px" width="400px" height="300px" viewBox="0 0 400 300" style="enable-background:new 0 0 400 300;" xml:space="preserve">
<style type="text/css">
<![CDATA[
	.st0{fill:#19A3F7;}
	.st1{fill:#FF5215;}
	.st2{fill:#FFAB17;}
	.st3{fill:#FFE045;}
	.st4{fill:#FFF9D9;}
	.st5{fill:#303030;}
]]>
</style>
<g>
	<g>
		<path class="st2" d="M332.607,243.099c0,21.812-17.684,39.51-39.508,39.51H106.9c-21.824,0-39.508-17.697-39.508-39.51V56.901
			c0-21.826,17.684-39.51,39.508-39.51H293.1c21.824,0,39.508,17.684,39.508,39.51V243.099z"/>
	</g>
	<g>
		<path class="st4" d="M106.9,270.608c-15.168,0-27.508-12.342-27.508-27.51V56.901c0-15.168,12.34-27.51,27.508-27.51H293.1
			c15.168,0,27.508,12.342,27.508,27.51v186.197c0,15.168-12.34,27.51-27.508,27.51H106.9z"/>
	</g>
	<path class="st3" d="M106.9,262.608c-10.757,0-19.508-8.752-19.508-19.51V56.901c0-10.758,8.751-19.51,19.508-19.51H293.1
		c10.757,0,19.508,8.752,19.508,19.51v186.197c0,10.758-8.751,19.51-19.508,19.51H106.9z"/>
	<g>
		<path class="st1" d="M141.681,175.688c0,0,6.018,54.057,58.664,54.057c52.635,0,56.29-54.057,56.29-54.057H141.681z"/>
		<path class="st5" d="M200.345,234.745c-29.539,0-45.324-16.021-53.365-29.461c-8.545-14.283-10.202-28.446-10.268-29.043
			c-0.157-1.413,0.295-2.827,1.243-3.887c0.949-1.061,2.304-1.666,3.726-1.666h114.954c1.385,0,2.707,0.574,3.653,1.586
			c0.945,1.012,1.429,2.37,1.335,3.751c-0.04,0.598-1.08,14.792-9.022,29.116C245.112,218.646,229.968,234.745,200.345,234.745z
			 M147.678,180.688c3.048,13.001,14.342,44.057,52.667,44.057c19.875,0,34.514-8.228,43.51-24.453
			c4.104-7.399,6.081-14.807,7.011-19.604H147.678z"/>
	</g>
	<path class="st5" d="M269.766,131.507c-3.042,0-5.774-2.12-6.434-5.214c-1.731-8.131-8.856-14.988-18.15-17.468
		c-4.81-1.285-9.752-1.29-14.288-0.015c-3.501,0.985-7.138-1.055-8.121-4.557c-0.984-3.501,1.056-7.137,4.557-8.121
		c6.812-1.916,14.158-1.926,21.25-0.032c14.032,3.745,24.88,14.52,27.634,27.449c0.758,3.557-1.512,7.054-5.068,7.812
		C270.682,131.459,270.221,131.507,269.766,131.507z"/>
	<path class="st5" d="M129.87,131.507c-0.454,0-0.916-0.047-1.378-0.146c-3.557-0.758-5.826-4.255-5.069-7.812
		c2.754-12.93,13.602-23.704,27.635-27.45c7.091-1.894,14.438-1.883,21.249,0.032c3.501,0.984,5.541,4.62,4.557,8.121
		c-0.984,3.5-4.617,5.542-8.121,4.557c-4.537-1.275-9.477-1.271-14.287,0.014c-9.295,2.48-16.419,9.337-18.151,17.469
		C135.645,129.387,132.912,131.507,129.87,131.507z"/>
	<path class="st0" d="M275.522,174.371c3.467,7.472,12.332,10.714,19.807,7.246c7.476-3.469,10.725-12.332,7.258-19.804
		c-3.469-7.476-21.125-29.663-28.6-26.194C266.513,139.087,272.054,166.896,275.522,174.371z"/>
	<path class="st0" d="M122.897,174.371c-3.467,7.472-12.333,10.714-19.808,7.246c-7.476-3.469-10.724-12.332-7.257-19.804
		c3.469-7.476,21.124-29.663,28.599-26.194C131.906,139.087,126.366,166.896,122.897,174.371z"/>
</g>
</svg>
