<?xml version="1.0" encoding="utf-8"?>
<!-- Generator: Adobe Illustrator 15.0.0, SVG Export Plug-In . SVG Version: 6.00 Build 0)  -->
<!DOCTYPE svg PUBLIC "-//W3C//DTD SVG 1.1//EN" "http://www.w3.org/Graphics/SVG/1.1/DTD/svg11.dtd">
<svg version="1.1" id="レイヤー_1" xmlns="http://www.w3.org/2000/svg" xmlns:xlink="http://www.w3.org/1999/xlink" x="0px"
	 y="0px" width="400px" height="300px" viewBox="0 0 400 300" style="enable-background:new 0 0 400 300;" xml:space="preserve">
<style type="text/css">
<![CDATA[
	.st0{fill:#19A3F7;}
	.st1{fill:#FF5215;}
	.st2{fill:#FFAB17;}
	.st3{fill:#FFE045;}
	.st4{fill:#FFF9D9;}
	.st5{fill:#FFFFFF;}
	.st6{fill:#303030;}
	.st7{fill:#A2C0ED;}
]]>
</style>
<g>
	<g>
		<path class="st2" d="M332.607,243.099c0,21.812-17.684,39.51-39.508,39.51H106.9c-21.824,0-39.508-17.697-39.508-39.51V56.901
			c0-21.826,17.684-39.51,39.508-39.51H293.1c21.824,0,39.508,17.684,39.508,39.51V243.099z"/>
	</g>
	<g>
		<path class="st4" d="M106.9,270.608c-15.168,0-27.508-12.342-27.508-27.51V56.901c0-15.168,12.34-27.51,27.508-27.51H293.1
			c15.168,0,27.508,12.342,27.508,27.51v186.197c0,15.168-12.34,27.51-27.508,27.51H106.9z"/>
	</g>
	<path class="st3" d="M106.9,262.608c-10.757,0-19.508-8.752-19.508-19.51V56.901c0-10.758,8.751-19.51,19.508-19.51H293.1
		c10.756,0,19.508,8.752,19.508,19.51v186.197c0,10.758-8.752,19.51-19.508,19.51H106.9z"/>
	<path class="st0" d="M301.674,187.782c0,8.236-6.678,14.91-14.918,14.91s-14.918-6.674-14.918-14.91
		c0-8.24,6.678-35.797,14.918-35.797S301.674,179.542,301.674,187.782z"/>
	<g>
		<path class="st7" d="M312.607,115.93V56.901c0-10.758-8.752-19.51-19.508-19.51H106.9c-10.757,0-19.508,8.752-19.508,19.51v58.269
			c33.165-10.314,71.102-16.172,111.409-16.172C240.084,98.998,278.877,105.146,312.607,115.93z"/>
	</g>
	<g>
		<ellipse class="st1" cx="200.295" cy="198.905" rx="22" ry="34"/>
		<path class="st6" d="M200.295,237.905c-15.14,0-27-17.131-27-39s11.86-39,27-39c15.141,0,27,17.131,27,39
			S215.436,237.905,200.295,237.905z M200.295,169.905c-9.215,0-17,13.28-17,29s7.785,29,17,29s17-13.28,17-29
			S209.51,169.905,200.295,169.905z"/>
	</g>
	<g>
		<circle class="st5" cx="148.295" cy="108.905" r="19"/>
		<path class="st6" d="M148.295,132.405c-12.958,0-23.5-10.542-23.5-23.5s10.542-23.5,23.5-23.5s23.5,10.542,23.5,23.5
			S161.253,132.405,148.295,132.405z M148.295,94.405c-7.995,0-14.5,6.505-14.5,14.5s6.505,14.5,14.5,14.5s14.5-6.505,14.5-14.5
			S156.29,94.405,148.295,94.405z"/>
	</g>
	<g>
		<circle class="st5" cx="248.295" cy="108.905" r="19"/>
		<path class="st6" d="M248.295,132.405c-12.958,0-23.5-10.542-23.5-23.5s10.542-23.5,23.5-23.5s23.5,10.542,23.5,23.5
			S261.253,132.405,248.295,132.405z M248.295,94.405c-7.995,0-14.5,6.505-14.5,14.5s6.505,14.5,14.5,14.5s14.5-6.505,14.5-14.5
			S256.29,94.405,248.295,94.405z"/>
	</g>
</g>
</svg>
