<?xml version="1.0" encoding="utf-8"?>
<!-- Generator: Adobe Illustrator 15.0.0, SVG Export Plug-In . SVG Version: 6.00 Build 0)  -->
<!DOCTYPE svg PUBLIC "-//W3C//DTD SVG 1.1//EN" "http://www.w3.org/Graphics/SVG/1.1/DTD/svg11.dtd">
<svg version="1.1" id="レイヤー_1" xmlns="http://www.w3.org/2000/svg" xmlns:xlink="http://www.w3.org/1999/xlink" x="0px"
	 y="0px" width="400px" height="300px" viewBox="0 0 400 300" style="enable-background:new 0 0 400 300;" xml:space="preserve">
<style type="text/css">
<![CDATA[
	.st0{fill:#19A3F7;}
	.st1{fill:#FFAB17;}
	.st2{fill:#FFE045;}
	.st3{fill:#FFF9D9;}
	.st4{fill:#303030;}
]]>
</style>
<g>
	<g>
		<path class="st1" d="M332.607,243.099c0,21.812-17.684,39.51-39.508,39.51H106.9c-21.824,0-39.508-17.697-39.508-39.51V56.9
			c0-21.825,17.684-39.509,39.508-39.509H293.1c21.824,0,39.508,17.684,39.508,39.509V243.099z"/>
	</g>
	<g>
		<path class="st3" d="M106.9,270.608c-15.168,0-27.508-12.342-27.508-27.51V56.9c0-15.168,12.34-27.509,27.508-27.509H293.1
			c15.168,0,27.508,12.341,27.508,27.509v186.198c0,15.168-12.34,27.51-27.508,27.51H106.9z"/>
	</g>
	<path class="st2" d="M106.9,262.608c-10.757,0-19.508-8.752-19.508-19.51V56.9c0-10.757,8.751-19.509,19.508-19.509H293.1
		c10.757,0,19.508,8.752,19.508,19.509v186.198c0,10.758-8.751,19.51-19.508,19.51H106.9z"/>
	<path class="st4" d="M260.739,115.197c0,6.47-5.244,11.714-11.714,11.714l0,0c-6.47,0-11.714-5.244-11.714-11.714l0,0
		c0-6.469,5.244-11.713,11.714-11.713l0,0C255.495,103.484,260.739,108.729,260.739,115.197L260.739,115.197z"/>
	<path class="st4" d="M156.744,115.197c0,6.47-5.245,11.714-11.714,11.714l0,0c-6.469,0-11.714-5.244-11.714-11.714l0,0
		c0-6.469,5.245-11.713,11.714-11.713l0,0C151.5,103.484,156.744,108.729,156.744,115.197L156.744,115.197z"/>
	<path class="st4" d="M239.455,241.522h-77.583c-3.207,0-5.807-2.6-5.807-5.807s2.6-5.807,5.807-5.807h77.583
		c3.207,0,5.807,2.6,5.807,5.807S242.662,241.522,239.455,241.522z"/>
	<path class="st0" d="M300.794,187.782c0,8.236-6.678,14.91-14.918,14.91s-14.918-6.674-14.918-14.91
		c0-8.24,6.678-35.797,14.918-35.797S300.794,179.542,300.794,187.782z"/>
</g>
</svg>
