<?xml version="1.0" encoding="utf-8"?>
<!-- Generator: Adobe Illustrator 15.0.0, SVG Export Plug-In . SVG Version: 6.00 Build 0)  -->
<!DOCTYPE svg PUBLIC "-//W3C//DTD SVG 1.1//EN" "http://www.w3.org/Graphics/SVG/1.1/DTD/svg11.dtd">
<svg version="1.1" id="レイヤー_1" xmlns="http://www.w3.org/2000/svg" xmlns:xlink="http://www.w3.org/1999/xlink" x="0px"
	 y="0px" width="400px" height="300px" viewBox="0 0 400 300" style="enable-background:new 0 0 400 300;" xml:space="preserve">
<style type="text/css">
<![CDATA[
	.st0{fill:#FFAB17;}
	.st1{fill:#FFE045;}
	.st2{fill:#FFF9D9;}
	.st3{fill:#303030;}
]]>
</style>
<g>
	<g>
		<path class="st0" d="M332.607,243.099c0,21.812-17.684,39.51-39.508,39.51H106.9c-21.824,0-39.508-17.697-39.508-39.51V56.901
			c0-21.826,17.684-39.51,39.508-39.51H293.1c21.824,0,39.508,17.684,39.508,39.51V243.099z"/>
	</g>
	<g>
		<path class="st2" d="M106.9,270.608c-15.168,0-27.508-12.342-27.508-27.51V56.901c0-15.168,12.34-27.51,27.508-27.51H293.1
			c15.168,0,27.508,12.342,27.508,27.51v186.197c0,15.168-12.34,27.51-27.508,27.51H106.9z"/>
	</g>
	<path class="st1" d="M106.9,262.608c-10.757,0-19.508-8.752-19.508-19.51V56.901c0-10.758,8.751-19.51,19.508-19.51H293.1
		c10.757,0,19.508,8.752,19.508,19.51v186.197c0,10.758-8.751,19.51-19.508,19.51H106.9z"/>
	<path class="st3" d="M165.993,131.778h-48.376c-3.313,0-6-2.687-6-6s2.687-6,6-6h48.376c3.313,0,6,2.687,6,6
		S169.307,131.778,165.993,131.778z"/>
	<path class="st3" d="M281.635,131.778h-48.376c-3.313,0-6-2.687-6-6s2.687-6,6-6h48.376c3.313,0,6,2.687,6,6
		S284.948,131.778,281.635,131.778z"/>
	<path class="st3" d="M190.649,230.305c-2.193,0-4.432-0.032-6.719-0.096c-3.57-0.1-10.318-1.508-20.206-3.645
		c-4.468-0.966-9.533-2.061-11.182-2.24c-3.615-0.396-6.225-3.646-5.83-7.262c0.396-3.616,3.654-6.218,7.262-5.83
		c2.217,0.242,6.207,1.093,12.532,2.46c6.043,1.306,15.175,3.279,17.791,3.353c38.37,1.069,54.497-7.471,61.265-14.824
		c5.511-5.987,5.158-11.66,5.151-11.715c-0.401-3.615,2.203-6.87,5.817-7.272c3.627-0.401,6.87,2.204,7.272,5.817
		c0.13,1.169,0.993,11.72-8.552,22.089C243.536,223.868,221.82,230.305,190.649,230.305z"/>
</g>
</svg>
