<?xml version="1.0" encoding="utf-8"?>
<!-- Generator: Adobe Illustrator 15.0.0, SVG Export Plug-In . SVG Version: 6.00 Build 0)  -->
<!DOCTYPE svg PUBLIC "-//W3C//DTD SVG 1.1//EN" "http://www.w3.org/Graphics/SVG/1.1/DTD/svg11.dtd">
<svg version="1.1" id="レイヤー_1" xmlns="http://www.w3.org/2000/svg" xmlns:xlink="http://www.w3.org/1999/xlink" x="0px"
	 y="0px" width="400px" height="300px" viewBox="0 0 400 300" style="enable-background:new 0 0 400 300;" xml:space="preserve">
<style type="text/css">
<![CDATA[
	.st0{fill:#FFAB17;}
	.st1{fill:#FFE045;}
	.st2{fill:#FFF9D9;}
	.st3{fill:#303030;}
]]>
</style>
<g>
	<g>
		<path class="st0" d="M332.607,243.099c0,21.812-17.684,39.51-39.508,39.51H106.9c-21.824,0-39.508-17.697-39.508-39.51V56.901
			c0-21.826,17.684-39.51,39.508-39.51H293.1c21.824,0,39.508,17.684,39.508,39.51V243.099z"/>
	</g>
	<g>
		<path class="st2" d="M106.9,270.608c-15.168,0-27.508-12.342-27.508-27.51V56.901c0-15.168,12.34-27.51,27.508-27.51H293.1
			c15.168,0,27.508,12.342,27.508,27.51v186.197c0,15.168-12.34,27.51-27.508,27.51H106.9z"/>
	</g>
	<path class="st1" d="M106.9,262.608c-10.757,0-19.508-8.752-19.508-19.51V56.901c0-10.758,8.751-19.51,19.508-19.51H293.1
		c10.757,0,19.508,8.752,19.508,19.51v186.197c0,10.758-8.751,19.51-19.508,19.51H106.9z"/>
	<path class="st3" d="M268.96,113.052c-3.042,0-5.774-2.12-6.434-5.214c-1.731-8.131-8.856-14.988-18.15-17.468
		c-4.81-1.285-9.752-1.29-14.288-0.015c-3.502,0.983-7.138-1.056-8.121-4.557c-0.984-3.501,1.056-7.137,4.557-8.121
		c6.811-1.915,14.158-1.926,21.25-0.032c14.032,3.745,24.88,14.52,27.634,27.449c0.758,3.557-1.512,7.054-5.068,7.812
		C269.876,113.004,269.415,113.052,268.96,113.052z"/>
	<path class="st3" d="M129.064,113.052c-0.454,0-0.916-0.047-1.378-0.146c-3.557-0.758-5.826-4.255-5.069-7.812
		c2.754-12.93,13.602-23.704,27.635-27.45c5.433-1.45,13.549-3.132,21.249-0.966c3.501,0.984,5.541,4.62,4.557,8.121
		c-0.983,3.5-4.618,5.54-8.121,4.557c-3.489-0.981-8.03-0.66-14.287,1.012c-9.295,2.48-16.419,9.337-18.151,17.469
		C134.839,110.932,132.106,113.052,129.064,113.052z"/>
	<path class="st3" d="M198.239,243.132c-45.422,0-58.013-33.047-58.527-34.453c-1.1-3.013,0.45-6.347,3.462-7.446
		c3.002-1.1,6.326,0.439,7.437,3.435c0.432,1.141,10.616,26.852,47.628,26.852c37.831,0,49.411-25.985,49.885-27.092
		c1.26-2.936,4.661-4.319,7.604-3.074c2.942,1.243,4.335,4.615,3.107,7.565C258.253,210.314,244.067,243.132,198.239,243.132z"/>
</g>
</svg>
