<?xml version="1.0" encoding="utf-8"?>
<!-- Generator: Adobe Illustrator 15.0.0, SVG Export Plug-In . SVG Version: 6.00 Build 0)  -->
<!DOCTYPE svg PUBLIC "-//W3C//DTD SVG 1.1//EN" "http://www.w3.org/Graphics/SVG/1.1/DTD/svg11.dtd">
<svg version="1.1" id="レイヤー_1" xmlns="http://www.w3.org/2000/svg" xmlns:xlink="http://www.w3.org/1999/xlink" x="0px"
	 y="0px" width="400px" height="300px" viewBox="0 0 400 300" style="enable-background:new 0 0 400 300;" xml:space="preserve">
<style type="text/css">
<![CDATA[
	.st0{fill:#F9AAB6;}
	.st1{fill:#FF5215;}
	.st2{fill:#FFAB17;}
	.st3{fill:#FFE045;}
	.st4{fill:#FFF9D9;}
	.st5{fill:#303030;}
]]>
</style>
<g>
	<g>
		<path class="st2" d="M332.607,243.099c0,21.812-17.684,39.51-39.508,39.51H106.9c-21.824,0-39.508-17.697-39.508-39.51V56.9
			c0-21.825,17.684-39.509,39.508-39.509H293.1c21.824,0,39.508,17.684,39.508,39.509V243.099z"/>
	</g>
	<g>
		<path class="st4" d="M106.9,270.608c-15.168,0-27.508-12.342-27.508-27.51V56.9c0-15.168,12.34-27.509,27.508-27.509H293.1
			c15.168,0,27.508,12.341,27.508,27.509v186.198c0,15.168-12.34,27.51-27.508,27.51H106.9z"/>
	</g>
	<path class="st3" d="M106.9,262.608c-10.757,0-19.508-8.752-19.508-19.51V56.9c0-10.757,8.751-19.509,19.508-19.509H293.1
		c10.757,0,19.508,8.752,19.508,19.509v186.198c0,10.758-8.751,19.51-19.508,19.51H106.9z"/>
	<path class="st0" d="M293.13,139.304c0,8.135-13.193,14.731-29.463,14.731c-16.268,0-29.451-6.597-29.451-14.731
		c0-8.134,13.184-14.731,29.451-14.731C279.937,124.572,293.13,131.17,293.13,139.304z"/>
	<path class="st0" d="M167.18,137.465c0,8.134-13.194,14.731-29.463,14.731s-29.451-6.598-29.451-14.731
		c0-8.135,13.183-14.731,29.451-14.731S167.18,129.33,167.18,137.465z"/>
	<path class="st5" d="M135.002,137.541c-2.364,0-4.648-1.276-5.829-3.512c-1.698-3.216-0.467-7.2,2.749-8.897l25.506-13.465
		l-25.75-15.023c-3.141-1.833-4.202-5.865-2.369-9.006c1.833-3.142,5.865-4.203,9.006-2.369l35.992,20.998
		c2.066,1.205,3.315,3.436,3.265,5.827c-0.051,2.391-1.394,4.567-3.509,5.684l-35.992,19.001
		C137.09,137.296,136.039,137.541,135.002,137.541z"/>
	<path class="st5" d="M263.92,137.541c-1.036,0-2.088-0.245-3.068-0.763l-35.992-19.001c-2.115-1.117-3.458-3.292-3.509-5.684
		s1.199-4.622,3.265-5.827l35.992-20.998c3.141-1.834,7.173-0.772,9.006,2.369c1.833,3.141,0.771,7.173-2.369,9.006l-25.751,15.023
		L267,125.132c3.216,1.698,4.446,5.681,2.749,8.897C268.568,136.265,266.284,137.541,263.92,137.541z"/>
	<g>
		<path class="st1" d="M223.272,228.774c0,8.287-6.718,15.004-15.005,15.004h-18.005c-8.287,0-15.004-6.717-15.004-15.004v-63.018
			c0-8.287,6.717-15.004,15.004-15.004h18.005c8.287,0,15.005,6.717,15.005,15.004V228.774z"/>
		<path class="st5" d="M208.268,248.778h-18.005c-11.03,0-20.004-8.974-20.004-20.004v-63.018c0-11.03,8.974-20.004,20.004-20.004
			h18.005c11.03,0,20.005,8.974,20.005,20.004v63.018C228.272,239.805,219.298,248.778,208.268,248.778z M190.263,155.753
			c-5.516,0-10.004,4.487-10.004,10.004v63.018c0,5.517,4.488,10.004,10.004,10.004h18.005c5.517,0,10.005-4.487,10.005-10.004
			v-63.018c0-5.517-4.488-10.004-10.005-10.004H190.263z"/>
	</g>
</g>
</svg>
