<?xml version="1.0" encoding="utf-8"?>
<!-- Generator: Adobe Illustrator 15.0.0, SVG Export Plug-In . SVG Version: 6.00 Build 0)  -->
<!DOCTYPE svg PUBLIC "-//W3C//DTD SVG 1.1//EN" "http://www.w3.org/Graphics/SVG/1.1/DTD/svg11.dtd">
<svg version="1.1" id="レイヤー_1" xmlns="http://www.w3.org/2000/svg" xmlns:xlink="http://www.w3.org/1999/xlink" x="0px"
	 y="0px" width="400px" height="300px" viewBox="0 0 400 300" style="enable-background:new 0 0 400 300;" xml:space="preserve">
<style type="text/css">
<![CDATA[
	.st0{fill:#FFAB17;}
	.st1{fill:#FFE045;}
	.st2{fill:#FFF9D9;}
	.st3{fill:#303030;}
]]>
</style>
<g>
	<g>
		<path class="st0" d="M332.607,243.099c0,21.812-17.684,39.51-39.508,39.51H106.9c-21.824,0-39.508-17.697-39.508-39.51V56.9
			c0-21.825,17.684-39.509,39.508-39.509H293.1c21.824,0,39.508,17.684,39.508,39.509V243.099z"/>
	</g>
	<g>
		<path class="st2" d="M106.9,270.608c-15.168,0-27.508-12.342-27.508-27.51V56.9c0-15.168,12.34-27.509,27.508-27.509H293.1
			c15.168,0,27.508,12.341,27.508,27.509v186.198c0,15.168-12.34,27.51-27.508,27.51H106.9z"/>
	</g>
	<path class="st1" d="M106.9,262.608c-10.757,0-19.508-8.752-19.508-19.51V56.9c0-10.757,8.751-19.509,19.508-19.509H293.1
		c10.757,0,19.508,8.752,19.508,19.509v186.198c0,10.758-8.751,19.51-19.508,19.51H106.9z"/>
	<path class="st3" d="M200.023,223.776c-23.84,0-38.526-11.276-46.647-20.737c-8.736-10.176-11.859-20.401-11.987-20.832
		c-0.918-3.072,0.828-6.308,3.9-7.227c3.068-0.916,6.296,0.821,7.222,3.883c0.425,1.386,10.644,33.3,47.513,33.3
		c37.889,0,49.625-33.157,49.739-33.492c1.034-3.036,4.332-4.658,7.369-3.623c3.035,1.034,4.658,4.333,3.623,7.369
		c-0.146,0.429-3.682,10.612-12.884,20.744C239.328,212.565,224.094,223.776,200.023,223.776z"/>
	<path class="st3" d="M273.515,129.022c-0.072,0-0.146-0.002-0.219-0.005c-2.93-0.118-5.208-2.589-5.09-5.519
		c0.242-5.965-1.252-9.091-4.207-13.332c-2.641-3.79-6.132-5.961-9.83-6.11c-8.031-0.321-15.297,6.672-15.766,18.236
		c-0.118,2.93-2.598,5.203-5.52,5.09c-2.929-0.118-5.207-2.59-5.089-5.52c0.712-17.612,12.739-31.506,26.803-30.91
		c7.097,0.287,13.528,4.069,18.113,10.65c4.271,6.131,6.438,14.059,6.104,22.325C278.699,126.784,276.347,129.022,273.515,129.022z"
		/>
	<path class="st3" d="M129.929,129.022c0.073,0,0.146-0.002,0.219-0.005c2.93-0.118,5.208-2.589,5.089-5.519
		c-0.241-5.965,1.253-9.091,4.208-13.332c2.641-3.79,6.132-5.961,9.831-6.11c8.03-0.321,15.297,6.672,15.765,18.236
		c0.118,2.93,2.598,5.203,5.519,5.09c2.929-0.118,5.208-2.59,5.089-5.52c-0.712-17.612-12.74-31.506-26.803-30.91
		c-7.096,0.287-13.529,4.069-18.113,10.65c-4.271,6.131-6.439,14.059-6.104,22.325C124.744,126.784,127.096,129.022,129.929,129.022
		z"/>
</g>
</svg>
