<?xml version="1.0" encoding="utf-8"?>
<!-- Generator: Adobe Illustrator 15.0.0, SVG Export Plug-In . SVG Version: 6.00 Build 0)  -->
<!DOCTYPE svg PUBLIC "-//W3C//DTD SVG 1.1//EN" "http://www.w3.org/Graphics/SVG/1.1/DTD/svg11.dtd">
<svg version="1.1" id="レイヤー_1" xmlns="http://www.w3.org/2000/svg" xmlns:xlink="http://www.w3.org/1999/xlink" x="0px"
	 y="0px" width="400px" height="300px" viewBox="0 0 400 300" style="enable-background:new 0 0 400 300;" xml:space="preserve">
<style type="text/css">
<![CDATA[
	.st0{fill:#FF8FEA;}
	.st1{fill:#FFAB17;}
	.st2{fill:#FFE045;}
	.st3{fill:#FFF9D9;}
	.st4{fill:#303030;}
	.st5{fill:#D4E6FC;}
]]>
</style>
<g>
	<g>
		<path class="st1" d="M332.607,243.099c0,21.812-17.684,39.51-39.508,39.51H106.9c-21.824,0-39.508-17.697-39.508-39.51V56.901
			c0-21.826,17.684-39.51,39.508-39.51H293.1c21.824,0,39.508,17.684,39.508,39.51V243.099z"/>
	</g>
	<g>
		<path class="st3" d="M106.9,270.608c-15.168,0-27.508-12.342-27.508-27.51V56.901c0-15.168,12.34-27.51,27.508-27.51H293.1
			c15.168,0,27.508,12.342,27.508,27.51v186.197c0,15.168-12.34,27.51-27.508,27.51H106.9z"/>
	</g>
	<path class="st2" d="M106.9,262.608c-10.757,0-19.508-8.752-19.508-19.51V56.901c0-10.758,8.751-19.51,19.508-19.51H293.1
		c10.757,0,19.508,8.752,19.508,19.51v186.197c0,10.758-8.751,19.51-19.508,19.51H106.9z"/>
	<path class="st4" d="M199.099,202.458c-22.105,0-30.816-21.176-31.176-22.077c-1.189-2.979,0.261-6.356,3.239-7.546
		c2.971-1.188,6.34,0.254,7.537,3.217c0.267,0.649,6.263,14.793,20.399,14.793c14.143,0,20.144-14.195,20.393-14.799
		c1.215-2.958,4.6-4.388,7.558-3.186c2.962,1.201,4.401,4.557,3.215,7.523C229.903,181.285,221.181,202.458,199.099,202.458z"/>
	<g>
		<g>
			<ellipse class="st5" cx="140.862" cy="109.643" rx="50.952" ry="31.625"/>
			<path class="st0" d="M140.861,146.268c-31.375,0-55.951-16.087-55.951-36.625s24.577-36.625,55.951-36.625
				c31.375,0,55.952,16.087,55.952,36.625S172.236,146.268,140.861,146.268z M140.861,83.018c-24.908,0-45.951,12.193-45.951,26.625
				s21.043,26.625,45.951,26.625c24.909,0,45.952-12.193,45.952-26.625S165.77,83.018,140.861,83.018z"/>
		</g>
		<g>
			<ellipse class="st5" cx="260.334" cy="109.643" rx="50.952" ry="31.625"/>
			<path class="st0" d="M260.334,146.268c-31.374,0-55.951-16.087-55.951-36.625s24.577-36.625,55.951-36.625
				c31.375,0,55.952,16.087,55.952,36.625S291.709,146.268,260.334,146.268z M260.334,83.018c-24.908,0-45.951,12.193-45.951,26.625
				s21.043,26.625,45.951,26.625s45.952-12.193,45.952-26.625S285.242,83.018,260.334,83.018z"/>
		</g>
		<g>
			<line class="st5" x1="191.813" y1="109.643" x2="209.383" y2="109.643"/>
			<rect x="191.813" y="104.643" class="st0" width="17.569" height="10"/>
		</g>
	</g>
	<path class="st4" d="M265.037,109.038c0,13.271-7.164,24.023-16.012,24.023S233,122.31,233,109.038s7.178-24.023,16.025-24.023
		S265.037,95.767,265.037,109.038z"/>
	<path class="st4" d="M165.045,109.038c0,13.271-7.178,24.023-16.025,24.023c-8.836,0-16.012-10.752-16.012-24.023
		s7.176-24.023,16.012-24.023C157.867,85.015,165.045,95.767,165.045,109.038z"/>
	<polygon class="st4" points="257.108,90.6 270.549,85.641 261.864,106.463 	"/>
	<polygon class="st4" points="140.089,90.6 126.648,85.641 135.333,106.463 	"/>
</g>
</svg>
