<?xml version="1.0" encoding="utf-8"?>
<!-- Generator: Adobe Illustrator 15.0.0, SVG Export Plug-In . SVG Version: 6.00 Build 0)  -->
<!DOCTYPE svg PUBLIC "-//W3C//DTD SVG 1.1//EN" "http://www.w3.org/Graphics/SVG/1.1/DTD/svg11.dtd">
<svg version="1.1" id="レイヤー_1" xmlns="http://www.w3.org/2000/svg" xmlns:xlink="http://www.w3.org/1999/xlink" x="0px"
	 y="0px" width="400px" height="300px" viewBox="0 0 400 300" style="enable-background:new 0 0 400 300;" xml:space="preserve">
<style type="text/css">
<![CDATA[
	.st0{fill:#19A3F7;}
	.st1{fill:#FF5215;}
	.st2{fill:#FFAB17;}
	.st3{fill:#FFE045;}
	.st4{fill:#FFF9D9;}
	.st5{fill:#303030;}
]]>
</style>
<g>
	<path class="st2" d="M332.607,243.099c0,21.812-17.684,39.51-39.508,39.51H106.9c-21.824,0-39.508-17.697-39.508-39.51V56.901
		c0-21.826,17.684-39.51,39.508-39.51H293.1c21.824,0,39.508,17.684,39.508,39.51V243.099z"/>
</g>
<g>
	<path class="st4" d="M106.9,270.608c-15.168,0-27.508-12.342-27.508-27.51V56.901c0-15.168,12.34-27.51,27.508-27.51H293.1
		c15.168,0,27.508,12.342,27.508,27.51v186.197c0,15.168-12.34,27.51-27.508,27.51H106.9z"/>
</g>
<path class="st3" d="M106.9,262.608c-10.757,0-19.508-8.752-19.508-19.51V56.901c0-10.758,8.751-19.51,19.508-19.51H293.1
	c10.757,0,19.508,8.752,19.508,19.51v186.197c0,10.758-8.751,19.51-19.508,19.51H106.9z"/>
<g>
	<path class="st1" d="M203.427,186.233c53.466,0.592,67.981,44.85,57.593,51.622c-12.973,8.46-34.07-8.153-57.12-8.861
		c-23.025,1.22-43.75,18.302-56.906,10.133C136.457,232.585,149.987,188.016,203.427,186.233z"/>
	<path class="st5" d="M155.354,246.331c-4.139,0-7.84-0.995-10.999-2.956c-5.277-3.276-7.023-11.042-4.559-20.266
		c3.981-14.899,21.829-40.484,63.462-41.873c0.073-0.003,0.146-0.004,0.222-0.003c41.655,0.461,60.065,25.644,64.377,40.45
		c2.669,9.167,1.095,16.969-4.108,20.36c-3.308,2.157-7.082,3.206-11.539,3.207h-0.002c-6.775,0-14.172-2.49-22.003-5.127
		c-8.481-2.855-17.251-5.808-26.251-6.125c-8.99,0.517-17.691,3.664-26.109,6.709C169.851,243.6,162.299,246.331,155.354,246.331z
		 M203.482,191.234c-35.703,1.233-50.757,22.231-54.024,34.456c-1.583,5.924-0.325,8.88,0.172,9.188
		c1.595,0.99,3.414,1.452,5.724,1.452c5.192,0,11.943-2.442,19.09-5.027c8.741-3.161,18.647-6.744,29.19-7.303
		c0.139-0.008,0.279-0.008,0.418-0.005c10.554,0.324,20.537,3.686,29.344,6.65c7.033,2.368,13.677,4.604,18.813,4.604
		c2.491-0.001,4.422-0.504,6.078-1.584c0.491-0.319,1.683-3.302-0.031-9.188C254.72,212.33,239.203,191.672,203.482,191.234z"/>
</g>
<path class="st0" d="M268.846,191.884c3.467,7.472,12.332,10.714,19.807,7.246c7.476-3.469,10.725-12.332,7.258-19.804
	c-3.469-7.476-21.125-29.663-28.6-26.194C259.836,156.6,265.377,184.408,268.846,191.884z"/>
<path class="st0" d="M131.187,191.884c-3.467,7.472-12.333,10.714-19.807,7.246c-7.475-3.469-10.724-12.332-7.257-19.804
	c3.469-7.476,21.125-29.663,28.599-26.194C140.196,156.6,134.655,184.408,131.187,191.884z"/>
<path class="st5" d="M134.583,149.575c-2.364,0-4.648-1.276-5.829-3.512c-1.698-3.216-0.467-7.2,2.749-8.897l25.506-13.465
	l-25.75-15.024c-3.141-1.833-4.202-5.865-2.369-9.006c1.832-3.142,5.864-4.203,9.006-2.369l35.992,20.999
	c2.066,1.205,3.315,3.436,3.265,5.827c-0.051,2.391-1.394,4.567-3.509,5.684l-35.992,19.001
	C136.671,149.33,135.62,149.575,134.583,149.575z"/>
<path class="st5" d="M263.501,149.575c-1.036,0-2.088-0.245-3.068-0.763l-35.992-19.001c-2.115-1.117-3.458-3.292-3.509-5.684
	s1.199-4.622,3.265-5.827l35.992-20.999c3.138-1.833,7.173-0.773,9.006,2.369c1.833,3.141,0.771,7.173-2.369,9.006l-25.751,15.024
	l25.507,13.465c3.216,1.698,4.446,5.681,2.749,8.897C268.149,148.299,265.865,149.575,263.501,149.575z"/>
</svg>
