<?xml version="1.0" encoding="utf-8"?>
<!-- Generator: Adobe Illustrator 15.0.0, SVG Export Plug-In . SVG Version: 6.00 Build 0)  -->
<!DOCTYPE svg PUBLIC "-//W3C//DTD SVG 1.1//EN" "http://www.w3.org/Graphics/SVG/1.1/DTD/svg11.dtd">
<svg version="1.1" id="レイヤー_1" xmlns="http://www.w3.org/2000/svg" xmlns:xlink="http://www.w3.org/1999/xlink" x="0px"
	 y="0px" width="400px" height="300px" viewBox="0 0 400 300" style="enable-background:new 0 0 400 300;" xml:space="preserve">
<style type="text/css">
<![CDATA[
	.st0{fill:#FFAB17;}
	.st1{fill:#FFE045;}
	.st2{fill:#FFF9D9;}
	.st3{fill:#303030;}
]]>
</style>
<g>
	<g>
		<path class="st0" d="M332.607,243.099c0,21.812-17.684,39.51-39.508,39.51H106.9c-21.824,0-39.508-17.697-39.508-39.51V56.901
			c0-21.826,17.684-39.51,39.508-39.51H293.1c21.824,0,39.508,17.684,39.508,39.51V243.099z"/>
	</g>
	<g>
		<path class="st2" d="M106.9,270.608c-15.168,0-27.508-12.342-27.508-27.51V56.901c0-15.168,12.34-27.51,27.508-27.51H293.1
			c15.168,0,27.508,12.342,27.508,27.51v186.197c0,15.168-12.34,27.51-27.508,27.51H106.9z"/>
	</g>
	<path class="st1" d="M106.9,262.608c-10.757,0-19.508-8.752-19.508-19.51V56.901c0-10.758,8.751-19.51,19.508-19.51H293.1
		c10.757,0,19.508,8.752,19.508,19.51v186.197c0,10.758-8.751,19.51-19.508,19.51H106.9z"/>
	<path class="st3" d="M199.021,239.779c-15.151,0-27.295-0.97-37.318-5.701c-2.9-1.369-4.141-4.83-2.772-7.73
		s4.831-4.142,7.73-2.771c8.068,3.81,18.771,4.59,32.36,4.59c10.428,0,20.069-1.61,28.656-4.785c3.007-1.115,6.349,0.425,7.46,3.433
		c1.112,3.008-0.425,6.348-3.433,7.46C221.825,237.927,210.828,239.779,199.021,239.779z"/>
	<path class="st3" d="M279.979,94.103h-42.72c-3.313,0-6-2.687-6-6s2.687-6,6-6h42.72c3.313,0,6,2.687,6,6
		S283.292,94.103,279.979,94.103z"/>
	<path class="st3" d="M163.979,94.103h-42.72c-3.313,0-6-2.687-6-6s2.687-6,6-6h42.72c3.313,0,6,2.687,6,6
		S167.292,94.103,163.979,94.103z"/>
	<g>
		<path class="st3" d="M197.19,191.653h16c0,0,16,8,32,12s44,4,44,4s-22,14-50,10c-17.819-2.546-42-14-42-14V191.653z"/>
		<path class="st3" d="M198.194,191.653h-16c0,0-16,8-32,12s-44,4-44,4s22,14,50,10c17.819-2.546,42-14,42-14V191.653z"/>
	</g>
</g>
</svg>
