<?xml version="1.0" encoding="utf-8"?>
<!-- Generator: Adobe Illustrator 15.0.0, SVG Export Plug-In . SVG Version: 6.00 Build 0)  -->
<!DOCTYPE svg PUBLIC "-//W3C//DTD SVG 1.1//EN" "http://www.w3.org/Graphics/SVG/1.1/DTD/svg11.dtd">
<svg version="1.1" id="レイヤー_1" xmlns="http://www.w3.org/2000/svg" xmlns:xlink="http://www.w3.org/1999/xlink" x="0px"
	 y="0px" width="400px" height="300px" viewBox="0 0 400 300" style="enable-background:new 0 0 400 300;" xml:space="preserve">
<style type="text/css">
<![CDATA[
	.st0{fill:#19A3F7;}
	.st1{fill:#FF5215;}
	.st2{fill:#FFAB17;}
	.st3{fill:#FFE045;}
	.st4{fill:#FFF9D9;}
	.st5{fill:#303030;}
]]>
</style>
<g>
	<g>
		<path class="st2" d="M332.607,243.099c0,21.812-17.684,39.51-39.508,39.51H106.9c-21.824,0-39.508-17.697-39.508-39.51V56.901
			c0-21.826,17.684-39.51,39.508-39.51H293.1c21.824,0,39.508,17.684,39.508,39.51V243.099z"/>
	</g>
	<g>
		<path class="st4" d="M106.9,270.608c-15.168,0-27.508-12.342-27.508-27.51V56.901c0-15.168,12.34-27.51,27.508-27.51H293.1
			c15.168,0,27.508,12.342,27.508,27.51v186.197c0,15.168-12.34,27.51-27.508,27.51H106.9z"/>
	</g>
	<path class="st3" d="M106.9,262.608c-10.757,0-19.508-8.752-19.508-19.51V56.901c0-10.758,8.751-19.51,19.508-19.51H293.1
		c10.757,0,19.508,8.752,19.508,19.51v186.197c0,10.758-8.751,19.51-19.508,19.51H106.9z"/>
	<g>
		<path class="st1" d="M170.532,173.688c0,0,3.031,36.155,29.554,36.155c26.517,0,28.357-36.155,28.357-36.155H170.532z"/>
		<path class="st5" d="M200.086,214.844c-24.617,0-33.355-26.647-34.536-40.737c-0.117-1.394,0.355-2.773,1.302-3.803
			s2.281-1.615,3.68-1.615h57.911c1.37,0,2.681,0.562,3.624,1.556c0.944,0.993,1.439,2.33,1.369,3.698
			C232.717,188.09,224.819,214.844,200.086,214.844z M176.355,178.688c1.858,9.046,7.516,26.155,23.73,26.155
			c16.176,0,21.206-17.188,22.729-26.155H176.355z"/>
	</g>
	<path class="st5" d="M264.413,135.484c-0.065,0-0.131-0.001-0.197-0.004c-2.637-0.106-4.688-2.331-4.581-4.968
		c0.218-5.369-1.127-8.184-3.787-12.001c-2.377-3.412-5.52-5.366-8.849-5.501c-7.229-0.289-13.77,6.007-14.191,16.416
		c-0.106,2.638-2.339,4.684-4.969,4.582c-2.637-0.107-4.688-2.331-4.581-4.969c0.642-15.854,11.468-28.36,24.127-27.824
		c6.388,0.259,12.178,3.663,16.305,9.588c3.845,5.518,5.796,12.654,5.495,20.096C269.08,133.47,266.962,135.484,264.413,135.484z"/>
	<path class="st5" d="M137.473,135.484c0.065,0,0.131-0.001,0.197-0.004c2.637-0.106,4.688-2.331,4.581-4.968
		c-0.218-5.369,1.127-8.184,3.787-12.001c2.377-3.412,5.52-5.366,8.849-5.501c7.229-0.289,13.77,6.007,14.191,16.416
		c0.106,2.638,2.339,4.684,4.969,4.582c2.637-0.107,4.688-2.331,4.581-4.969c-0.642-15.854-11.468-28.36-24.127-27.824
		c-6.388,0.259-12.178,3.663-16.305,9.588c-3.845,5.518-5.796,12.654-5.495,20.096C132.806,133.47,134.924,135.484,137.473,135.484z
		"/>
	<polygon class="st5" points="263.689,110.804 277.13,105.844 268.445,126.667 	"/>
	<polygon class="st5" points="138.562,110.804 125.122,105.844 133.807,126.667 	"/>
	<path class="st0" d="M271.565,177.372c3.467,7.472,12.332,10.714,19.807,7.246c7.476-3.469,10.725-12.332,7.258-19.804
		c-3.469-7.476-21.125-29.663-28.6-26.194C262.556,142.088,268.097,169.896,271.565,177.372z"/>
	<path class="st0" d="M133.941,177.372c-3.467,7.472-12.333,10.714-19.808,7.246c-7.476-3.469-10.724-12.332-7.257-19.804
		c3.469-7.476,21.124-29.663,28.599-26.194C142.95,142.088,137.41,169.896,133.941,177.372z"/>
</g>
</svg>
