<?xml version="1.0" encoding="utf-8"?>
<!-- Generator: Adobe Illustrator 15.0.0, SVG Export Plug-In . SVG Version: 6.00 Build 0)  -->
<!DOCTYPE svg PUBLIC "-//W3C//DTD SVG 1.1//EN" "http://www.w3.org/Graphics/SVG/1.1/DTD/svg11.dtd">
<svg version="1.1" id="レイヤー_1" xmlns="http://www.w3.org/2000/svg" xmlns:xlink="http://www.w3.org/1999/xlink" x="0px"
	 y="0px" width="400px" height="300px" viewBox="0 0 400 300" style="enable-background:new 0 0 400 300;" xml:space="preserve">
<style type="text/css">
<![CDATA[
	.st0{fill:#FFAB17;}
	.st1{fill:#FFE045;}
	.st2{fill:#FFF9D9;}
	.st3{fill:#303030;}
]]>
</style>
<g>
	<g>
		<path class="st0" d="M332.607,243.099c0,21.812-17.684,39.51-39.508,39.51H106.9c-21.824,0-39.508-17.697-39.508-39.51V56.901
			c0-21.826,17.684-39.51,39.508-39.51H293.1c21.824,0,39.508,17.684,39.508,39.51V243.099z"/>
	</g>
	<g>
		<path class="st2" d="M106.9,270.608c-15.168,0-27.508-12.342-27.508-27.51V56.901c0-15.168,12.34-27.51,27.508-27.51H293.1
			c15.168,0,27.508,12.342,27.508,27.51v186.197c0,15.168-12.34,27.51-27.508,27.51H106.9z"/>
	</g>
	<path class="st1" d="M106.9,262.608c-10.757,0-19.508-8.752-19.508-19.51V56.901c0-10.758,8.751-19.51,19.508-19.51H293.1
		c10.757,0,19.508,8.752,19.508,19.51v186.197c0,10.758-8.751,19.51-19.508,19.51H106.9z"/>
	<path class="st3" d="M259.637,203.774c-3.475,0-7.006-0.446-10.493-1.366c-7.101-1.875-13.476-5.527-18.437-10.563
		c-2.553-2.59-2.521-6.759,0.069-9.312c2.588-2.553,6.759-2.523,9.312,0.069c3.306,3.354,7.599,5.8,12.416,7.072
		c9.304,2.453,18.888,0.03,24.425-6.172c2.422-2.713,6.583-2.949,9.297-0.527c2.713,2.422,2.949,6.584,0.527,9.297
		C280.136,199.686,270.151,203.774,259.637,203.774z"/>
	<path class="st3" d="M141.418,203.774c-3.474,0-7.005-0.446-10.493-1.366c-7.1-1.875-13.475-5.527-18.437-10.563
		c-2.552-2.59-2.521-6.759,0.069-9.312c2.592-2.552,6.76-2.522,9.312,0.069c3.306,3.354,7.599,5.8,12.417,7.072
		c9.3,2.456,18.887,0.031,24.424-6.172c2.421-2.713,6.583-2.95,9.297-0.527c2.713,2.422,2.949,6.584,0.527,9.297
		C161.917,199.686,151.933,203.774,141.418,203.774z"/>
	<path class="st3" d="M201.24,257.995c-44.808,0-57.641-22.482-58.165-23.439c-1.541-2.812-0.51-6.342,2.303-7.883
		c2.792-1.528,6.292-0.524,7.85,2.243c0.496,0.841,10.796,17.466,48.013,17.466c38.221,0,49.868-17.023,50.346-17.748
		c1.699-2.72,5.264-3.521,7.982-1.821c2.721,1.698,3.53,5.31,1.832,8.029C260.81,235.787,246.423,257.995,201.24,257.995z"/>
</g>
</svg>
