<?xml version="1.0" encoding="utf-8"?>
<!-- Generator: Adobe Illustrator 15.0.0, SVG Export Plug-In . SVG Version: 6.00 Build 0)  -->
<!DOCTYPE svg PUBLIC "-//W3C//DTD SVG 1.1//EN" "http://www.w3.org/Graphics/SVG/1.1/DTD/svg11.dtd">
<svg version="1.1" id="レイヤー_1" xmlns="http://www.w3.org/2000/svg" xmlns:xlink="http://www.w3.org/1999/xlink" x="0px"
	 y="0px" width="400px" height="300px" viewBox="0 0 400 300" style="enable-background:new 0 0 400 300;" xml:space="preserve">
<style type="text/css">
<![CDATA[
	.st0{fill:#FFAB17;}
	.st1{fill:#FFE045;}
	.st2{fill:#FFF9D9;}
	.st3{fill:#303030;}
]]>
</style>
<g>
	<g>
		<path class="st0" d="M332.607,243.099c0,21.812-17.684,39.51-39.508,39.51H106.9c-21.824,0-39.508-17.697-39.508-39.51V56.901
			c0-21.826,17.684-39.51,39.508-39.51H293.1c21.824,0,39.508,17.684,39.508,39.51V243.099z"/>
	</g>
	<g>
		<path class="st2" d="M106.9,270.608c-15.168,0-27.508-12.342-27.508-27.51V56.901c0-15.168,12.34-27.51,27.508-27.51H293.1
			c15.168,0,27.508,12.342,27.508,27.51v186.197c0,15.168-12.34,27.51-27.508,27.51H106.9z"/>
	</g>
	<path class="st1" d="M106.9,262.608c-10.757,0-19.508-8.752-19.508-19.51V56.901c0-10.758,8.751-19.51,19.508-19.51H293.1
		c10.757,0,19.508,8.752,19.508,19.51v186.197c0,10.758-8.751,19.51-19.508,19.51H106.9z"/>
	<path class="st3" d="M227.259,235.778h-46.637c-3.313,0-6-2.687-6-6s2.687-6,6-6h46.637c3.313,0,6,2.687,6,6
		S230.572,235.778,227.259,235.778z"/>
	<path class="st3" d="M270.067,123.065c0,13.271-7.164,24.023-16.012,24.023s-16.025-10.752-16.025-24.023
		s7.178-24.023,16.025-24.023S270.067,109.794,270.067,123.065z"/>
	<path class="st3" d="M229.213,112.071c-1.753,0-3.43-0.769-4.575-2.12l-9.471-11.169c-2.144-2.527-1.832-6.313,0.695-8.457
		c2.529-2.142,6.315-1.832,8.457,0.696l7.43,8.761c8.668-0.943,33.683-4.101,48.273-10.439c3.04-1.32,6.573,0.074,7.894,3.112
		c1.32,3.04-0.073,6.574-3.112,7.894c-19.563,8.5-53.624,11.572-55.064,11.699C229.563,112.063,229.388,112.071,229.213,112.071z"/>
	<path class="st3" d="M128.776,123.065c0,13.271,7.164,24.023,16.012,24.023s16.025-10.752,16.025-24.023
		s-7.178-24.023-16.025-24.023S128.776,109.794,128.776,123.065z"/>
	<path class="st3" d="M169.63,112.071c-0.175,0-0.35-0.008-0.526-0.023c-1.44-0.127-35.5-3.199-55.064-11.699
		c-3.04-1.32-4.433-4.854-3.112-7.894c1.32-3.04,4.855-4.434,7.894-3.112c14.611,6.347,39.609,9.499,48.273,10.44l7.43-8.762
		c2.142-2.528,5.929-2.84,8.457-0.696c2.527,2.143,2.839,5.929,0.696,8.457l-9.471,11.169
		C173.061,111.302,171.384,112.071,169.63,112.071z"/>
</g>
</svg>
