<?xml version="1.0" encoding="utf-8"?>
<!-- Generator: Adobe Illustrator 15.0.0, SVG Export Plug-In . SVG Version: 6.00 Build 0)  -->
<!DOCTYPE svg PUBLIC "-//W3C//DTD SVG 1.1//EN" "http://www.w3.org/Graphics/SVG/1.1/DTD/svg11.dtd">
<svg version="1.1" id="レイヤー_1" xmlns="http://www.w3.org/2000/svg" xmlns:xlink="http://www.w3.org/1999/xlink" x="0px"
	 y="0px" width="400px" height="300px" viewBox="0 0 400 300" style="enable-background:new 0 0 400 300;" xml:space="preserve">
<style type="text/css">
<![CDATA[
	.st0{fill:#19A3F7;}
	.st1{fill:#FFAB17;}
	.st2{fill:#FFE045;}
	.st3{fill:#FFF9D9;}
	.st4{fill:#303030;}
]]>
</style>
<g>
	<g>
		<path class="st1" d="M332.607,243.099c0,21.812-17.684,39.51-39.508,39.51H106.9c-21.824,0-39.508-17.697-39.508-39.51V56.901
			c0-21.826,17.684-39.51,39.508-39.51H293.1c21.824,0,39.508,17.684,39.508,39.51V243.099z"/>
	</g>
	<g>
		<path class="st3" d="M106.9,270.608c-15.168,0-27.508-12.342-27.508-27.51V56.901c0-15.168,12.34-27.51,27.508-27.51H293.1
			c15.168,0,27.508,12.342,27.508,27.51v186.197c0,15.168-12.34,27.51-27.508,27.51H106.9z"/>
	</g>
	<path class="st2" d="M106.9,262.608c-10.757,0-19.508-8.752-19.508-19.51V56.901c0-10.758,8.751-19.51,19.508-19.51H293.1
		c10.757,0,19.508,8.752,19.508,19.51v186.197c0,10.758-8.751,19.51-19.508,19.51H106.9z"/>
	<path class="st4" d="M273.532,128.021c-3.042,0-5.774-2.12-6.434-5.214c-1.731-8.131-8.856-14.988-18.15-17.468
		c-4.811-1.285-9.751-1.29-14.288-0.015c-3.501,0.985-7.138-1.055-8.121-4.557c-0.984-3.501,1.056-7.137,4.557-8.121
		c6.812-1.916,14.159-1.926,21.25-0.032c14.032,3.745,24.88,14.52,27.634,27.449c0.758,3.557-1.512,7.054-5.068,7.812
		C274.448,127.973,273.987,128.021,273.532,128.021z"/>
	<path class="st4" d="M126.992,128.021c-0.454,0-0.916-0.047-1.378-0.146c-3.557-0.758-5.826-4.255-5.069-7.812
		c2.754-12.93,13.602-23.704,27.635-27.45c5.434-1.451,13.55-3.131,21.249-0.966c3.501,0.984,5.541,4.62,4.557,8.121
		c-0.984,3.501-4.617,5.542-8.121,4.557c-3.49-0.98-8.029-0.659-14.287,1.012c-9.295,2.48-16.419,9.337-18.151,17.469
		C132.767,125.901,130.034,128.021,126.992,128.021z"/>
	<path class="st0" d="M276.479,177.372c3.467,7.472,12.332,10.714,19.807,7.246c7.476-3.469,10.725-12.332,7.258-19.804
		c-3.469-7.476-21.125-29.663-28.6-26.194C267.47,142.088,273.011,169.896,276.479,177.372z"/>
	<path class="st0" d="M123.854,177.372c-3.467,7.472-12.333,10.714-19.807,7.246c-7.475-3.469-10.724-12.332-7.257-19.804
		c3.469-7.476,21.125-29.663,28.599-26.194C132.863,142.088,127.323,169.896,123.854,177.372z"/>
	<path class="st4" d="M199.795,239.622c-25.965,0-42.009-11.31-50.896-20.796c-9.654-10.307-13.127-20.734-13.271-21.173
		c-1.127-3.457,0.761-7.174,4.218-8.302c3.449-1.127,7.155,0.75,8.293,4.191c0.456,1.354,11.531,32.909,51.655,32.909
		c40.982,0,53.59-31.808,54.106-33.161c1.292-3.389,5.086-5.108,8.479-3.828c3.393,1.277,5.119,5.045,3.855,8.443
		C265.603,199.609,250.147,239.622,199.795,239.622z"/>
</g>
</svg>
