<?xml version="1.0" encoding="utf-8"?>
<!-- Generator: Adobe Illustrator 15.0.0, SVG Export Plug-In . SVG Version: 6.00 Build 0)  -->
<!DOCTYPE svg PUBLIC "-//W3C//DTD SVG 1.1//EN" "http://www.w3.org/Graphics/SVG/1.1/DTD/svg11.dtd">
<svg version="1.1" id="レイヤー_1" xmlns="http://www.w3.org/2000/svg" xmlns:xlink="http://www.w3.org/1999/xlink" x="0px"
	 y="0px" width="400px" height="300px" viewBox="0 0 400 300" style="enable-background:new 0 0 400 300;" xml:space="preserve">
<style type="text/css">
<![CDATA[
	.st0{fill:#FFAB17;}
	.st1{fill:#FFE045;}
	.st2{fill:#FFF9D9;}
	.st3{fill:#303030;}
]]>
</style>
<g>
	<g>
		<path class="st0" d="M332.607,243.099c0,21.812-17.684,39.51-39.508,39.51H106.9c-21.824,0-39.508-17.697-39.508-39.51V56.9
			c0-21.825,17.684-39.509,39.508-39.509H293.1c21.824,0,39.508,17.684,39.508,39.509V243.099z"/>
	</g>
	<g>
		<path class="st2" d="M106.9,270.608c-15.168,0-27.508-12.342-27.508-27.51V56.9c0-15.168,12.34-27.509,27.508-27.509H293.1
			c15.168,0,27.508,12.341,27.508,27.509v186.198c0,15.168-12.34,27.51-27.508,27.51H106.9z"/>
	</g>
	<path class="st1" d="M106.9,262.608c-10.757,0-19.508-8.752-19.508-19.51V56.9c0-10.757,8.751-19.509,19.508-19.509H293.1
		c10.757,0,19.508,8.752,19.508,19.509v186.198c0,10.758-8.751,19.51-19.508,19.51H106.9z"/>
	<path class="st3" d="M199.764,223.776c-55.34,0-70.632-39.531-71.256-41.214c-1.115-3.007,0.419-6.349,3.426-7.463
		c2.999-1.114,6.332,0.411,7.455,3.403c0.542,1.419,13.417,33.66,60.375,33.66c48.272,0,63.003-33.54,63.146-33.879
		c1.248-2.954,4.654-4.341,7.608-3.089c2.954,1.248,4.337,4.654,3.089,7.608C272.9,184.477,255.653,223.776,199.764,223.776z"/>
	<path class="st3" d="M268.96,131.44c-3.041,0-5.774-2.12-6.434-5.214c-1.732-8.132-8.856-14.989-18.15-17.469
		c-4.81-1.284-9.753-1.29-14.287-0.014c-3.494,0.98-7.137-1.054-8.122-4.556c-0.984-3.5,1.055-7.137,4.556-8.122
		c6.807-1.915,14.154-1.926,21.25-0.033c14.033,3.745,24.881,14.52,27.635,27.449c0.758,3.557-1.512,7.055-5.068,7.812
		C269.876,131.393,269.415,131.44,268.96,131.44z"/>
	<path class="st3" d="M129.064,131.44c-0.455,0-0.916-0.047-1.378-0.146c-3.557-0.758-5.826-4.255-5.068-7.812
		c2.754-12.929,13.602-23.704,27.635-27.449c7.092-1.894,14.441-1.882,21.25,0.033c3.501,0.985,5.541,4.622,4.556,8.122
		c-0.985,3.501-4.622,5.54-8.122,4.556c-4.535-1.277-9.475-1.271-14.287,0.013c-9.294,2.48-16.418,9.337-18.15,17.469
		C134.839,129.32,132.105,131.44,129.064,131.44z"/>
</g>
</svg>
