<?xml version="1.0" encoding="utf-8"?>
<!-- Generator: Adobe Illustrator 15.0.0, SVG Export Plug-In . SVG Version: 6.00 Build 0)  -->
<!DOCTYPE svg PUBLIC "-//W3C//DTD SVG 1.1//EN" "http://www.w3.org/Graphics/SVG/1.1/DTD/svg11.dtd">
<svg version="1.1" id="レイヤー_1" xmlns="http://www.w3.org/2000/svg" xmlns:xlink="http://www.w3.org/1999/xlink" x="0px"
	 y="0px" width="400px" height="300px" viewBox="0 0 400 300" style="enable-background:new 0 0 400 300;" xml:space="preserve">
<style type="text/css">
<![CDATA[
	.st0{fill:#FFAB17;}
	.st1{fill:#FFE045;}
	.st2{fill:#FFF9D9;}
	.st3{fill:#303030;}
]]>
</style>
<g>
	<g>
		<path class="st0" d="M332.607,243.099c0,21.812-17.684,39.51-39.508,39.51H106.9c-21.824,0-39.508-17.697-39.508-39.51V56.901
			c0-21.826,17.684-39.51,39.508-39.51H293.1c21.824,0,39.508,17.684,39.508,39.51V243.099z"/>
	</g>
	<g>
		<path class="st2" d="M106.9,270.608c-15.168,0-27.508-12.342-27.508-27.51V56.901c0-15.168,12.34-27.51,27.508-27.51H293.1
			c15.168,0,27.508,12.342,27.508,27.51v186.197c0,15.168-12.34,27.51-27.508,27.51H106.9z"/>
	</g>
	<path class="st1" d="M106.9,262.608c-10.757,0-19.508-8.752-19.508-19.51V56.901c0-10.758,8.751-19.51,19.508-19.51H293.1
		c10.757,0,19.508,8.752,19.508,19.51v186.197c0,10.758-8.751,19.51-19.508,19.51H106.9z"/>
	<path class="st3" d="M145.177,124.115c0,7.952-6.446,14.399-14.399,14.399l0,0c-7.953,0-14.4-6.447-14.4-14.399l0,0
		c0-7.952,6.447-14.398,14.4-14.398l0,0C138.73,109.717,145.177,116.163,145.177,124.115L145.177,124.115z"/>
	<path class="st3" d="M260.676,124.115c0,7.952-6.446,14.399-14.399,14.399l0,0c-7.953,0-14.4-6.447-14.4-14.399l0,0
		c0-7.952,6.447-14.398,14.4-14.398l0,0C254.229,109.717,260.676,116.163,260.676,124.115L260.676,124.115z"/>
	<path class="st3" d="M167.01,115.61h-48.376c-3.313,0-6-2.687-6-6s2.687-6,6-6h48.376c3.313,0,6,2.687,6,6
		S170.323,115.61,167.01,115.61z"/>
	<path class="st3" d="M282.651,115.61h-48.376c-3.313,0-6-2.687-6-6s2.687-6,6-6h48.376c3.313,0,6,2.687,6,6
		S285.965,115.61,282.651,115.61z"/>
	<path class="st3" d="M195.929,250.581c-19.794,0-23.949-7.872-23.949-14.477c0-5.675,3.603-10.228,7.824-13.487
		c-4.222-3.261-7.824-7.812-7.824-13.487c0-6.604,4.155-14.478,23.949-14.478c3.022,0,5.473,2.45,5.473,5.473
		s-2.45,5.473-5.473,5.473c-8.021,0-13.002,1.354-13.002,3.532c0,2.525,4.844,6.562,9.967,8.306
		c2.218,0.755,3.709,2.838,3.709,5.181c0,2.343-1.491,4.426-3.708,5.181c-5.124,1.745-9.968,5.782-9.968,8.308
		c0,2.178,4.982,3.531,13.002,3.531c3.022,0,5.473,2.45,5.473,5.473S198.951,250.581,195.929,250.581z"/>
</g>
</svg>
