<?xml version="1.0" encoding="utf-8"?>
<!-- Generator: Adobe Illustrator 15.0.0, SVG Export Plug-In . SVG Version: 6.00 Build 0)  -->
<!DOCTYPE svg PUBLIC "-//W3C//DTD SVG 1.1//EN" "http://www.w3.org/Graphics/SVG/1.1/DTD/svg11.dtd">
<svg version="1.1" id="レイヤー_1" xmlns="http://www.w3.org/2000/svg" xmlns:xlink="http://www.w3.org/1999/xlink" x="0px"
	 y="0px" width="400px" height="300px" viewBox="0 0 400 300" style="enable-background:new 0 0 400 300;" xml:space="preserve">
<style type="text/css">
<![CDATA[
	.st0{fill:#F9AAB6;}
	.st1{fill:#FF5215;}
	.st2{fill:#FFAB17;}
	.st3{fill:#FFE045;}
	.st4{fill:#FFF9D9;}
	.st5{fill:#FFFFFF;}
	.st6{fill:#303030;}
]]>
</style>
<g>
	<g>
		<path class="st2" d="M332.607,243.099c0,21.812-17.684,39.51-39.508,39.51H106.9c-21.824,0-39.508-17.697-39.508-39.51V56.901
			c0-21.826,17.684-39.51,39.508-39.51H293.1c21.824,0,39.508,17.684,39.508,39.51V243.099z"/>
	</g>
	<g>
		<path class="st4" d="M106.9,270.608c-15.168,0-27.508-12.342-27.508-27.51V56.901c0-15.168,12.34-27.51,27.508-27.51H293.1
			c15.168,0,27.508,12.342,27.508,27.51v186.197c0,15.168-12.34,27.51-27.508,27.51H106.9z"/>
	</g>
	<path class="st3" d="M106.9,262.608c-10.757,0-19.508-8.752-19.508-19.51V56.901c0-10.758,8.751-19.51,19.508-19.51H293.1
		c10.757,0,19.508,8.752,19.508,19.51v186.197c0,10.758-8.751,19.51-19.508,19.51H106.9z"/>
	<path class="st0" d="M286.017,159.487c0,8.134-13.193,14.73-29.461,14.73c-16.27,0-29.451-6.597-29.451-14.73
		c0-8.135,13.182-14.732,29.451-14.732C272.823,144.755,286.017,151.353,286.017,159.487z"/>
	<path class="st0" d="M170.046,157.647c0,8.134-13.195,14.73-29.463,14.73c-16.27,0-29.451-6.597-29.451-14.73
		c0-8.135,13.182-14.731,29.451-14.731C156.851,142.916,170.046,149.513,170.046,157.647z"/>
	<g>
		<path class="st1" d="M173.532,194.725c0,0,3.031,36.155,29.554,36.155c26.517,0,28.357-36.155,28.357-36.155H173.532z"/>
		<path class="st6" d="M203.086,235.88c-24.617,0-33.355-26.647-34.536-40.737c-0.117-1.395,0.355-2.773,1.302-3.803
			s2.281-1.615,3.68-1.615h57.911c1.37,0,2.681,0.562,3.624,1.556c0.944,0.993,1.439,2.33,1.369,3.698
			C235.717,209.126,227.819,235.88,203.086,235.88z M179.355,199.725c1.858,9.046,7.516,26.155,23.73,26.155
			c16.176,0,21.206-17.188,22.729-26.155H179.355z"/>
	</g>
	<g>
		<path class="st6" d="M280.452,123.03c0,20.189-10.918,36.561-24.381,36.561c-13.453,0-24.371-16.371-24.371-36.561
			c0-20.201,10.918-36.562,24.371-36.562C269.534,86.469,280.452,102.829,280.452,123.03z"/>
		<path class="st5" d="M265.823,100.952c0,5.868-4.121,10.621-9.191,10.621c-5.092,0-9.213-4.753-9.213-10.621
			c0-5.869,4.121-10.621,9.213-10.621C261.702,90.331,265.823,95.083,265.823,100.952z"/>
		<polygon class="st5" points="254.021,129.356 258.456,121.266 262.878,129.356 270.97,133.78 262.868,138.203 258.444,146.294 
			254.021,138.203 245.931,133.78 		"/>
		<polygon class="st6" points="274.13,103.643 287.57,98.684 278.886,119.506 		"/>
	</g>
	<g>
		<path class="st6" d="M167.325,123.03c0,20.189-10.918,36.561-24.381,36.561c-13.465,0-24.381-16.371-24.381-36.561
			c0-20.201,10.916-36.562,24.381-36.562C156.407,86.469,167.325,102.829,167.325,123.03z"/>
		<path class="st5" d="M152.696,100.952c0,5.868-4.121,10.621-9.201,10.621c-5.082,0-9.203-4.753-9.203-10.621
			c0-5.869,4.121-10.621,9.203-10.621C148.575,90.331,152.696,95.083,152.696,100.952z"/>
		<polygon class="st5" points="139.815,131.19 144.239,123.1 148.661,131.19 156.753,135.614 148.661,140.037 144.228,148.128 
			139.804,140.037 131.714,135.614 		"/>
		<polygon class="st6" points="125.15,103.643 111.71,98.684 120.395,119.506 		"/>
	</g>
</g>
</svg>
