<?xml version="1.0" encoding="utf-8"?>
<!-- Generator: Adobe Illustrator 15.0.0, SVG Export Plug-In . SVG Version: 6.00 Build 0)  -->
<!DOCTYPE svg PUBLIC "-//W3C//DTD SVG 1.1//EN" "http://www.w3.org/Graphics/SVG/1.1/DTD/svg11.dtd">
<svg version="1.1" id="レイヤー_1" xmlns="http://www.w3.org/2000/svg" xmlns:xlink="http://www.w3.org/1999/xlink" x="0px"
	 y="0px" width="400px" height="300px" viewBox="0 0 400 300" style="enable-background:new 0 0 400 300;" xml:space="preserve">
<style type="text/css">
<![CDATA[
	.st0{fill:#FF5215;}
	.st1{fill:#FFAB17;}
	.st2{fill:#FFE045;}
	.st3{fill:#FFF9D9;}
	.st4{fill:#303030;}
	.st5{fill:#3D3D3B;}
]]>
</style>
<g>
	<g>
		<path class="st1" d="M332.607,243.099c0,21.812-17.684,39.51-39.508,39.51H106.9c-21.824,0-39.508-17.697-39.508-39.51V56.901
			c0-21.826,17.684-39.51,39.508-39.51H293.1c21.824,0,39.508,17.684,39.508,39.51V243.099z"/>
	</g>
	<g>
		<path class="st3" d="M106.9,270.608c-15.168,0-27.508-12.342-27.508-27.51V56.901c0-15.168,12.34-27.51,27.508-27.51H293.1
			c15.168,0,27.508,12.342,27.508,27.51v186.197c0,15.168-12.34,27.51-27.508,27.51H106.9z"/>
	</g>
	<path class="st2" d="M106.9,262.608c-10.757,0-19.508-8.752-19.508-19.51V56.901c0-10.758,8.751-19.51,19.508-19.51H293.1
		c10.757,0,19.508,8.752,19.508,19.51v186.197c0,10.758-8.751,19.51-19.508,19.51H106.9z"/>
	<path class="st5" d="M265.037,117.617c0,13.271-7.164,24.023-16.012,24.023S233,130.889,233,117.617s7.178-24.023,16.025-24.023
		S265.037,104.346,265.037,117.617z"/>
	<path class="st5" d="M165.045,117.617c0,13.271-7.178,24.023-16.025,24.023c-8.836,0-16.012-10.752-16.012-24.023
		s7.176-24.023,16.012-24.023C157.867,93.594,165.045,104.346,165.045,117.617z"/>
	<g>
		<path class="st0" d="M147.857,187.724c0,0,6.018,54.057,58.664,54.057c52.635,0,56.29-54.057,56.29-54.057H147.857z"/>
		<path class="st4" d="M206.521,246.78c-29.539,0-45.324-16.021-53.365-29.461c-8.545-14.283-10.202-28.446-10.268-29.043
			c-0.157-1.413,0.295-2.827,1.243-3.887c0.949-1.061,2.304-1.666,3.726-1.666h114.954c1.385,0,2.707,0.574,3.652,1.586
			c0.946,1.012,1.43,2.37,1.336,3.751c-0.04,0.598-1.08,14.792-9.022,29.116C251.289,230.682,236.145,246.78,206.521,246.78z
			 M153.855,192.724c3.048,13.001,14.342,44.057,52.667,44.057c19.875,0,34.514-8.228,43.51-24.453
			c4.104-7.399,6.081-14.807,7.011-19.604H153.855z"/>
	</g>
	<path class="st4" d="M234.552,99.799c-2.718,0-5.18-1.858-5.833-4.618c-0.765-3.224,1.229-6.458,4.454-7.222l47.071-11.158
		c3.223-0.766,6.458,1.23,7.222,4.455c0.765,3.224-1.229,6.458-4.454,7.222L235.94,99.636
		C235.476,99.747,235.01,99.799,234.552,99.799z"/>
	<path class="st4" d="M164.991,99.799c-0.458,0-0.923-0.053-1.389-0.163l-47.071-11.158c-3.225-0.765-5.219-3.998-4.455-7.222
		c0.765-3.224,3.997-5.22,7.222-4.455l47.071,11.158c3.225,0.765,5.219,3.998,4.455,7.222
		C170.17,97.941,167.708,99.799,164.991,99.799z"/>
</g>
</svg>
