<?xml version="1.0" encoding="utf-8"?>
<!-- Generator: Adobe Illustrator 15.0.0, SVG Export Plug-In . SVG Version: 6.00 Build 0)  -->
<!DOCTYPE svg PUBLIC "-//W3C//DTD SVG 1.1//EN" "http://www.w3.org/Graphics/SVG/1.1/DTD/svg11.dtd">
<svg version="1.1" id="レイヤー_1" xmlns="http://www.w3.org/2000/svg" xmlns:xlink="http://www.w3.org/1999/xlink" x="0px"
	 y="0px" width="400px" height="300px" viewBox="0 0 400 300" style="enable-background:new 0 0 400 300;" xml:space="preserve">
<style type="text/css">
<![CDATA[
	.st0{fill:#F9AAB6;}
	.st1{fill:#FFAB17;}
	.st2{fill:#FFE045;}
	.st3{fill:#FFF9D9;}
	.st4{fill:#303030;}
]]>
</style>
<g>
	<g>
		<path class="st1" d="M332.607,243.099c0,21.812-17.684,39.51-39.508,39.51H106.9c-21.824,0-39.508-17.697-39.508-39.51V56.9
			c0-21.825,17.684-39.509,39.508-39.509H293.1c21.824,0,39.508,17.684,39.508,39.509V243.099z"/>
	</g>
	<g>
		<path class="st3" d="M106.9,270.608c-15.168,0-27.508-12.342-27.508-27.51V56.9c0-15.168,12.34-27.509,27.508-27.509H293.1
			c15.168,0,27.508,12.341,27.508,27.509v186.198c0,15.168-12.34,27.51-27.508,27.51H106.9z"/>
	</g>
	<path class="st2" d="M106.9,262.608c-10.757,0-19.508-8.752-19.508-19.51V56.9c0-10.757,8.751-19.509,19.508-19.509H293.1
		c10.757,0,19.508,8.752,19.508,19.509v186.198c0,10.758-8.751,19.51-19.508,19.51H106.9z"/>
	<path class="st4" d="M197.886,199.682c-22.105,0-30.816-21.176-31.176-22.077c-1.189-2.979,0.261-6.356,3.239-7.546
		c2.972-1.188,6.34,0.254,7.537,3.217c0.267,0.649,6.263,14.793,20.399,14.793c14.143,0,20.144-14.195,20.393-14.799
		c1.215-2.958,4.601-4.39,7.558-3.186c2.962,1.201,4.401,4.557,3.215,7.523C228.69,178.509,219.968,199.682,197.886,199.682z"/>
	<path class="st0" d="M292.12,139.304c0,8.135-13.193,14.731-29.463,14.731c-16.268,0-29.451-6.597-29.451-14.731
		c0-8.134,13.184-14.731,29.451-14.731C278.927,124.572,292.12,131.17,292.12,139.304z"/>
	<path class="st0" d="M166.17,137.465c0,8.134-13.194,14.731-29.463,14.731s-29.451-6.598-29.451-14.731
		c0-8.135,13.183-14.731,29.451-14.731S166.17,129.33,166.17,137.465z"/>
	<path class="st4" d="M165.026,115.197c0,8.837-7.164,16-16,16l0,0c-8.836,0-16-7.163-16-16l0,0c0-8.836,7.164-16,16-16l0,0
		C157.863,99.197,165.026,106.361,165.026,115.197L165.026,115.197z"/>
	<path class="st4" d="M265.019,115.197c0,8.837-7.164,16-16,16l0,0c-8.836,0-16-7.163-16-16l0,0c0-8.836,7.164-16,16-16l0,0
		C257.854,99.197,265.019,106.361,265.019,115.197L265.019,115.197z"/>
</g>
</svg>
