<?xml version="1.0" encoding="utf-8"?>
<!-- Generator: Adobe Illustrator 15.0.0, SVG Export Plug-In . SVG Version: 6.00 Build 0)  -->
<!DOCTYPE svg PUBLIC "-//W3C//DTD SVG 1.1//EN" "http://www.w3.org/Graphics/SVG/1.1/DTD/svg11.dtd">
<svg version="1.1" id="レイヤー_1" xmlns="http://www.w3.org/2000/svg" xmlns:xlink="http://www.w3.org/1999/xlink" x="0px"
	 y="0px" width="400px" height="300px" viewBox="0 0 400 300" style="enable-background:new 0 0 400 300;" xml:space="preserve">
<style type="text/css">
<![CDATA[
	.st0{fill:#19A3F7;}
	.st1{fill:#FF5215;}
	.st2{fill:#FFAB17;}
	.st3{fill:#FFE045;}
	.st4{fill:#FFF9D9;}
	.st5{fill:#303030;}
]]>
</style>
<g>
	<g>
		<path class="st2" d="M332.607,243.099c0,21.812-17.684,39.51-39.508,39.51H106.9c-21.824,0-39.508-17.697-39.508-39.51V56.901
			c0-21.826,17.684-39.51,39.508-39.51H293.1c21.824,0,39.508,17.684,39.508,39.51V243.099z"/>
	</g>
	<g>
		<path class="st4" d="M106.9,270.608c-15.168,0-27.508-12.342-27.508-27.51V56.901c0-15.168,12.34-27.51,27.508-27.51H293.1
			c15.168,0,27.508,12.342,27.508,27.51v186.197c0,15.168-12.34,27.51-27.508,27.51H106.9z"/>
	</g>
	<path class="st3" d="M106.9,262.608c-10.757,0-19.508-8.752-19.508-19.51V56.901c0-10.758,8.751-19.51,19.508-19.51H293.1
		c10.757,0,19.508,8.752,19.508,19.51v186.197c0,10.758-8.751,19.51-19.508,19.51H106.9z"/>
	<g>
		<path class="st1" d="M143.696,175.117c0,0,6.018,54.057,58.664,54.057c52.635,0,56.29-54.057,56.29-54.057H143.696z"/>
		<path class="st5" d="M202.36,234.174c-29.539,0-45.324-16.021-53.365-29.461c-8.545-14.283-10.202-28.446-10.268-29.043
			c-0.157-1.413,0.295-2.827,1.243-3.887c0.949-1.061,2.304-1.666,3.726-1.666H258.65c1.385,0,2.707,0.574,3.653,1.586
			c0.945,1.012,1.429,2.37,1.335,3.751c-0.04,0.598-1.08,14.792-9.022,29.116C247.128,218.075,231.983,234.174,202.36,234.174z
			 M149.694,180.117c3.048,13.001,14.342,44.057,52.667,44.057c19.875,0,34.514-8.228,43.51-24.453
			c4.104-7.399,6.081-14.807,7.011-19.604H149.694z"/>
	</g>
	<path class="st5" d="M272.4,128.517c-0.072,0-0.146-0.002-0.219-0.005c-2.93-0.118-5.208-2.589-5.09-5.519
		c0.242-5.965-1.252-9.091-4.207-13.332c-2.641-3.791-6.132-5.961-9.83-6.111c-8.031-0.32-15.297,6.673-15.766,18.237
		c-0.118,2.93-2.598,5.202-5.52,5.089c-2.929-0.117-5.207-2.589-5.089-5.519c0.712-17.612,12.739-31.507,26.803-30.911
		c7.097,0.287,13.528,4.07,18.113,10.65c4.271,6.131,6.438,14.06,6.104,22.326C277.585,126.278,275.232,128.517,272.4,128.517z"/>
	<path class="st5" d="M128.814,128.517c0.072,0,0.146-0.002,0.219-0.005c2.93-0.118,5.208-2.589,5.09-5.519
		c-0.242-5.965,1.252-9.091,4.207-13.332c2.641-3.791,6.132-5.961,9.83-6.111c8.031-0.32,15.297,6.673,15.766,18.237
		c0.118,2.93,2.598,5.202,5.52,5.089c2.929-0.117,5.207-2.589,5.089-5.519c-0.712-17.612-12.739-31.507-26.803-30.911
		c-7.097,0.287-13.528,4.07-18.113,10.65c-4.271,6.131-6.438,14.06-6.104,22.326C123.63,126.278,125.982,128.517,128.814,128.517z"
		/>
	<path class="st0" d="M126.834,193.816c0,8.236-6.678,14.909-14.918,14.909s-14.918-6.673-14.918-14.909
		c0-8.241,6.678-35.798,14.918-35.798S126.834,185.575,126.834,193.816z"/>
</g>
</svg>
