<?xml version="1.0" encoding="utf-8"?>
<!-- Generator: Adobe Illustrator 15.0.0, SVG Export Plug-In . SVG Version: 6.00 Build 0)  -->
<!DOCTYPE svg PUBLIC "-//W3C//DTD SVG 1.1//EN" "http://www.w3.org/Graphics/SVG/1.1/DTD/svg11.dtd">
<svg version="1.1" id="レイヤー_1" xmlns="http://www.w3.org/2000/svg" xmlns:xlink="http://www.w3.org/1999/xlink" x="0px"
	 y="0px" width="400px" height="300px" viewBox="0 0 400 300" style="enable-background:new 0 0 400 300;" xml:space="preserve">
<style type="text/css">
<![CDATA[
	.st0{fill:#F9AAB6;}
	.st1{fill:#FF5215;}
	.st2{fill:#FFAB17;}
	.st3{fill:#FFE045;}
	.st4{fill:#FFF9D9;}
	.st5{fill:#303030;}
]]>
</style>
<g>
	<g>
		<path class="st2" d="M332.607,243.099c0,21.812-17.684,39.51-39.508,39.51H106.9c-21.824,0-39.508-17.697-39.508-39.51V56.9
			c0-21.825,17.684-39.509,39.508-39.509H293.1c21.824,0,39.508,17.684,39.508,39.509V243.099z"/>
	</g>
	<g>
		<path class="st4" d="M106.9,270.608c-15.168,0-27.508-12.342-27.508-27.51V56.9c0-15.168,12.34-27.509,27.508-27.509H293.1
			c15.168,0,27.508,12.341,27.508,27.509v186.198c0,15.168-12.34,27.51-27.508,27.51H106.9z"/>
	</g>
	<path class="st3" d="M106.9,262.608c-10.757,0-19.508-8.752-19.508-19.51V56.9c0-10.757,8.751-19.509,19.508-19.509H293.1
		c10.757,0,19.508,8.752,19.508,19.509v186.198c0,10.758-8.751,19.51-19.508,19.51H106.9z"/>
	<g>
		<path class="st1" d="M170.661,173.624c0,0,3.031,36.154,29.554,36.154c26.517,0,28.357-36.154,28.357-36.154H170.661z"/>
		<path class="st5" d="M200.215,214.778c-24.617,0-33.355-26.646-34.536-40.736c-0.117-1.394,0.355-2.773,1.302-3.803
			s2.281-1.615,3.68-1.615h57.911c1.37,0,2.681,0.562,3.624,1.556c0.944,0.993,1.439,2.33,1.369,3.698
			C232.846,188.024,224.948,214.778,200.215,214.778z M176.484,178.624c1.858,9.046,7.516,26.154,23.73,26.154
			c16.176,0,21.205-17.188,22.729-26.154H176.484z"/>
	</g>
	<path class="st0" d="M298.037,141.333c0,8.135-13.193,14.73-29.463,14.73c-16.268,0-29.451-6.596-29.451-14.73
		s13.184-14.731,29.451-14.731C284.844,126.602,298.037,133.198,298.037,141.333z"/>
	<path class="st0" d="M163.489,141.333c0,8.134-13.193,14.73-29.463,14.73c-16.268,0-29.451-6.597-29.451-14.73
		c0-8.135,13.184-14.731,29.451-14.731C150.296,126.602,163.489,133.198,163.489,141.333z"/>
	<path class="st5" d="M264.542,135.419c-0.065,0-0.131-0.002-0.197-0.004c-2.637-0.107-4.688-2.331-4.581-4.969
		c0.218-5.369-1.127-8.183-3.787-12c-2.377-3.412-5.52-5.366-8.849-5.501c-7.229-0.289-13.77,6.007-14.191,16.416
		c-0.106,2.638-2.339,4.684-4.969,4.581c-2.637-0.106-4.688-2.33-4.581-4.968c0.642-15.854,11.468-28.36,24.127-27.824
		c6.388,0.259,12.178,3.663,16.305,9.587c3.845,5.519,5.796,12.655,5.495,20.096C269.209,133.404,267.091,135.419,264.542,135.419z"
		/>
	<path class="st5" d="M137.602,135.419c0.065,0,0.131-0.002,0.197-0.004c2.637-0.107,4.688-2.331,4.581-4.969
		c-0.218-5.369,1.127-8.183,3.787-12c2.377-3.412,5.52-5.366,8.849-5.501c7.229-0.289,13.77,6.007,14.191,16.416
		c0.106,2.638,2.339,4.684,4.969,4.581c2.637-0.106,4.688-2.33,4.581-4.968c-0.642-15.854-11.468-28.36-24.127-27.824
		c-6.388,0.259-12.178,3.663-16.305,9.587c-3.845,5.519-5.796,12.655-5.495,20.096C132.935,133.404,135.053,135.419,137.602,135.419
		z"/>
	<polygon class="st5" points="263.818,110.737 277.259,105.778 268.574,126.602 	"/>
	<polygon class="st5" points="138.691,110.737 125.251,105.778 133.936,126.602 	"/>
</g>
</svg>
