<?xml version="1.0" encoding="utf-8"?>
<!-- Generator: Adobe Illustrator 15.0.0, SVG Export Plug-In . SVG Version: 6.00 Build 0)  -->
<!DOCTYPE svg PUBLIC "-//W3C//DTD SVG 1.1//EN" "http://www.w3.org/Graphics/SVG/1.1/DTD/svg11.dtd">
<svg version="1.1" id="レイヤー_1" xmlns="http://www.w3.org/2000/svg" xmlns:xlink="http://www.w3.org/1999/xlink" x="0px"
	 y="0px" width="400px" height="300px" viewBox="0 0 400 300" style="enable-background:new 0 0 400 300;" xml:space="preserve">
<style type="text/css">
<![CDATA[
	.st0{fill:#19A3F7;}
	.st1{fill:#FFAB17;}
	.st2{fill:#FFE045;}
	.st3{fill:#FFF9D9;}
	.st4{fill:#303030;}
]]>
</style>
<g>
	<g>
		<path class="st1" d="M332.607,243.099c0,21.812-17.684,39.51-39.508,39.51H106.9c-21.824,0-39.508-17.697-39.508-39.51V56.901
			c0-21.826,17.684-39.51,39.508-39.51H293.1c21.824,0,39.508,17.684,39.508,39.51V243.099z"/>
	</g>
	<g>
		<path class="st3" d="M106.9,270.608c-15.168,0-27.508-12.342-27.508-27.51V56.901c0-15.168,12.34-27.51,27.508-27.51H293.1
			c15.168,0,27.508,12.342,27.508,27.51v186.197c0,15.168-12.34,27.51-27.508,27.51H106.9z"/>
	</g>
	<path class="st2" d="M106.9,262.608c-10.757,0-19.508-8.752-19.508-19.51V56.901c0-10.758,8.751-19.51,19.508-19.51H293.1
		c10.757,0,19.508,8.752,19.508,19.51v186.197c0,10.758-8.751,19.51-19.508,19.51H106.9z"/>
	<path class="st4" d="M268.96,128.256c-3.042,0-5.774-2.12-6.434-5.214c-1.731-8.131-8.856-14.988-18.15-17.468
		c-4.812-1.285-9.753-1.289-14.287-0.014c-3.5,0.983-7.137-1.055-8.122-4.556c-0.984-3.501,1.056-7.137,4.556-8.122
		c6.81-1.915,14.158-1.926,21.25-0.032c14.033,3.745,24.881,14.52,27.635,27.449c0.758,3.557-1.512,7.054-5.068,7.812
		C269.876,128.209,269.414,128.256,268.96,128.256z"/>
	<path class="st4" d="M129.064,128.256c-0.454,0-0.916-0.047-1.378-0.146c-3.557-0.758-5.826-4.255-5.069-7.812
		c2.754-12.93,13.602-23.704,27.635-27.45c5.437-1.451,13.555-3.13,21.249-0.965c3.501,0.984,5.541,4.621,4.556,8.122
		c-0.984,3.501-4.62,5.541-8.122,4.556c-3.488-0.981-8.027-0.659-14.288,1.012c-9.294,2.48-16.418,9.337-18.15,17.469
		C134.839,126.137,132.106,128.256,129.064,128.256z"/>
	<path class="st4" d="M242.799,241.716h-77.584c-3.313,0-6-2.687-6-6s2.687-6,6-6h77.584c3.313,0,6,2.687,6,6
		S246.112,241.716,242.799,241.716z"/>
	<path class="st0" d="M127.261,187.782c0,8.236-6.678,14.91-14.918,14.91s-14.918-6.674-14.918-14.91
		c0-8.24,6.678-35.797,14.918-35.797S127.261,179.542,127.261,187.782z"/>
</g>
</svg>
