<?xml version="1.0" encoding="utf-8"?>
<!-- Generator: Adobe Illustrator 15.0.0, SVG Export Plug-In . SVG Version: 6.00 Build 0)  -->
<!DOCTYPE svg PUBLIC "-//W3C//DTD SVG 1.1//EN" "http://www.w3.org/Graphics/SVG/1.1/DTD/svg11.dtd">
<svg version="1.1" id="レイヤー_1" xmlns="http://www.w3.org/2000/svg" xmlns:xlink="http://www.w3.org/1999/xlink" x="0px"
	 y="0px" width="400px" height="300px" viewBox="0 0 400 300" style="enable-background:new 0 0 400 300;" xml:space="preserve">
<style type="text/css">
<![CDATA[
	.st0{fill:#19A3F7;}
	.st1{fill:#FFAB17;}
	.st2{fill:#FFE045;}
	.st3{fill:#FFF9D9;}
	.st4{fill:#303030;}
]]>
</style>
<g>
	<g>
		<path class="st1" d="M332.607,243.099c0,21.812-17.684,39.51-39.508,39.51H106.9c-21.824,0-39.508-17.697-39.508-39.51V56.901
			c0-21.826,17.684-39.51,39.508-39.51H293.1c21.824,0,39.508,17.684,39.508,39.51V243.099z"/>
	</g>
	<g>
		<path class="st3" d="M106.9,270.608c-15.168,0-27.508-12.342-27.508-27.51V56.901c0-15.168,12.34-27.51,27.508-27.51H293.1
			c15.168,0,27.508,12.342,27.508,27.51v186.197c0,15.168-12.34,27.51-27.508,27.51H106.9z"/>
	</g>
	<path class="st2" d="M106.9,262.608c-10.757,0-19.508-8.752-19.508-19.51V56.901c0-10.758,8.751-19.51,19.508-19.51H293.1
		c10.757,0,19.508,8.752,19.508,19.51v186.197c0,10.758-8.751,19.51-19.508,19.51H106.9z"/>
	<path class="st4" d="M239.671,241.716h-77.584c-3.313,0-6-2.687-6-6s2.687-6,6-6h77.584c3.313,0,6,2.687,6,6
		S242.984,241.716,239.671,241.716z"/>
	<path class="st4" d="M167.165,128.103h-48.376c-3.313,0-6-2.687-6-6s2.687-6,6-6h48.376c3.313,0,6,2.687,6,6
		S170.479,128.103,167.165,128.103z"/>
	<path class="st4" d="M282.807,128.103h-48.376c-3.313,0-6-2.687-6-6s2.687-6,6-6h48.376c3.313,0,6,2.687,6,6
		S286.12,128.103,282.807,128.103z"/>
	<path class="st0" d="M301.009,187.782c0,8.236-6.678,14.91-14.918,14.91s-14.918-6.674-14.918-14.91
		c0-8.24,6.678-35.797,14.918-35.797S301.009,179.542,301.009,187.782z"/>
</g>
</svg>
