<?xml version="1.0" encoding="utf-8"?>
<!-- Generator: Adobe Illustrator 15.0.0, SVG Export Plug-In . SVG Version: 6.00 Build 0)  -->
<!DOCTYPE svg PUBLIC "-//W3C//DTD SVG 1.1//EN" "http://www.w3.org/Graphics/SVG/1.1/DTD/svg11.dtd">
<svg version="1.1" id="レイヤー_1" xmlns="http://www.w3.org/2000/svg" xmlns:xlink="http://www.w3.org/1999/xlink" x="0px"
	 y="0px" width="400px" height="300px" viewBox="0 0 400 300" style="enable-background:new 0 0 400 300;" xml:space="preserve">
<style type="text/css">
<![CDATA[
	.st0{fill:#2A3BDB;}
]]>
</style>
<g>
	<g>
		<g>
			<path class="st0" d="M201.943,39.284l-18.005,0.58l-2.797,0.193l-14.684,1.353l-12.062,1.546
				c-2.098,0.29-11.362,1.836-12.411,2.029c-6.118,1.644-7.167,1.837-9.789,1.837c-4.895,0-7.517-1.644-7.517-4.349
				c0-2.223,7.167-8.697,13.285-8.697c0.524,0,3.146,0.29,3.671,0.29l20.977-1.933l4.021-0.387l26.046-1.16l4.545-0.193h18.354
				l24.123,1.837l29.542,2.126c1.224,0.097,6.992,0.579,7.691,0.676s1.398,0.29,1.398,0.87c0,1.933-10.313,8.021-18.704,8.021
				c-1.049,0-2.622-0.097-3.671-0.29l-27.444-2.995c-0.874-0.097-2.098-0.193-2.972-0.193s-1.573,0.193-2.797,1.062L209.46,51.17
				c-1.049,0.773-1.748,1.74-1.923,2.706l-0.874,7.73l-0.35,13.916l0.175,2.802l0.699,8.987l0.35,8.794
				c0.175,3.382-0.874,5.604-1.923,7.054c-1.224,1.643-5.769,3.962-7.691,3.962c-7.866,0-11.887-9.566-11.887-10.34
				c0-1.353,3.671-6.86,4.195-8.021c1.923-5.121,1.748-8.311,1.573-12.562l-0.524-9.76l-0.524-2.029
				c-1.573,0.483-6.468,3.962-7.691,4.542l-14.509,6.764c-4.545,2.126-9.789,3.963-14.509,5.412
				c-1.573,0.483-8.041,2.898-9.614,3.188c-2.098,0.483-3.846,0.677-5.769,0.677c-5.769,0-18.704-4.059-18.704-7.73
				c0-2.029,1.573-2.223,6.468-2.899c8.915-1.353,30.766-6.281,48.421-13.335c11.537-4.542,33.737-16.718,33.912-21.356
				L201.943,39.284z M240.925,64.022l11.013,2.996l15.907,3.382c1.573,0.387,9.265,1.449,10.663,1.933
				c0.524,0.097,1.049,0.58,1.049,0.967c0,0.386-10.838,8.407-19.403,8.407c-5.594,0-12.411-2.803-14.334-3.673l-12.586-6.185
				l-2.447-0.966l-9.789-4.639c-1.748-0.869-2.098-0.869-5.419-1.643c-2.272-0.483-3.321-2.899-3.321-4.059
				c0-1.933,2.797-5.315,8.74-4.639c0.524,0.29,2.622,1.933,3.146,2.126c1.398,0.677,3.846,1.546,5.943,2.223L240.925,64.022z"/>
			<path class="st0" d="M193.378,125.966l-12.236,5.509l-16.082,6.281l-1.398,0.482l-13.635,4.445
				c-2.447,0.773-13.635,4.059-17.48,4.059s-14.509-3.672-14.509-8.117c0-1.256,1.573-2.513,2.447-2.513
				c0.175,0,2.272,0.193,2.622,0.193c6.817,0,23.599-3.575,31.989-5.798c23.249-6.185,31.814-12.176,31.814-13.142
				c0-0.193-2.797-1.934-2.797-2.319c0-3.865,7.167-4.735,12.586-4.735c6.817,0,10.838,1.739,10.838,3.382
				c0,3.673,0,4.445,18.18,9.664c3.146,0.869,16.432,4.928,19.403,5.701c15.208,3.769,18.879,4.639,30.241,6.185
				c2.622,0.387,4.195,1.449,4.195,2.319c0,1.256-10.838,7.247-14.858,7.247c-2.622,0-4.37-0.387-14.684-3.188
				c-13.46-3.575-36.884-11.597-45.1-16.234c-3.496-2.029-3.846-2.223-5.594-2.803L193.378,125.966z M250.714,174.67l-4.021,6.957
				c-1.573,2.706-5.943,10.146-12.761,10.146c-0.699,0-3.671,0-4.195-0.097C226.591,191,226.241,191,225.542,191h-6.118
				l-26.396-0.387c-4.37-0.096-12.761-0.192-16.781-0.096c-0.175,0-9.964,1.643-11.887,1.643c-6.468,0-9.614-3.576-10.313-5.121
				l-2.972-6.186c-0.524-1.256-5.244-9.18-6.992-9.855c-0.699-0.291-4.021-1.257-4.545-1.547c-2.272-0.773-2.972-1.933-2.972-2.803
				c0-2.898,5.943-7.247,13.11-7.924c1.573-0.096,8.216-1.062,9.614-1.159c8.565-0.677,32.164-0.773,38.981-0.58l12.062,0.387
				l20.277,0.387c6.643,0.097,14.509,0.387,17.83,0.966c9.439,1.74,13.285,5.895,13.285,8.117c0,1.354-0.874,1.643-4.37,2.706
				c-0.35,0.097-3.146,1.45-3.671,1.933c-2.098,2.319-2.447,2.609-2.622,2.898L250.714,174.67z M170.828,141.331h1.049
				c2.622,0.58,2.972,0.677,5.244,0.677c9.614,0,12.411,0,20.977-0.097c2.622,0,18.704,0.579,22.375,0.579
				c5.419,0,11.362,0.097,16.082,0.967c1.923,0.387,2.098,2.126,2.098,2.706c0,3.188-3.146,5.024-8.74,5.024
				c-4.72,0-25.696-0.772-30.066-0.772c-8.74,0-27.444,0.869-30.591,1.062c-1.224,0.097-6.293,0.87-7.342,0.87
				c-1.748,0-4.195-1.644-4.195-2.609C157.718,146.452,164.36,141.331,170.828,141.331z M232.01,181.145l4.021-8.117
				c0.35-0.678,2.447-5.992,2.447-6.281c0-0.484-8.216-1.063-8.565-1.063l-18.354-0.483l-16.082-0.193l-19.229,0.097
				c-1.923,0-10.663,0.772-12.411,0.772c-2.098,0-4.021,0-4.021,1.547c0,0.869,4.195,8.601,5.943,12.079
				c1.049,2.223,1.923,2.416,5.419,2.416c3.146,0,16.781,0.193,19.578,0.193l31.29,0.097h9.09L232.01,181.145z"/>
			<path class="st0" d="M163.486,215.355c0,0.87,2.098,0.87,2.622,0.87h5.943c3.496,0.483,4.895,2.416,4.895,3.382
				c0,1.063-1.398,2.899-3.496,3.286c-0.874,0.192-7.342,0.772-8.915,0.966c0.699,3.093,4.895,5.025,5.943,5.412
				c5.943,2.705,6.643,2.996,6.643,4.348c0,2.32-3.846,3.673-6.118,3.673c-1.748,0-3.496-1.063-3.671-1.159
				c-2.972-1.836-3.321-2.029-4.72-2.514l-0.35,0.193l-0.35,2.029l-0.175,22.902l0.35,7.924c0,0.678,0.35,10.34-8.391,10.34
				c-4.195,0-10.488-5.508-10.488-9.373c0-1.062,3.846-5.895,3.846-6.088l2.272-8.891l0.699-8.697l-0.175-4.638h-0.699l-0.874,0.579
				l-5.244,5.895c-5.943,6.668-11.362,13.047-17.306,13.047c-4.72,0-7.517-4.059-7.517-6.186c0-4.348,0.699-4.734,5.769-7.15
				c9.439-4.349,22.2-15.752,22.2-21.066c-2.622-0.097-3.671,0-12.586,0.869c-0.874,0.098-4.895,0.773-5.594,0.773
				c-3.496,0-6.118-2.029-6.118-3.382c0-0.772,2.797-7.054,13.81-7.054c2.447,0,12.761,0.482,14.858,0.482
				c0.175-2.223-0.175-7.344-1.573-9.084c-0.35-0.289-2.098-1.545-2.272-1.932v-0.484c0-3.381,6.118-7.439,11.712-7.439
				c4.72,0,6.992,2.608,6.992,5.024v2.608L163.486,215.355z M197.573,222.797c-0.699,0.289-7.866,4.639-11.887,4.639
				c-6.468,0-6.468-3.865-6.468-6.958c0-2.223,0.874-2.513,9.09-5.122c3.146-0.966,9.964-3.865,12.062-5.218
				c1.224-0.772,4.895-4.155,4.895-5.315c0-0.289-0.35-0.386-2.098-1.256c-0.35-0.193-1.049-1.062-1.049-1.546
				c0-1.546,3.496-3.962,9.789-3.962c4.195,0,5.419,3.285,5.943,4.349h13.984c1.398,0,3.846,0,5.069-0.097
				c0.874-0.097,4.021-0.58,4.72-0.58c6.293,0,15.208,4.445,15.208,7.537c0,1.836-2.447,2.223-8.216,2.803
				c-1.049,0.097-1.398,0.097-2.972,1.256l-7.517,5.509c-0.524,0.483-6.817,5.122-6.817,5.218c0,1.449,14.509,5.895,15.383,6.088
				l14.159,3.093c0.35,0.097,14.334,2.029,15.732,2.222c1.049,0.193,3.496,0.58,3.496,1.644c0,0.87-6.817,8.504-14.159,8.504
				c-4.195,0-15.033-3.382-19.229-4.735c-1.748-0.482-11.712-5.025-13.11-5.701l-9.439-4.928l-4.37,3.381l-9.614,6.186
				c-1.224,0.773-11.362,5.314-11.537,5.314c-6.118,1.739-9.964,2.898-14.858,2.898c-3.671,0-12.936-2.125-12.936-6.281
				c0-1.545,0.35-1.545,4.895-2.029c15.208-1.643,39.855-14.301,39.855-15.074c0-0.676-2.272-2.029-2.447-2.223
				c-2.622-1.643-3.146-1.933-7.517-4.928L197.573,222.797z M247.393,273.723c-5.069,0.387-13.11,0.677-37.758,0.677
				c-13.635,0-14.334-2.995-15.208-6.668c-0.524-2.029-1.573-4.252-3.496-8.504c-0.35-0.772-2.797-4.155-2.797-4.831
				c0-4.35,10.488-7.441,11.013-7.538c1.748-0.579,10.139-0.966,12.586-0.966c2.797,0,14.684,0.193,17.131,0.193
				c1.748,0,13.46-0.193,13.81-0.193c7.167,0,12.586,0,15.732,1.062c4.545,1.449,9.614,4.155,9.614,6.185
				c0,0.966-4.545,4.349-4.895,5.218c-0.35,0.58-4.895,9.857-6.643,11.307c-1.573,1.256-1.573,1.354-1.748,2.029
				C252.287,272.949,250.714,273.434,247.393,273.723z M208.761,265.025c0.35,0.773,0.874,1.16,2.972,1.16
				c1.573,0,8.915,0.289,10.313,0.289c1.573,0,8.041-0.096,9.439-0.096c9.265,0,10.313,0,11.537-0.483
				c2.098-0.966,5.244-9.276,5.244-11.21c0-1.256-3.146-1.353-4.72-1.353c-6.293,0-23.599,0.097-28.318,0.193
				c-8.565,0.29-9.614,0.29-9.614,1.546C205.614,257.198,207.362,262.609,208.761,265.025z M232.884,210.524
				c-1.748-0.193-2.098-0.193-2.797-0.193c-1.923,0-10.838,0.097-12.586,0.097c-2.272,0-2.447,0-3.321,0.289
				c0,0.098-0.874,1.063-0.874,1.45c0,2.416,7.691,6.571,9.964,7.827C226.591,218.062,232.709,213.037,232.884,210.524z"/>
		</g>
	</g>
	<path class="st0" d="M309.013,284.013H90.987c-13.785,0-25-11.215-25-25V40.987c0-13.785,11.215-25,25-25h218.025
		c13.785,0,25,11.215,25,25v218.025C334.013,272.798,322.798,284.013,309.013,284.013z M90.987,25.987c-8.271,0-15,6.729-15,15
		v218.025c0,8.271,6.729,15,15,15h218.025c8.271,0,15-6.729,15-15V40.987c0-8.271-6.729-15-15-15H90.987z"/>
</g>
</svg>
